<?xml version="1.0" encoding="utf-8" standalone="no"?>
<!DOCTYPE svg PUBLIC "-//W3C//DTD SVG 1.1//EN"
  "http://www.w3.org/Graphics/SVG/1.1/DTD/svg11.dtd">
<svg xmlns:xlink="http://www.w3.org/1999/xlink" width="667.1808pt" height="470.28pt" viewBox="0 0 667.1808 470.28" xmlns="http://www.w3.org/2000/svg" version="1.1">
 <metadata>
  <rdf:RDF xmlns:dc="http://purl.org/dc/elements/1.1/" xmlns:cc="http://creativecommons.org/ns#" xmlns:rdf="http://www.w3.org/1999/02/22-rdf-syntax-ns#">
   <cc:Work>
    <dc:type rdf:resource="http://purl.org/dc/dcmitype/StillImage"/>
    <dc:date>2024-02-20T15:26:01.840927</dc:date>
    <dc:format>image/svg+xml</dc:format>
    <dc:creator>
     <cc:Agent>
      <dc:title>Matplotlib v3.7.1, https://matplotlib.org/</dc:title>
     </cc:Agent>
    </dc:creator>
   </cc:Work>
  </rdf:RDF>
 </metadata>
 <defs>
  <style type="text/css">*{stroke-linejoin: round; stroke-linecap: butt}</style>
 </defs>
 <g id="figure_1">
  <g id="patch_1">
   <path d="M 0 470.28 
L 667.1808 470.28 
L 667.1808 0 
L 0 0 
z
" style="fill: #ffffff"/>
  </g>
  <g id="axes_1">
   <g id="patch_2">
    <path d="M 95.9808 179.52 
L 653.9808 179.52 
L 653.9808 13.2 
L 95.9808 13.2 
z
" style="fill: #ffffff"/>
   </g>
   <g id="matplotlib.axis_1">
    <g id="xtick_1">
     <g id="line2d_1">
      <defs>
       <path id="m700e34dc87" d="M 0 0 
L 0 4 
" style="stroke: #262626; stroke-width: 1.25"/>
      </defs>
      <g>
       <use xlink:href="#m700e34dc87" x="102.321709" y="13.2" style="fill: #262626; stroke: #262626; stroke-width: 1.25"/>
      </g>
     </g>
    </g>
    <g id="xtick_2">
     <g id="line2d_2">
      <g>
       <use xlink:href="#m700e34dc87" x="165.7308" y="13.2" style="fill: #262626; stroke: #262626; stroke-width: 1.25"/>
      </g>
     </g>
    </g>
    <g id="xtick_3">
     <g id="line2d_3">
      <g>
       <use xlink:href="#m700e34dc87" x="229.139891" y="13.2" style="fill: #262626; stroke: #262626; stroke-width: 1.25"/>
      </g>
     </g>
    </g>
    <g id="xtick_4">
     <g id="line2d_4">
      <g>
       <use xlink:href="#m700e34dc87" x="292.548982" y="13.2" style="fill: #262626; stroke: #262626; stroke-width: 1.25"/>
      </g>
     </g>
    </g>
    <g id="xtick_5">
     <g id="line2d_5">
      <g>
       <use xlink:href="#m700e34dc87" x="355.958073" y="13.2" style="fill: #262626; stroke: #262626; stroke-width: 1.25"/>
      </g>
     </g>
    </g>
    <g id="xtick_6">
     <g id="line2d_6">
      <g>
       <use xlink:href="#m700e34dc87" x="419.367164" y="13.2" style="fill: #262626; stroke: #262626; stroke-width: 1.25"/>
      </g>
     </g>
    </g>
    <g id="xtick_7">
     <g id="line2d_7">
      <g>
       <use xlink:href="#m700e34dc87" x="482.776255" y="13.2" style="fill: #262626; stroke: #262626; stroke-width: 1.25"/>
      </g>
     </g>
    </g>
    <g id="xtick_8">
     <g id="line2d_8">
      <g>
       <use xlink:href="#m700e34dc87" x="546.185345" y="13.2" style="fill: #262626; stroke: #262626; stroke-width: 1.25"/>
      </g>
     </g>
    </g>
    <g id="xtick_9">
     <g id="line2d_9">
      <g>
       <use xlink:href="#m700e34dc87" x="609.594436" y="13.2" style="fill: #262626; stroke: #262626; stroke-width: 1.25"/>
      </g>
     </g>
    </g>
   </g>
   <g id="matplotlib.axis_2">
    <g id="ytick_1">
     <g id="line2d_10">
      <defs>
       <path id="m5878f8794d" d="M 0 0 
L -4 0 
" style="stroke: #262626; stroke-width: 1.25"/>
      </defs>
      <g>
       <use xlink:href="#m5878f8794d" x="653.9808" y="173.760462" style="fill: #262626; stroke: #262626; stroke-width: 1.25"/>
      </g>
     </g>
     <g id="text_1">
      <!-- −6.8 -->
      <g style="fill: #262626" transform="translate(55.223612 179.72015) scale(0.18 -0.18)">
       <defs>
        <path id="TimesNewRomanPS-BoldMT-2212" d="M 125 2325 
L 3541 2325 
L 3541 1913 
L 125 1913 
L 125 2325 
z
" transform="scale(0.015625)"/>
        <path id="TimesNewRomanPS-BoldMT-36" d="M 3006 4325 
L 3006 4238 
Q 2441 4094 2098 3867 
Q 1756 3641 1557 3317 
Q 1359 2994 1250 2516 
Q 1388 2609 1478 2638 
Q 1681 2700 1888 2700 
Q 2363 2700 2680 2354 
Q 2997 2009 2997 1413 
Q 2997 994 2825 644 
Q 2653 294 2337 103 
Q 2022 -88 1663 -88 
Q 1272 -88 940 126 
Q 609 341 423 753 
Q 238 1166 238 1650 
Q 238 2363 580 2977 
Q 922 3591 1551 3955 
Q 2181 4319 3006 4325 
z
M 1209 2263 
Q 1184 1831 1184 1631 
Q 1184 1200 1267 797 
Q 1350 394 1494 231 
Q 1597 116 1738 116 
Q 1881 116 1993 283 
Q 2106 450 2106 963 
Q 2106 1825 1897 2153 
Q 1763 2366 1534 2366 
Q 1409 2366 1209 2263 
z
" transform="scale(0.015625)"/>
        <path id="TimesNewRomanPS-BoldMT-2e" d="M 800 963 
Q 1019 963 1170 809 
Q 1322 656 1322 441 
Q 1322 225 1169 73 
Q 1016 -78 800 -78 
Q 584 -78 432 73 
Q 281 225 281 441 
Q 281 656 432 809 
Q 584 963 800 963 
z
" transform="scale(0.015625)"/>
        <path id="TimesNewRomanPS-BoldMT-38" d="M 2181 2394 
Q 2628 2066 2801 1783 
Q 2975 1500 2975 1134 
Q 2975 622 2589 267 
Q 2203 -88 1541 -88 
Q 913 -88 569 221 
Q 225 531 225 978 
Q 225 1319 423 1575 
Q 622 1831 1084 2044 
Q 581 2428 439 2672 
Q 297 2916 297 3238 
Q 297 3663 658 3986 
Q 1019 4309 1647 4309 
Q 2253 4309 2579 4023 
Q 2906 3738 2906 3338 
Q 2906 3038 2729 2808 
Q 2553 2578 2181 2394 
z
M 1944 2553 
Q 2059 2709 2115 2903 
Q 2172 3097 2172 3328 
Q 2172 3734 1997 3950 
Q 1866 4116 1634 4116 
Q 1425 4116 1278 3964 
Q 1131 3813 1131 3588 
Q 1131 3359 1295 3114 
Q 1459 2869 1944 2553 
z
M 1319 1894 
Q 1222 1806 1181 1734 
Q 1119 1625 1069 1415 
Q 1019 1206 1019 978 
Q 1019 684 1094 486 
Q 1169 288 1308 200 
Q 1447 113 1594 113 
Q 1822 113 1978 280 
Q 2134 447 2134 738 
Q 2134 1344 1319 1894 
z
" transform="scale(0.015625)"/>
       </defs>
       <use xlink:href="#TimesNewRomanPS-BoldMT-2212"/>
       <use xlink:href="#TimesNewRomanPS-BoldMT-36" x="56.982422"/>
       <use xlink:href="#TimesNewRomanPS-BoldMT-2e" x="106.982422"/>
       <use xlink:href="#TimesNewRomanPS-BoldMT-38" x="131.982422"/>
      </g>
     </g>
    </g>
    <g id="ytick_2">
     <g id="line2d_11">
      <g>
       <use xlink:href="#m5878f8794d" x="653.9808" y="138.25507" style="fill: #262626; stroke: #262626; stroke-width: 1.25"/>
      </g>
     </g>
     <g id="text_2">
      <!-- −6.7 -->
      <g style="fill: #262626" transform="translate(55.223612 144.214757) scale(0.18 -0.18)">
       <defs>
        <path id="TimesNewRomanPS-BoldMT-37" d="M 1134 -88 
L 2288 3409 
L 1409 3409 
Q 894 3409 634 3275 
Q 453 3181 334 2922 
L 216 2922 
L 522 4238 
L 3047 4238 
L 1625 -88 
L 1134 -88 
z
" transform="scale(0.015625)"/>
       </defs>
       <use xlink:href="#TimesNewRomanPS-BoldMT-2212"/>
       <use xlink:href="#TimesNewRomanPS-BoldMT-36" x="56.982422"/>
       <use xlink:href="#TimesNewRomanPS-BoldMT-2e" x="106.982422"/>
       <use xlink:href="#TimesNewRomanPS-BoldMT-37" x="131.982422"/>
      </g>
     </g>
    </g>
    <g id="ytick_3">
     <g id="line2d_12">
      <g>
       <use xlink:href="#m5878f8794d" x="653.9808" y="102.749677" style="fill: #262626; stroke: #262626; stroke-width: 1.25"/>
      </g>
     </g>
     <g id="text_3">
      <!-- −6.6 -->
      <g style="fill: #262626" transform="translate(55.223612 108.709364) scale(0.18 -0.18)">
       <use xlink:href="#TimesNewRomanPS-BoldMT-2212"/>
       <use xlink:href="#TimesNewRomanPS-BoldMT-36" x="56.982422"/>
       <use xlink:href="#TimesNewRomanPS-BoldMT-2e" x="106.982422"/>
       <use xlink:href="#TimesNewRomanPS-BoldMT-36" x="131.982422"/>
      </g>
     </g>
    </g>
    <g id="ytick_4">
     <g id="line2d_13">
      <g>
       <use xlink:href="#m5878f8794d" x="653.9808" y="67.244284" style="fill: #262626; stroke: #262626; stroke-width: 1.25"/>
      </g>
     </g>
     <g id="text_4">
      <!-- −6.5 -->
      <g style="fill: #262626" transform="translate(55.223612 73.203971) scale(0.18 -0.18)">
       <defs>
        <path id="TimesNewRomanPS-BoldMT-35" d="M 975 4238 
L 2959 4238 
L 2644 3431 
L 975 3431 
L 816 3009 
Q 1894 2969 2475 2472 
Q 2953 2063 2953 1453 
Q 2953 1063 2731 689 
Q 2509 316 2106 114 
Q 1703 -88 1222 -88 
Q 703 -88 425 106 
Q 231 244 231 419 
Q 231 553 332 656 
Q 434 759 569 759 
Q 691 759 816 709 
Q 941 659 1244 447 
Q 1434 316 1572 266 
Q 1669 228 1791 228 
Q 2047 228 2226 415 
Q 2406 603 2406 866 
Q 2406 1416 1856 1759 
Q 1306 2103 469 2103 
Q 384 2103 216 2100 
L 975 4238 
z
" transform="scale(0.015625)"/>
       </defs>
       <use xlink:href="#TimesNewRomanPS-BoldMT-2212"/>
       <use xlink:href="#TimesNewRomanPS-BoldMT-36" x="56.982422"/>
       <use xlink:href="#TimesNewRomanPS-BoldMT-2e" x="106.982422"/>
       <use xlink:href="#TimesNewRomanPS-BoldMT-35" x="131.982422"/>
      </g>
     </g>
    </g>
    <g id="ytick_5">
     <g id="line2d_14">
      <g>
       <use xlink:href="#m5878f8794d" x="653.9808" y="31.738891" style="fill: #262626; stroke: #262626; stroke-width: 1.25"/>
      </g>
     </g>
     <g id="text_5">
      <!-- −6.4 -->
      <g style="fill: #262626" transform="translate(55.223612 37.698579) scale(0.18 -0.18)">
       <defs>
        <path id="TimesNewRomanPS-BoldMT-34" d="M 159 1597 
L 2172 4325 
L 2553 4325 
L 2553 1597 
L 2941 1597 
L 2941 950 
L 2553 950 
L 2553 0 
L 1694 0 
L 1694 950 
L 159 950 
L 159 1597 
z
M 463 1597 
L 1694 1597 
L 1694 3269 
L 463 1597 
z
" transform="scale(0.015625)"/>
       </defs>
       <use xlink:href="#TimesNewRomanPS-BoldMT-2212"/>
       <use xlink:href="#TimesNewRomanPS-BoldMT-36" x="56.982422"/>
       <use xlink:href="#TimesNewRomanPS-BoldMT-2e" x="106.982422"/>
       <use xlink:href="#TimesNewRomanPS-BoldMT-34" x="131.982422"/>
      </g>
     </g>
    </g>
    <g id="text_6">
     <!-- TES Profit  -->
     <g style="fill: #262626" transform="translate(24.373462 148.967812) rotate(-90) scale(0.216 -0.216)">
      <defs>
       <path id="TimesNewRomanPS-BoldMT-54" d="M 4038 4238 
L 4038 3091 
L 3925 3091 
Q 3825 3488 3703 3661 
Q 3581 3834 3369 3938 
Q 3250 3994 2953 3994 
L 2638 3994 
L 2638 725 
Q 2638 400 2673 319 
Q 2709 238 2814 177 
Q 2919 116 3100 116 
L 3241 116 
L 3241 0 
L 1022 0 
L 1022 116 
L 1163 116 
Q 1347 116 1459 181 
Q 1541 225 1588 331 
Q 1622 406 1622 725 
L 1622 3994 
L 1316 3994 
Q 888 3994 694 3813 
Q 422 3559 350 3091 
L 231 3091 
L 231 4238 
L 4038 4238 
z
" transform="scale(0.015625)"/>
       <path id="TimesNewRomanPS-BoldMT-45" d="M 1744 3994 
L 1744 2269 
L 1828 2269 
Q 2231 2269 2412 2522 
Q 2594 2775 2644 3269 
L 2763 3269 
L 2763 1050 
L 2644 1050 
Q 2606 1413 2486 1644 
Q 2366 1875 2206 1954 
Q 2047 2034 1744 2034 
L 1744 841 
Q 1744 491 1773 412 
Q 1803 334 1884 284 
Q 1966 234 2147 234 
L 2400 234 
Q 2994 234 3351 509 
Q 3709 784 3866 1347 
L 3981 1347 
L 3791 0 
L 128 0 
L 128 116 
L 269 116 
Q 453 116 566 181 
Q 647 225 691 331 
Q 725 406 725 725 
L 725 3513 
Q 725 3800 709 3866 
Q 678 3975 594 4034 
Q 475 4122 269 4122 
L 128 4122 
L 128 4238 
L 3675 4238 
L 3675 2984 
L 3556 2984 
Q 3466 3444 3302 3644 
Q 3138 3844 2838 3938 
Q 2663 3994 2181 3994 
L 1744 3994 
z
" transform="scale(0.015625)"/>
       <path id="TimesNewRomanPS-BoldMT-53" d="M 3006 4334 
L 3041 2922 
L 2913 2922 
Q 2822 3453 2467 3776 
Q 2113 4100 1700 4100 
Q 1381 4100 1195 3929 
Q 1009 3759 1009 3538 
Q 1009 3397 1075 3288 
Q 1166 3141 1366 2997 
Q 1513 2894 2044 2631 
Q 2788 2266 3047 1941 
Q 3303 1616 3303 1197 
Q 3303 666 2889 283 
Q 2475 -100 1838 -100 
Q 1638 -100 1459 -59 
Q 1281 -19 1013 94 
Q 863 156 766 156 
Q 684 156 593 93 
Q 503 31 447 -97 
L 331 -97 
L 331 1503 
L 447 1503 
Q 584 828 976 473 
Q 1369 119 1822 119 
Q 2172 119 2380 309 
Q 2588 500 2588 753 
Q 2588 903 2508 1043 
Q 2428 1184 2265 1311 
Q 2103 1438 1691 1641 
Q 1113 1925 859 2125 
Q 606 2325 470 2572 
Q 334 2819 334 3116 
Q 334 3622 706 3978 
Q 1078 4334 1644 4334 
Q 1850 4334 2044 4284 
Q 2191 4247 2402 4145 
Q 2613 4044 2697 4044 
Q 2778 4044 2825 4094 
Q 2872 4144 2913 4334 
L 3006 4334 
z
" transform="scale(0.015625)"/>
       <path id="TimesNewRomanPS-BoldMT-20" transform="scale(0.015625)"/>
       <path id="TimesNewRomanPS-BoldMT-50" d="M 1728 1919 
L 1728 744 
Q 1728 400 1770 311 
Q 1813 222 1920 169 
Q 2028 116 2316 116 
L 2316 0 
L 163 0 
L 163 116 
Q 456 116 561 170 
Q 666 225 708 312 
Q 750 400 750 744 
L 750 3494 
Q 750 3838 708 3927 
Q 666 4016 559 4069 
Q 453 4122 163 4122 
L 163 4238 
L 2009 4238 
Q 2922 4238 3319 3913 
Q 3716 3588 3716 3100 
Q 3716 2688 3459 2394 
Q 3203 2100 2753 1994 
Q 2450 1919 1728 1919 
z
M 1728 3994 
L 1728 2163 
Q 1831 2156 1884 2156 
Q 2266 2156 2472 2382 
Q 2678 2609 2678 3084 
Q 2678 3556 2472 3775 
Q 2266 3994 1856 3994 
L 1728 3994 
z
" transform="scale(0.015625)"/>
       <path id="TimesNewRomanPS-BoldMT-72" d="M 1428 2922 
L 1428 2259 
Q 1719 2713 1937 2861 
Q 2156 3009 2359 3009 
Q 2534 3009 2639 2901 
Q 2744 2794 2744 2597 
Q 2744 2388 2642 2272 
Q 2541 2156 2397 2156 
Q 2231 2156 2109 2262 
Q 1988 2369 1966 2381 
Q 1934 2400 1894 2400 
Q 1803 2400 1722 2331 
Q 1594 2225 1528 2028 
Q 1428 1725 1428 1359 
L 1428 688 
L 1431 513 
Q 1431 334 1453 284 
Q 1491 200 1564 161 
Q 1638 122 1813 113 
L 1813 0 
L 234 0 
L 234 113 
Q 425 128 492 217 
Q 559 306 559 688 
L 559 2303 
Q 559 2553 534 2622 
Q 503 2709 443 2750 
Q 384 2791 234 2806 
L 234 2922 
L 1428 2922 
z
" transform="scale(0.015625)"/>
       <path id="TimesNewRomanPS-BoldMT-6f" d="M 1594 3009 
Q 1975 3009 2303 2812 
Q 2631 2616 2801 2253 
Q 2972 1891 2972 1459 
Q 2972 838 2656 419 
Q 2275 -88 1603 -88 
Q 944 -88 587 375 
Q 231 838 231 1447 
Q 231 2075 595 2542 
Q 959 3009 1594 3009 
z
M 1606 2788 
Q 1447 2788 1333 2667 
Q 1219 2547 1183 2192 
Q 1147 1838 1147 1206 
Q 1147 872 1191 581 
Q 1225 359 1337 243 
Q 1450 128 1594 128 
Q 1734 128 1828 206 
Q 1950 313 1991 503 
Q 2053 800 2053 1703 
Q 2053 2234 1993 2432 
Q 1934 2631 1819 2722 
Q 1738 2788 1606 2788 
z
" transform="scale(0.015625)"/>
       <path id="TimesNewRomanPS-BoldMT-66" d="M 1497 2616 
L 1497 588 
Q 1497 294 1559 219 
Q 1659 103 1928 113 
L 1928 0 
L 206 0 
L 206 113 
Q 403 116 486 158 
Q 569 200 600 275 
Q 631 350 631 588 
L 631 2616 
L 206 2616 
L 206 2922 
L 631 2922 
L 631 3138 
L 628 3284 
Q 628 3734 958 4034 
Q 1288 4334 1850 4334 
Q 2234 4334 2420 4190 
Q 2606 4047 2606 3872 
Q 2606 3731 2490 3628 
Q 2375 3525 2184 3525 
Q 2022 3525 1926 3609 
Q 1831 3694 1831 3797 
Q 1831 3825 1850 3913 
Q 1863 3966 1863 4013 
Q 1863 4078 1825 4109 
Q 1775 4156 1703 4156 
Q 1613 4156 1552 4081 
Q 1491 4006 1491 3841 
L 1497 3294 
L 1497 2922 
L 1928 2922 
L 1928 2616 
L 1497 2616 
z
" transform="scale(0.015625)"/>
       <path id="TimesNewRomanPS-BoldMT-69" d="M 919 4338 
Q 1122 4338 1262 4195 
Q 1403 4053 1403 3853 
Q 1403 3653 1261 3512 
Q 1119 3372 919 3372 
Q 719 3372 578 3512 
Q 438 3653 438 3853 
Q 438 4053 578 4195 
Q 719 4338 919 4338 
z
M 1356 2922 
L 1356 606 
Q 1356 297 1428 211 
Q 1500 125 1709 113 
L 1709 0 
L 131 0 
L 131 113 
Q 325 119 419 225 
Q 481 297 481 606 
L 481 2313 
Q 481 2622 409 2708 
Q 338 2794 131 2806 
L 131 2922 
L 1356 2922 
z
" transform="scale(0.015625)"/>
       <path id="TimesNewRomanPS-BoldMT-74" d="M 1375 3991 
L 1375 2922 
L 2069 2922 
L 2069 2613 
L 1375 2613 
L 1375 809 
Q 1375 556 1398 482 
Q 1422 409 1481 364 
Q 1541 319 1591 319 
Q 1794 319 1975 628 
L 2069 559 
Q 1816 -41 1247 -41 
Q 969 -41 776 114 
Q 584 269 531 459 
Q 500 566 500 1034 
L 500 2613 
L 119 2613 
L 119 2722 
Q 513 3000 789 3306 
Q 1066 3613 1272 3991 
L 1375 3991 
z
" transform="scale(0.015625)"/>
      </defs>
      <use xlink:href="#TimesNewRomanPS-BoldMT-54"/>
      <use xlink:href="#TimesNewRomanPS-BoldMT-45" x="66.699219"/>
      <use xlink:href="#TimesNewRomanPS-BoldMT-53" x="133.398438"/>
      <use xlink:href="#TimesNewRomanPS-BoldMT-20" x="189.013672"/>
      <use xlink:href="#TimesNewRomanPS-BoldMT-50" x="214.013672"/>
      <use xlink:href="#TimesNewRomanPS-BoldMT-72" x="275.097656"/>
      <use xlink:href="#TimesNewRomanPS-BoldMT-6f" x="317.732422"/>
      <use xlink:href="#TimesNewRomanPS-BoldMT-66" x="367.732422"/>
      <use xlink:href="#TimesNewRomanPS-BoldMT-69" x="401.033203"/>
      <use xlink:href="#TimesNewRomanPS-BoldMT-74" x="428.816406"/>
      <use xlink:href="#TimesNewRomanPS-BoldMT-20" x="462.117188"/>
     </g>
     <!--  (million USD/year) -->
     <g style="fill: #262626" transform="translate(46.562737 186.349312) rotate(-90) scale(0.216 -0.216)">
      <defs>
       <path id="TimesNewRomanPS-BoldMT-28" d="M 2056 4334 
L 2056 4191 
Q 1731 3978 1578 3775 
Q 1366 3494 1247 3053 
Q 1097 2506 1097 1525 
Q 1097 600 1233 87 
Q 1369 -425 1603 -741 
Q 1766 -959 2056 -1125 
L 2056 -1281 
Q 1303 -1028 779 -248 
Q 256 531 256 1544 
Q 256 2544 778 3314 
Q 1300 4084 2056 4334 
z
" transform="scale(0.015625)"/>
       <path id="TimesNewRomanPS-BoldMT-6d" d="M 1428 2922 
L 1428 2538 
Q 1669 2800 1873 2904 
Q 2078 3009 2322 3009 
Q 2603 3009 2793 2878 
Q 2984 2747 3088 2478 
Q 3338 2759 3567 2884 
Q 3797 3009 4047 3009 
Q 4350 3009 4529 2870 
Q 4709 2731 4779 2517 
Q 4850 2303 4850 1834 
L 4850 638 
Q 4850 300 4911 219 
Q 4972 138 5166 113 
L 5166 0 
L 3656 0 
L 3656 113 
Q 3834 128 3919 250 
Q 3975 334 3975 638 
L 3975 1894 
Q 3975 2284 3944 2390 
Q 3913 2497 3845 2548 
Q 3778 2600 3688 2600 
Q 3553 2600 3415 2501 
Q 3278 2403 3138 2206 
L 3138 638 
Q 3138 322 3191 241 
Q 3263 125 3466 113 
L 3466 0 
L 1953 0 
L 1953 113 
Q 2075 119 2145 173 
Q 2216 228 2239 304 
Q 2263 381 2263 638 
L 2263 1894 
Q 2263 2291 2231 2391 
Q 2200 2491 2126 2547 
Q 2053 2603 1969 2603 
Q 1844 2603 1741 2538 
Q 1594 2441 1428 2206 
L 1428 638 
Q 1428 328 1489 229 
Q 1550 131 1744 113 
L 1744 0 
L 238 0 
L 238 113 
Q 422 131 500 231 
Q 553 300 553 638 
L 553 2288 
Q 553 2619 492 2700 
Q 431 2781 238 2806 
L 238 2922 
L 1428 2922 
z
" transform="scale(0.015625)"/>
       <path id="TimesNewRomanPS-BoldMT-6c" d="M 1359 4238 
L 1359 606 
Q 1359 297 1431 211 
Q 1503 125 1713 113 
L 1713 0 
L 134 0 
L 134 113 
Q 328 119 422 225 
Q 484 297 484 606 
L 484 3631 
Q 484 3938 412 4023 
Q 341 4109 134 4122 
L 134 4238 
L 1359 4238 
z
" transform="scale(0.015625)"/>
       <path id="TimesNewRomanPS-BoldMT-6e" d="M 1409 2922 
L 1409 2544 
Q 1634 2788 1840 2898 
Q 2047 3009 2284 3009 
Q 2569 3009 2756 2851 
Q 2944 2694 3006 2459 
Q 3056 2281 3056 1775 
L 3056 638 
Q 3056 300 3117 217 
Q 3178 134 3372 113 
L 3372 0 
L 1894 0 
L 1894 113 
Q 2059 134 2131 250 
Q 2181 328 2181 638 
L 2181 1938 
Q 2181 2297 2153 2390 
Q 2125 2484 2058 2536 
Q 1991 2588 1909 2588 
Q 1641 2588 1409 2203 
L 1409 638 
Q 1409 309 1470 221 
Q 1531 134 1697 113 
L 1697 0 
L 219 0 
L 219 113 
Q 403 131 481 231 
Q 534 300 534 638 
L 534 2288 
Q 534 2619 473 2700 
Q 413 2781 219 2806 
L 219 2922 
L 1409 2922 
z
" transform="scale(0.015625)"/>
       <path id="TimesNewRomanPS-BoldMT-55" d="M 150 4238 
L 2338 4238 
L 2338 4122 
L 2228 4122 
Q 1981 4122 1889 4070 
Q 1797 4019 1758 3928 
Q 1719 3838 1719 3475 
L 1719 1400 
Q 1719 831 1805 647 
Q 1891 463 2087 341 
Q 2284 219 2584 219 
Q 2928 219 3170 373 
Q 3413 528 3533 800 
Q 3653 1072 3653 1747 
L 3653 3475 
Q 3653 3759 3593 3881 
Q 3534 4003 3444 4050 
Q 3303 4122 3047 4122 
L 3047 4238 
L 4513 4238 
L 4513 4122 
L 4425 4122 
Q 4247 4122 4128 4050 
Q 4009 3978 3956 3834 
Q 3916 3734 3916 3475 
L 3916 1866 
Q 3916 1119 3817 787 
Q 3719 456 3337 178 
Q 2956 -100 2297 -100 
Q 1747 -100 1447 47 
Q 1038 247 869 559 
Q 700 872 700 1400 
L 700 3475 
Q 700 3841 659 3930 
Q 619 4019 519 4072 
Q 419 4125 150 4122 
L 150 4238 
z
" transform="scale(0.015625)"/>
       <path id="TimesNewRomanPS-BoldMT-44" d="M 84 0 
L 84 116 
L 225 116 
Q 409 116 507 173 
Q 606 231 653 331 
Q 681 397 681 725 
L 681 3513 
Q 681 3838 647 3919 
Q 613 4000 508 4061 
Q 403 4122 225 4122 
L 84 4122 
L 84 4238 
L 1981 4238 
Q 2741 4238 3203 4031 
Q 3769 3778 4061 3265 
Q 4353 2753 4353 2106 
Q 4353 1659 4209 1282 
Q 4066 906 3837 661 
Q 3609 416 3311 267 
Q 3013 119 2581 38 
Q 2391 0 1981 0 
L 84 0 
z
M 1700 3997 
L 1700 691 
Q 1700 428 1725 368 
Q 1750 309 1809 278 
Q 1894 231 2053 231 
Q 2575 231 2850 588 
Q 3225 1069 3225 2081 
Q 3225 2897 2969 3384 
Q 2766 3766 2447 3903 
Q 2222 4000 1700 3997 
z
" transform="scale(0.015625)"/>
       <path id="TimesNewRomanPS-BoldMT-2f" d="M 1797 4334 
L 406 -97 
L 6 -97 
L 1403 4334 
L 1797 4334 
z
" transform="scale(0.015625)"/>
       <path id="TimesNewRomanPS-BoldMT-79" d="M 1556 -119 
L 613 2047 
Q 400 2538 298 2650 
Q 197 2763 53 2806 
L 53 2922 
L 1606 2922 
L 1606 2806 
Q 1453 2800 1390 2747 
Q 1328 2694 1328 2619 
Q 1328 2500 1484 2150 
L 1984 1006 
L 2325 1891 
Q 2509 2363 2509 2547 
Q 2509 2663 2432 2731 
Q 2356 2800 2163 2806 
L 2163 2922 
L 3141 2922 
L 3141 2806 
Q 2997 2791 2906 2695 
Q 2816 2600 2603 2047 
L 1769 -119 
Q 1453 -931 1300 -1119 
Q 1084 -1381 759 -1381 
Q 500 -1381 339 -1232 
Q 178 -1084 178 -875 
Q 178 -694 289 -575 
Q 400 -456 563 -456 
Q 719 -456 814 -556 
Q 909 -656 913 -866 
Q 916 -984 941 -1019 
Q 966 -1053 1013 -1053 
Q 1088 -1053 1172 -963 
Q 1297 -831 1466 -363 
L 1556 -119 
z
" transform="scale(0.015625)"/>
       <path id="TimesNewRomanPS-BoldMT-65" d="M 2691 1566 
L 1088 1566 
Q 1116 984 1397 647 
Q 1613 388 1916 388 
Q 2103 388 2256 492 
Q 2409 597 2584 869 
L 2691 800 
Q 2453 316 2165 114 
Q 1878 -88 1500 -88 
Q 850 -88 516 413 
Q 247 816 247 1413 
Q 247 2144 642 2576 
Q 1038 3009 1569 3009 
Q 2013 3009 2339 2645 
Q 2666 2281 2691 1566 
z
M 1922 1775 
Q 1922 2278 1867 2465 
Q 1813 2653 1697 2750 
Q 1631 2806 1522 2806 
Q 1359 2806 1256 2647 
Q 1072 2369 1072 1884 
L 1072 1775 
L 1922 1775 
z
" transform="scale(0.015625)"/>
       <path id="TimesNewRomanPS-BoldMT-61" d="M 1828 431 
Q 1294 -41 869 -41 
Q 619 -41 453 123 
Q 288 288 288 534 
Q 288 869 575 1136 
Q 863 1403 1828 1847 
L 1828 2141 
Q 1828 2472 1792 2558 
Q 1756 2644 1656 2708 
Q 1556 2772 1431 2772 
Q 1228 2772 1097 2681 
Q 1016 2625 1016 2550 
Q 1016 2484 1103 2388 
Q 1222 2253 1222 2128 
Q 1222 1975 1108 1867 
Q 994 1759 809 1759 
Q 613 1759 480 1878 
Q 347 1997 347 2156 
Q 347 2381 525 2586 
Q 703 2791 1022 2900 
Q 1341 3009 1684 3009 
Q 2100 3009 2342 2832 
Q 2584 2656 2656 2450 
Q 2700 2319 2700 1847 
L 2700 713 
Q 2700 513 2715 461 
Q 2731 409 2762 384 
Q 2794 359 2834 359 
Q 2916 359 3000 475 
L 3094 400 
Q 2938 169 2770 64 
Q 2603 -41 2391 -41 
Q 2141 -41 2000 76 
Q 1859 194 1828 431 
z
M 1828 659 
L 1828 1638 
Q 1450 1416 1266 1163 
Q 1144 994 1144 822 
Q 1144 678 1247 569 
Q 1325 484 1466 484 
Q 1622 484 1828 659 
z
" transform="scale(0.015625)"/>
       <path id="TimesNewRomanPS-BoldMT-29" d="M 78 -1281 
L 78 -1138 
Q 403 -922 556 -719 
Q 766 -438 888 0 
Q 1038 550 1038 1531 
Q 1038 2456 902 2967 
Q 766 3478 531 3794 
Q 369 4013 78 4178 
L 78 4334 
Q 831 4081 1354 3301 
Q 1878 2522 1878 1509 
Q 1878 513 1354 -257 
Q 831 -1028 78 -1281 
z
" transform="scale(0.015625)"/>
      </defs>
      <use xlink:href="#TimesNewRomanPS-BoldMT-20"/>
      <use xlink:href="#TimesNewRomanPS-BoldMT-28" x="25"/>
      <use xlink:href="#TimesNewRomanPS-BoldMT-6d" x="58.300781"/>
      <use xlink:href="#TimesNewRomanPS-BoldMT-69" x="141.601562"/>
      <use xlink:href="#TimesNewRomanPS-BoldMT-6c" x="169.384766"/>
      <use xlink:href="#TimesNewRomanPS-BoldMT-6c" x="197.167969"/>
      <use xlink:href="#TimesNewRomanPS-BoldMT-69" x="224.951172"/>
      <use xlink:href="#TimesNewRomanPS-BoldMT-6f" x="252.734375"/>
      <use xlink:href="#TimesNewRomanPS-BoldMT-6e" x="302.734375"/>
      <use xlink:href="#TimesNewRomanPS-BoldMT-20" x="358.349609"/>
      <use xlink:href="#TimesNewRomanPS-BoldMT-55" x="383.349609"/>
      <use xlink:href="#TimesNewRomanPS-BoldMT-53" x="455.566406"/>
      <use xlink:href="#TimesNewRomanPS-BoldMT-44" x="511.181641"/>
      <use xlink:href="#TimesNewRomanPS-BoldMT-2f" x="583.398438"/>
      <use xlink:href="#TimesNewRomanPS-BoldMT-79" x="611.181641"/>
      <use xlink:href="#TimesNewRomanPS-BoldMT-65" x="661.181641"/>
      <use xlink:href="#TimesNewRomanPS-BoldMT-61" x="705.566406"/>
      <use xlink:href="#TimesNewRomanPS-BoldMT-72" x="755.566406"/>
      <use xlink:href="#TimesNewRomanPS-BoldMT-29" x="799.951172"/>
     </g>
    </g>
   </g>
   <g id="PathCollection_1">
    <defs>
     <path id="m7b01805b96" d="M 0 5 
C 1.326016 5 2.597899 4.473168 3.535534 3.535534 
C 4.473168 2.597899 5 1.326016 5 0 
C 5 -1.326016 4.473168 -2.597899 3.535534 -3.535534 
C 2.597899 -4.473168 1.326016 -5 0 -5 
C -1.326016 -5 -2.597899 -4.473168 -3.535534 -3.535534 
C -4.473168 -2.597899 -5 -1.326016 -5 0 
C -5 1.326016 -4.473168 2.597899 -3.535534 3.535534 
C -2.597899 4.473168 -1.326016 5 0 5 
z
" style="stroke: #8c564b; stroke-opacity: 0.7"/>
    </defs>
    <g clip-path="url(#p9137ea9633)">
     <use xlink:href="#m7b01805b96" x="121.344436" y="171.96" style="fill: #8c564b; fill-opacity: 0.7; stroke: #8c564b; stroke-opacity: 0.7"/>
     <use xlink:href="#m7b01805b96" x="248.162618" y="84.024145" style="fill: #8c564b; fill-opacity: 0.7; stroke: #8c564b; stroke-opacity: 0.7"/>
     <use xlink:href="#m7b01805b96" x="374.9808" y="75.287206" style="fill: #8c564b; fill-opacity: 0.7; stroke: #8c564b; stroke-opacity: 0.7"/>
     <use xlink:href="#m7b01805b96" x="501.798982" y="31.941411" style="fill: #8c564b; fill-opacity: 0.7; stroke: #8c564b; stroke-opacity: 0.7"/>
     <use xlink:href="#m7b01805b96" x="628.617164" y="20.76" style="fill: #8c564b; fill-opacity: 0.7; stroke: #8c564b; stroke-opacity: 0.7"/>
    </g>
   </g>
   <g id="line2d_15">
    <path d="M 121.344436 171.96 
L 248.162618 84.024145 
L 374.9808 75.287206 
L 501.798982 31.941411 
L 628.617164 20.76 
" clip-path="url(#p9137ea9633)" style="fill: none; stroke: #8c564b; stroke-opacity: 0.7; stroke-width: 1.5; stroke-linecap: round"/>
   </g>
   <g id="line2d_16">
    <path d="M 121.344436 179.52 
L 121.344436 13.2 
" clip-path="url(#p9137ea9633)" style="fill: none; stroke-dasharray: 5.55,2.4; stroke-dashoffset: 0; stroke: #9467bd; stroke-width: 1.5"/>
   </g>
   <g id="patch_3">
    <path d="M 95.9808 179.52 
L 95.9808 13.2 
" style="fill: none; stroke: #262626; stroke-width: 1.25; stroke-linejoin: miter; stroke-linecap: square"/>
   </g>
   <g id="patch_4">
    <path d="M 653.9808 179.52 
L 653.9808 13.2 
" style="fill: none; stroke: #262626; stroke-width: 1.25; stroke-linejoin: miter; stroke-linecap: square"/>
   </g>
   <g id="patch_5">
    <path d="M 95.9808 179.52 
L 653.9808 179.52 
" style="fill: none; stroke: #262626; stroke-width: 1.25; stroke-linejoin: miter; stroke-linecap: square"/>
   </g>
   <g id="patch_6">
    <path d="M 95.9808 13.2 
L 653.9808 13.2 
" style="fill: none; stroke: #262626; stroke-width: 1.25; stroke-linejoin: miter; stroke-linecap: square"/>
   </g>
  </g>
  <g id="axes_2">
   <g id="patch_7">
    <path d="M 95.9808 345.84 
L 653.9808 345.84 
L 653.9808 179.52 
L 95.9808 179.52 
z
" style="fill: #ffffff"/>
   </g>
   <g id="matplotlib.axis_3">
    <g id="xtick_10">
     <g id="line2d_17">
      <g>
       <use xlink:href="#m700e34dc87" x="102.321709" y="179.52" style="fill: #262626; stroke: #262626; stroke-width: 1.25"/>
      </g>
     </g>
     <g id="text_7">
      <!-- 550 -->
      <g style="fill: #262626" transform="translate(88.821709 365.759375) scale(0.18 -0.18)">
       <defs>
        <path id="TimesNewRomanPS-BoldMT-30" d="M 2966 2119 
Q 2966 1484 2788 934 
Q 2681 597 2501 381 
Q 2322 166 2094 39 
Q 1866 -88 1597 -88 
Q 1291 -88 1044 68 
Q 797 225 606 516 
Q 469 728 366 1081 
Q 231 1559 231 2069 
Q 231 2759 425 3338 
Q 584 3816 909 4070 
Q 1234 4325 1597 4325 
Q 1966 4325 2286 4073 
Q 2606 3822 2756 3397 
Q 2966 2813 2966 2119 
z
M 2003 2125 
Q 2003 3238 1991 3422 
Q 1959 3856 1841 4009 
Q 1763 4109 1588 4109 
Q 1453 4109 1375 4034 
Q 1259 3925 1218 3648 
Q 1178 3372 1178 1719 
Q 1178 819 1241 513 
Q 1288 291 1375 216 
Q 1463 141 1606 141 
Q 1763 141 1841 241 
Q 1972 416 1991 781 
L 2003 2125 
z
" transform="scale(0.015625)"/>
       </defs>
       <use xlink:href="#TimesNewRomanPS-BoldMT-35"/>
       <use xlink:href="#TimesNewRomanPS-BoldMT-35" x="50"/>
       <use xlink:href="#TimesNewRomanPS-BoldMT-30" x="100"/>
      </g>
     </g>
    </g>
    <g id="xtick_11">
     <g id="line2d_18">
      <g>
       <use xlink:href="#m700e34dc87" x="165.7308" y="179.52" style="fill: #262626; stroke: #262626; stroke-width: 1.25"/>
      </g>
     </g>
     <g id="text_8">
      <!-- 600 -->
      <g style="fill: #262626" transform="translate(152.2308 365.759375) scale(0.18 -0.18)">
       <use xlink:href="#TimesNewRomanPS-BoldMT-36"/>
       <use xlink:href="#TimesNewRomanPS-BoldMT-30" x="50"/>
       <use xlink:href="#TimesNewRomanPS-BoldMT-30" x="100"/>
      </g>
     </g>
    </g>
    <g id="xtick_12">
     <g id="line2d_19">
      <g>
       <use xlink:href="#m700e34dc87" x="229.139891" y="179.52" style="fill: #262626; stroke: #262626; stroke-width: 1.25"/>
      </g>
     </g>
     <g id="text_9">
      <!-- 650 -->
      <g style="fill: #262626" transform="translate(215.639891 365.759375) scale(0.18 -0.18)">
       <use xlink:href="#TimesNewRomanPS-BoldMT-36"/>
       <use xlink:href="#TimesNewRomanPS-BoldMT-35" x="50"/>
       <use xlink:href="#TimesNewRomanPS-BoldMT-30" x="100"/>
      </g>
     </g>
    </g>
    <g id="xtick_13">
     <g id="line2d_20">
      <g>
       <use xlink:href="#m700e34dc87" x="292.548982" y="179.52" style="fill: #262626; stroke: #262626; stroke-width: 1.25"/>
      </g>
     </g>
     <g id="text_10">
      <!-- 700 -->
      <g style="fill: #262626" transform="translate(279.048982 365.759375) scale(0.18 -0.18)">
       <use xlink:href="#TimesNewRomanPS-BoldMT-37"/>
       <use xlink:href="#TimesNewRomanPS-BoldMT-30" x="50"/>
       <use xlink:href="#TimesNewRomanPS-BoldMT-30" x="100"/>
      </g>
     </g>
    </g>
    <g id="xtick_14">
     <g id="line2d_21">
      <g>
       <use xlink:href="#m700e34dc87" x="355.958073" y="179.52" style="fill: #262626; stroke: #262626; stroke-width: 1.25"/>
      </g>
     </g>
     <g id="text_11">
      <!-- 750 -->
      <g style="fill: #262626" transform="translate(342.458073 365.759375) scale(0.18 -0.18)">
       <use xlink:href="#TimesNewRomanPS-BoldMT-37"/>
       <use xlink:href="#TimesNewRomanPS-BoldMT-35" x="50"/>
       <use xlink:href="#TimesNewRomanPS-BoldMT-30" x="100"/>
      </g>
     </g>
    </g>
    <g id="xtick_15">
     <g id="line2d_22">
      <g>
       <use xlink:href="#m700e34dc87" x="419.367164" y="179.52" style="fill: #262626; stroke: #262626; stroke-width: 1.25"/>
      </g>
     </g>
     <g id="text_12">
      <!-- 800 -->
      <g style="fill: #262626" transform="translate(405.867164 365.759375) scale(0.18 -0.18)">
       <use xlink:href="#TimesNewRomanPS-BoldMT-38"/>
       <use xlink:href="#TimesNewRomanPS-BoldMT-30" x="50"/>
       <use xlink:href="#TimesNewRomanPS-BoldMT-30" x="100"/>
      </g>
     </g>
    </g>
    <g id="xtick_16">
     <g id="line2d_23">
      <g>
       <use xlink:href="#m700e34dc87" x="482.776255" y="179.52" style="fill: #262626; stroke: #262626; stroke-width: 1.25"/>
      </g>
     </g>
     <g id="text_13">
      <!-- 850 -->
      <g style="fill: #262626" transform="translate(469.276255 365.759375) scale(0.18 -0.18)">
       <use xlink:href="#TimesNewRomanPS-BoldMT-38"/>
       <use xlink:href="#TimesNewRomanPS-BoldMT-35" x="50"/>
       <use xlink:href="#TimesNewRomanPS-BoldMT-30" x="100"/>
      </g>
     </g>
    </g>
    <g id="xtick_17">
     <g id="line2d_24">
      <g>
       <use xlink:href="#m700e34dc87" x="546.185345" y="179.52" style="fill: #262626; stroke: #262626; stroke-width: 1.25"/>
      </g>
     </g>
     <g id="text_14">
      <!-- 900 -->
      <g style="fill: #262626" transform="translate(532.685345 365.759375) scale(0.18 -0.18)">
       <defs>
        <path id="TimesNewRomanPS-BoldMT-39" d="M 197 -88 
L 197 0 
Q 716 119 1077 350 
Q 1438 581 1648 922 
Q 1859 1263 1944 1706 
Q 1750 1606 1614 1567 
Q 1478 1528 1328 1528 
Q 847 1528 526 1875 
Q 206 2222 206 2825 
Q 206 3244 379 3592 
Q 553 3941 875 4133 
Q 1197 4325 1544 4325 
Q 1916 4325 2247 4112 
Q 2578 3900 2775 3497 
Q 2972 3094 2972 2578 
Q 2972 1909 2651 1296 
Q 2331 684 1697 314 
Q 1063 -56 197 -88 
z
M 1991 1969 
Q 2022 2319 2022 2584 
Q 2022 3153 1891 3644 
Q 1816 3916 1669 4044 
Q 1591 4113 1466 4113 
Q 1309 4113 1222 3978 
Q 1100 3794 1100 3275 
Q 1100 2409 1306 2081 
Q 1441 1869 1669 1869 
Q 1791 1869 1991 1969 
z
" transform="scale(0.015625)"/>
       </defs>
       <use xlink:href="#TimesNewRomanPS-BoldMT-39"/>
       <use xlink:href="#TimesNewRomanPS-BoldMT-30" x="50"/>
       <use xlink:href="#TimesNewRomanPS-BoldMT-30" x="100"/>
      </g>
     </g>
    </g>
    <g id="xtick_18">
     <g id="line2d_25">
      <g>
       <use xlink:href="#m700e34dc87" x="609.594436" y="179.52" style="fill: #262626; stroke: #262626; stroke-width: 1.25"/>
      </g>
     </g>
     <g id="text_15">
      <!-- 950 -->
      <g style="fill: #262626" transform="translate(596.094436 365.759375) scale(0.18 -0.18)">
       <use xlink:href="#TimesNewRomanPS-BoldMT-39"/>
       <use xlink:href="#TimesNewRomanPS-BoldMT-35" x="50"/>
       <use xlink:href="#TimesNewRomanPS-BoldMT-30" x="100"/>
      </g>
     </g>
    </g>
    <g id="text_16">
     <!-- TES Peak Salt Temperature (deg C)  -->
     <g style="fill: #262626" transform="translate(206.56155 388.236937) scale(0.216 -0.216)">
      <defs>
       <path id="TimesNewRomanPS-BoldMT-6b" d="M 1403 4238 
L 1403 1450 
L 2081 2116 
Q 2291 2319 2342 2409 
Q 2394 2500 2394 2584 
Q 2394 2669 2325 2725 
Q 2256 2781 2056 2806 
L 2056 2922 
L 3366 2922 
L 3366 2806 
Q 3178 2797 3037 2717 
Q 2897 2638 2488 2238 
L 2169 1925 
L 2856 919 
Q 3272 306 3350 231 
Q 3456 125 3619 113 
L 3619 0 
L 2109 0 
L 2109 113 
Q 2209 113 2254 150 
Q 2300 188 2300 231 
Q 2300 303 2169 497 
L 1591 1344 
L 1403 1159 
L 1403 634 
Q 1403 300 1465 217 
Q 1528 134 1722 113 
L 1722 0 
L 213 0 
L 213 113 
Q 397 131 475 231 
Q 528 300 528 634 
L 528 3603 
Q 528 3934 467 4015 
Q 406 4097 213 4122 
L 213 4238 
L 1403 4238 
z
" transform="scale(0.015625)"/>
       <path id="TimesNewRomanPS-BoldMT-70" d="M 1347 297 
L 1347 -791 
Q 1347 -1016 1383 -1097 
Q 1419 -1178 1494 -1215 
Q 1569 -1253 1788 -1253 
L 1788 -1369 
L 122 -1369 
L 122 -1253 
Q 316 -1247 409 -1144 
Q 472 -1072 472 -772 
L 472 2313 
Q 472 2622 400 2708 
Q 328 2794 122 2806 
L 122 2922 
L 1347 2922 
L 1347 2538 
Q 1500 2763 1659 2863 
Q 1888 3009 2156 3009 
Q 2478 3009 2742 2806 
Q 3006 2603 3143 2245 
Q 3281 1888 3281 1475 
Q 3281 1031 3139 664 
Q 2997 297 2726 104 
Q 2456 -88 2125 -88 
Q 1884 -88 1675 19 
Q 1519 100 1347 297 
z
M 1347 613 
Q 1616 231 1922 231 
Q 2091 231 2200 409 
Q 2363 672 2363 1409 
Q 2363 2166 2184 2444 
Q 2066 2628 1866 2628 
Q 1550 2628 1347 2172 
L 1347 613 
z
" transform="scale(0.015625)"/>
       <path id="TimesNewRomanPS-BoldMT-75" d="M 3038 2922 
L 3038 634 
Q 3038 300 3100 217 
Q 3163 134 3353 113 
L 3353 0 
L 2163 0 
L 2163 391 
Q 1953 141 1743 26 
Q 1534 -88 1275 -88 
Q 1028 -88 836 64 
Q 644 216 578 419 
Q 513 622 513 1128 
L 513 2288 
Q 513 2619 452 2700 
Q 391 2781 197 2806 
L 197 2922 
L 1388 2922 
L 1388 925 
Q 1388 613 1417 522 
Q 1447 431 1511 384 
Q 1575 338 1659 338 
Q 1772 338 1863 397 
Q 1988 478 2163 725 
L 2163 2288 
Q 2163 2619 2102 2700 
Q 2041 2781 1847 2806 
L 1847 2922 
L 3038 2922 
z
" transform="scale(0.015625)"/>
       <path id="TimesNewRomanPS-BoldMT-64" d="M 3056 4238 
L 3056 875 
Q 3056 534 3075 472 
Q 3100 369 3170 319 
Q 3241 269 3416 256 
L 3416 153 
L 2181 -88 
L 2181 375 
Q 1959 106 1786 9 
Q 1613 -88 1394 -88 
Q 834 -88 509 413 
Q 247 819 247 1409 
Q 247 1881 409 2254 
Q 572 2628 855 2818 
Q 1138 3009 1463 3009 
Q 1672 3009 1834 2928 
Q 1997 2847 2181 2644 
L 2181 3525 
Q 2181 3859 2153 3928 
Q 2116 4019 2041 4062 
Q 1966 4106 1759 4106 
L 1759 4238 
L 3056 4238 
z
M 2181 2256 
Q 1950 2700 1616 2700 
Q 1500 2700 1425 2638 
Q 1309 2541 1236 2297 
Q 1163 2053 1163 1550 
Q 1163 997 1244 731 
Q 1325 466 1466 347 
Q 1538 288 1663 288 
Q 1938 288 2181 719 
L 2181 2256 
z
" transform="scale(0.015625)"/>
       <path id="TimesNewRomanPS-BoldMT-67" d="M 2091 2888 
L 3075 2888 
L 3075 2544 
L 2516 2544 
Q 2669 2391 2728 2266 
Q 2803 2097 2803 1913 
Q 2803 1600 2629 1370 
Q 2456 1141 2157 1011 
Q 1859 881 1628 881 
Q 1609 881 1253 897 
Q 1113 897 1017 805 
Q 922 713 922 584 
Q 922 472 1008 400 
Q 1094 328 1288 328 
L 1828 334 
Q 2484 334 2731 191 
Q 3084 -9 3084 -425 
Q 3084 -691 2921 -908 
Q 2759 -1125 2494 -1228 
Q 2091 -1381 1566 -1381 
Q 1172 -1381 847 -1304 
Q 522 -1228 381 -1092 
Q 241 -956 241 -806 
Q 241 -663 348 -548 
Q 456 -434 750 -356 
Q 344 -156 344 200 
Q 344 416 509 619 
Q 675 822 1034 972 
Q 616 1125 428 1375 
Q 241 1625 241 1953 
Q 241 2381 591 2695 
Q 941 3009 1491 3009 
Q 1781 3009 2091 2888 
z
M 1550 2816 
Q 1369 2816 1244 2633 
Q 1119 2450 1119 1875 
Q 1119 1409 1242 1236 
Q 1366 1063 1534 1063 
Q 1722 1063 1847 1234 
Q 1972 1406 1972 1903 
Q 1972 2463 1831 2666 
Q 1731 2816 1550 2816 
z
M 1366 -431 
Q 1047 -431 944 -484 
Q 766 -581 766 -747 
Q 766 -906 950 -1036 
Q 1134 -1166 1644 -1166 
Q 2078 -1166 2326 -1050 
Q 2575 -934 2575 -725 
Q 2575 -647 2528 -594 
Q 2444 -500 2273 -465 
Q 2103 -431 1366 -431 
z
" transform="scale(0.015625)"/>
       <path id="TimesNewRomanPS-BoldMT-43" d="M 4272 4334 
L 4272 2866 
L 4150 2866 
Q 4013 3441 3638 3747 
Q 3263 4053 2788 4053 
Q 2391 4053 2059 3825 
Q 1728 3597 1575 3228 
Q 1378 2756 1378 2178 
Q 1378 1609 1522 1142 
Q 1666 675 1972 436 
Q 2278 197 2766 197 
Q 3166 197 3498 372 
Q 3831 547 4200 975 
L 4200 609 
Q 3844 238 3458 70 
Q 3072 -97 2556 -97 
Q 1878 -97 1351 175 
Q 825 447 539 956 
Q 253 1466 253 2041 
Q 253 2647 570 3190 
Q 888 3734 1427 4034 
Q 1966 4334 2572 4334 
Q 3019 4334 3516 4141 
Q 3803 4028 3881 4028 
Q 3981 4028 4054 4101 
Q 4128 4175 4150 4334 
L 4272 4334 
z
" transform="scale(0.015625)"/>
      </defs>
      <use xlink:href="#TimesNewRomanPS-BoldMT-54"/>
      <use xlink:href="#TimesNewRomanPS-BoldMT-45" x="66.699219"/>
      <use xlink:href="#TimesNewRomanPS-BoldMT-53" x="133.398438"/>
      <use xlink:href="#TimesNewRomanPS-BoldMT-20" x="189.013672"/>
      <use xlink:href="#TimesNewRomanPS-BoldMT-50" x="214.013672"/>
      <use xlink:href="#TimesNewRomanPS-BoldMT-65" x="275.097656"/>
      <use xlink:href="#TimesNewRomanPS-BoldMT-61" x="319.482422"/>
      <use xlink:href="#TimesNewRomanPS-BoldMT-6b" x="369.482422"/>
      <use xlink:href="#TimesNewRomanPS-BoldMT-20" x="425.097656"/>
      <use xlink:href="#TimesNewRomanPS-BoldMT-53" x="450.097656"/>
      <use xlink:href="#TimesNewRomanPS-BoldMT-61" x="505.712891"/>
      <use xlink:href="#TimesNewRomanPS-BoldMT-6c" x="555.712891"/>
      <use xlink:href="#TimesNewRomanPS-BoldMT-74" x="583.496094"/>
      <use xlink:href="#TimesNewRomanPS-BoldMT-20" x="616.796875"/>
      <use xlink:href="#TimesNewRomanPS-BoldMT-54" x="640.046875"/>
      <use xlink:href="#TimesNewRomanPS-BoldMT-65" x="697.621094"/>
      <use xlink:href="#TimesNewRomanPS-BoldMT-6d" x="742.005859"/>
      <use xlink:href="#TimesNewRomanPS-BoldMT-70" x="825.306641"/>
      <use xlink:href="#TimesNewRomanPS-BoldMT-65" x="880.921875"/>
      <use xlink:href="#TimesNewRomanPS-BoldMT-72" x="925.306641"/>
      <use xlink:href="#TimesNewRomanPS-BoldMT-61" x="969.691406"/>
      <use xlink:href="#TimesNewRomanPS-BoldMT-74" x="1019.691406"/>
      <use xlink:href="#TimesNewRomanPS-BoldMT-75" x="1052.992188"/>
      <use xlink:href="#TimesNewRomanPS-BoldMT-72" x="1108.607422"/>
      <use xlink:href="#TimesNewRomanPS-BoldMT-65" x="1151.242188"/>
      <use xlink:href="#TimesNewRomanPS-BoldMT-20" x="1195.626953"/>
      <use xlink:href="#TimesNewRomanPS-BoldMT-28" x="1220.626953"/>
      <use xlink:href="#TimesNewRomanPS-BoldMT-64" x="1253.927734"/>
      <use xlink:href="#TimesNewRomanPS-BoldMT-65" x="1309.542969"/>
      <use xlink:href="#TimesNewRomanPS-BoldMT-67" x="1353.927734"/>
      <use xlink:href="#TimesNewRomanPS-BoldMT-20" x="1403.927734"/>
      <use xlink:href="#TimesNewRomanPS-BoldMT-43" x="1428.927734"/>
      <use xlink:href="#TimesNewRomanPS-BoldMT-29" x="1501.144531"/>
      <use xlink:href="#TimesNewRomanPS-BoldMT-20" x="1534.445312"/>
     </g>
     <!--  -->
     <g style="fill: #262626" transform="translate(374.9808 410.061712) scale(0.216 -0.216)"/>
    </g>
   </g>
   <g id="matplotlib.axis_4">
    <g id="ytick_6">
     <g id="line2d_26">
      <g>
       <use xlink:href="#m5878f8794d" x="653.9808" y="345.84" style="fill: #262626; stroke: #262626; stroke-width: 1.25"/>
      </g>
     </g>
     <g id="text_17">
      <!-- 0 -->
      <g style="fill: #262626" transform="translate(78.9808 351.799688) scale(0.18 -0.18)">
       <use xlink:href="#TimesNewRomanPS-BoldMT-30"/>
      </g>
     </g>
    </g>
    <g id="ytick_7">
     <g id="line2d_27">
      <g>
       <use xlink:href="#m5878f8794d" x="653.9808" y="308.898746" style="fill: #262626; stroke: #262626; stroke-width: 1.25"/>
      </g>
     </g>
     <g id="text_18">
      <!-- 1000 -->
      <g style="fill: #262626" transform="translate(51.9808 314.858433) scale(0.18 -0.18)">
       <defs>
        <path id="TimesNewRomanPS-BoldMT-31" d="M 2084 4325 
L 2084 859 
Q 2084 469 2118 361 
Q 2153 253 2262 184 
Q 2372 116 2613 116 
L 2709 116 
L 2709 0 
L 478 0 
L 478 116 
L 591 116 
Q 863 116 978 178 
Q 1094 241 1134 350 
Q 1175 459 1175 859 
L 1175 3056 
Q 1175 3350 1147 3423 
Q 1119 3497 1042 3548 
Q 966 3600 866 3600 
Q 706 3600 478 3500 
L 422 3613 
L 1981 4325 
L 2084 4325 
z
" transform="scale(0.015625)"/>
       </defs>
       <use xlink:href="#TimesNewRomanPS-BoldMT-31"/>
       <use xlink:href="#TimesNewRomanPS-BoldMT-30" x="50"/>
       <use xlink:href="#TimesNewRomanPS-BoldMT-30" x="100"/>
       <use xlink:href="#TimesNewRomanPS-BoldMT-30" x="150"/>
      </g>
     </g>
    </g>
    <g id="ytick_8">
     <g id="line2d_28">
      <g>
       <use xlink:href="#m5878f8794d" x="653.9808" y="271.957491" style="fill: #262626; stroke: #262626; stroke-width: 1.25"/>
      </g>
     </g>
     <g id="text_19">
      <!-- 2000 -->
      <g style="fill: #262626" transform="translate(51.9808 277.917179) scale(0.18 -0.18)">
       <defs>
        <path id="TimesNewRomanPS-BoldMT-32" d="M 2650 0 
L 156 0 
L 156 69 
Q 1303 1434 1548 1906 
Q 1794 2378 1794 2828 
Q 1794 3156 1591 3373 
Q 1388 3591 1094 3591 
Q 613 3591 347 3109 
L 231 3150 
Q 400 3750 744 4037 
Q 1088 4325 1538 4325 
Q 1859 4325 2125 4175 
Q 2391 4025 2541 3764 
Q 2691 3503 2691 3275 
Q 2691 2859 2459 2431 
Q 2144 1853 1081 819 
L 1997 819 
Q 2334 819 2436 847 
Q 2538 875 2603 942 
Q 2669 1009 2775 1225 
L 2888 1225 
L 2650 0 
z
" transform="scale(0.015625)"/>
       </defs>
       <use xlink:href="#TimesNewRomanPS-BoldMT-32"/>
       <use xlink:href="#TimesNewRomanPS-BoldMT-30" x="50"/>
       <use xlink:href="#TimesNewRomanPS-BoldMT-30" x="100"/>
       <use xlink:href="#TimesNewRomanPS-BoldMT-30" x="150"/>
      </g>
     </g>
    </g>
    <g id="ytick_9">
     <g id="line2d_29">
      <g>
       <use xlink:href="#m5878f8794d" x="653.9808" y="235.016237" style="fill: #262626; stroke: #262626; stroke-width: 1.25"/>
      </g>
     </g>
     <g id="text_20">
      <!-- 3000 -->
      <g style="fill: #262626" transform="translate(51.9808 240.975924) scale(0.18 -0.18)">
       <defs>
        <path id="TimesNewRomanPS-BoldMT-33" d="M 947 2125 
L 947 2234 
Q 1303 2338 1440 2427 
Q 1578 2516 1678 2698 
Q 1778 2881 1778 3069 
Q 1778 3328 1589 3514 
Q 1400 3700 1119 3700 
Q 681 3700 375 3238 
L 259 3278 
Q 484 3800 836 4062 
Q 1188 4325 1619 4325 
Q 2059 4325 2345 4056 
Q 2631 3788 2631 3428 
Q 2631 3194 2498 2976 
Q 2366 2759 2081 2594 
Q 2447 2416 2639 2155 
Q 2831 1894 2831 1500 
Q 2831 838 2351 373 
Q 1872 -91 1066 -91 
Q 528 -91 281 88 
Q 103 213 103 409 
Q 103 553 206 654 
Q 309 756 444 756 
Q 547 756 638 713 
Q 688 688 992 439 
Q 1297 191 1563 191 
Q 1794 191 1959 373 
Q 2125 556 2125 838 
Q 2125 1266 1825 1627 
Q 1525 1988 947 2125 
z
" transform="scale(0.015625)"/>
       </defs>
       <use xlink:href="#TimesNewRomanPS-BoldMT-33"/>
       <use xlink:href="#TimesNewRomanPS-BoldMT-30" x="50"/>
       <use xlink:href="#TimesNewRomanPS-BoldMT-30" x="100"/>
       <use xlink:href="#TimesNewRomanPS-BoldMT-30" x="150"/>
      </g>
     </g>
    </g>
    <g id="ytick_10">
     <g id="line2d_30">
      <g>
       <use xlink:href="#m5878f8794d" x="653.9808" y="198.074982" style="fill: #262626; stroke: #262626; stroke-width: 1.25"/>
      </g>
     </g>
     <g id="text_21">
      <!-- 4000 -->
      <g style="fill: #262626" transform="translate(51.9808 204.03467) scale(0.18 -0.18)">
       <use xlink:href="#TimesNewRomanPS-BoldMT-34"/>
       <use xlink:href="#TimesNewRomanPS-BoldMT-30" x="50"/>
       <use xlink:href="#TimesNewRomanPS-BoldMT-30" x="100"/>
       <use xlink:href="#TimesNewRomanPS-BoldMT-30" x="150"/>
      </g>
     </g>
    </g>
    <g id="text_22">
     <!-- Heat Exchanger  -->
     <g style="fill: #262626" transform="translate(21.50325 339.87975) rotate(-90) scale(0.216 -0.216)">
      <defs>
       <path id="TimesNewRomanPS-BoldMT-48" d="M 1750 2038 
L 1750 725 
Q 1750 400 1786 319 
Q 1822 238 1926 177 
Q 2031 116 2209 116 
L 2350 116 
L 2350 0 
L 134 0 
L 134 116 
L 275 116 
Q 459 116 572 181 
Q 653 225 697 331 
Q 731 406 731 725 
L 731 3513 
Q 731 3838 697 3919 
Q 663 4000 558 4061 
Q 453 4122 275 4122 
L 134 4122 
L 134 4238 
L 2350 4238 
L 2350 4122 
L 2209 4122 
Q 2025 4122 1913 4056 
Q 1831 4013 1784 3906 
Q 1750 3831 1750 3513 
L 1750 2313 
L 3247 2313 
L 3247 3513 
Q 3247 3838 3212 3919 
Q 3178 4000 3072 4061 
Q 2966 4122 2788 4122 
L 2650 4122 
L 2650 4238 
L 4863 4238 
L 4863 4122 
L 4725 4122 
Q 4538 4122 4428 4056 
Q 4347 4013 4300 3906 
Q 4266 3831 4266 3513 
L 4266 725 
Q 4266 400 4300 319 
Q 4334 238 4440 177 
Q 4547 116 4725 116 
L 4863 116 
L 4863 0 
L 2650 0 
L 2650 116 
L 2788 116 
Q 2975 116 3084 181 
Q 3166 225 3213 331 
Q 3247 406 3247 725 
L 3247 2038 
L 1750 2038 
z
" transform="scale(0.015625)"/>
       <path id="TimesNewRomanPS-BoldMT-78" d="M 1944 1791 
L 2450 828 
Q 2713 325 2866 191 
Q 2950 119 3097 113 
L 3097 0 
L 1469 0 
L 1469 113 
Q 1659 128 1704 162 
Q 1750 197 1750 256 
Q 1750 344 1650 531 
L 1397 1006 
L 1181 691 
Q 1034 475 1016 434 
Q 991 375 991 328 
Q 991 256 1020 207 
Q 1050 159 1101 136 
Q 1153 113 1291 113 
L 1291 0 
L 147 0 
L 147 113 
Q 359 113 536 230 
Q 713 347 1050 844 
L 1291 1200 
L 788 2131 
Q 541 2588 419 2691 
Q 297 2794 147 2806 
L 147 2922 
L 1766 2922 
L 1766 2806 
L 1681 2803 
L 1519 2747 
Q 1494 2725 1494 2675 
Q 1494 2628 1509 2578 
Q 1519 2556 1597 2409 
L 1825 1984 
L 1944 2153 
Q 2194 2497 2194 2634 
Q 2194 2700 2139 2745 
Q 2084 2791 1944 2806 
L 1944 2922 
L 2978 2922 
L 2978 2806 
Q 2788 2800 2622 2689 
Q 2456 2578 2250 2259 
L 1944 1791 
z
" transform="scale(0.015625)"/>
       <path id="TimesNewRomanPS-BoldMT-63" d="M 2600 753 
L 2697 678 
Q 2491 291 2183 101 
Q 1875 -88 1528 -88 
Q 944 -88 594 353 
Q 244 794 244 1413 
Q 244 2009 563 2463 
Q 947 3009 1622 3009 
Q 2075 3009 2342 2781 
Q 2609 2553 2609 2272 
Q 2609 2094 2501 1987 
Q 2394 1881 2219 1881 
Q 2034 1881 1914 2003 
Q 1794 2125 1766 2438 
Q 1747 2634 1675 2713 
Q 1603 2791 1506 2791 
Q 1356 2791 1250 2631 
Q 1088 2391 1088 1894 
Q 1088 1481 1219 1104 
Q 1350 728 1578 544 
Q 1750 409 1984 409 
Q 2138 409 2275 481 
Q 2413 553 2600 753 
z
" transform="scale(0.015625)"/>
       <path id="TimesNewRomanPS-BoldMT-68" d="M 1409 4238 
L 1409 2547 
Q 1650 2800 1850 2904 
Q 2050 3009 2266 3009 
Q 2541 3009 2736 2853 
Q 2931 2697 2995 2486 
Q 3059 2275 3059 1775 
L 3059 634 
Q 3059 300 3121 217 
Q 3184 134 3375 113 
L 3375 0 
L 1894 0 
L 1894 113 
Q 2050 134 2128 238 
Q 2184 319 2184 634 
L 2184 1938 
Q 2184 2300 2156 2392 
Q 2128 2484 2061 2536 
Q 1994 2588 1909 2588 
Q 1784 2588 1665 2502 
Q 1547 2416 1409 2200 
L 1409 634 
Q 1409 322 1456 244 
Q 1516 138 1700 113 
L 1700 0 
L 219 0 
L 219 113 
Q 403 131 481 231 
Q 534 300 534 634 
L 534 3603 
Q 534 3934 473 4015 
Q 413 4097 219 4122 
L 219 4238 
L 1409 4238 
z
" transform="scale(0.015625)"/>
      </defs>
      <use xlink:href="#TimesNewRomanPS-BoldMT-48"/>
      <use xlink:href="#TimesNewRomanPS-BoldMT-65" x="77.783203"/>
      <use xlink:href="#TimesNewRomanPS-BoldMT-61" x="122.167969"/>
      <use xlink:href="#TimesNewRomanPS-BoldMT-74" x="172.167969"/>
      <use xlink:href="#TimesNewRomanPS-BoldMT-20" x="205.46875"/>
      <use xlink:href="#TimesNewRomanPS-BoldMT-45" x="230.46875"/>
      <use xlink:href="#TimesNewRomanPS-BoldMT-78" x="297.167969"/>
      <use xlink:href="#TimesNewRomanPS-BoldMT-63" x="347.167969"/>
      <use xlink:href="#TimesNewRomanPS-BoldMT-68" x="391.552734"/>
      <use xlink:href="#TimesNewRomanPS-BoldMT-61" x="447.167969"/>
      <use xlink:href="#TimesNewRomanPS-BoldMT-6e" x="497.167969"/>
      <use xlink:href="#TimesNewRomanPS-BoldMT-67" x="552.783203"/>
      <use xlink:href="#TimesNewRomanPS-BoldMT-65" x="602.783203"/>
      <use xlink:href="#TimesNewRomanPS-BoldMT-72" x="647.167969"/>
      <use xlink:href="#TimesNewRomanPS-BoldMT-20" x="689.802734"/>
     </g>
     <!--  Area (m2) -->
     <g style="fill: #262626" transform="translate(43.360425 311.673187) rotate(-90) scale(0.216 -0.216)">
      <defs>
       <path id="TimesNewRomanPS-BoldMT-41" d="M 2663 1206 
L 1166 1206 
L 988 794 
Q 900 588 900 453 
Q 900 275 1044 191 
Q 1128 141 1459 116 
L 1459 0 
L 50 0 
L 50 116 
Q 278 150 425 304 
Q 572 459 788 944 
L 2303 4325 
L 2363 4325 
L 3891 850 
Q 4109 356 4250 228 
Q 4356 131 4550 116 
L 4550 0 
L 2500 0 
L 2500 116 
L 2584 116 
Q 2831 116 2931 184 
Q 3000 234 3000 328 
Q 3000 384 2981 444 
Q 2975 472 2888 678 
L 2663 1206 
z
M 2556 1438 
L 1925 2897 
L 1275 1438 
L 2556 1438 
z
" transform="scale(0.015625)"/>
      </defs>
      <use xlink:href="#TimesNewRomanPS-BoldMT-20"/>
      <use xlink:href="#TimesNewRomanPS-BoldMT-41" x="19.5"/>
      <use xlink:href="#TimesNewRomanPS-BoldMT-72" x="91.716797"/>
      <use xlink:href="#TimesNewRomanPS-BoldMT-65" x="134.351562"/>
      <use xlink:href="#TimesNewRomanPS-BoldMT-61" x="178.736328"/>
      <use xlink:href="#TimesNewRomanPS-BoldMT-20" x="228.736328"/>
      <use xlink:href="#TimesNewRomanPS-BoldMT-28" x="253.736328"/>
      <use xlink:href="#TimesNewRomanPS-BoldMT-6d" x="287.037109"/>
      <use xlink:href="#TimesNewRomanPS-BoldMT-32" x="370.337891"/>
      <use xlink:href="#TimesNewRomanPS-BoldMT-29" x="420.337891"/>
     </g>
    </g>
   </g>
   <g id="PathCollection_2">
    <defs>
     <path id="m1bb8229475" d="M 0 5 
C 1.326016 5 2.597899 4.473168 3.535534 3.535534 
C 4.473168 2.597899 5 1.326016 5 0 
C 5 -1.326016 4.473168 -2.597899 3.535534 -3.535534 
C 2.597899 -4.473168 1.326016 -5 0 -5 
C -1.326016 -5 -2.597899 -4.473168 -3.535534 -3.535534 
C -4.473168 -2.597899 -5 -1.326016 -5 0 
C -5 1.326016 -4.473168 2.597899 -3.535534 3.535534 
C -2.597899 4.473168 -1.326016 5 0 5 
z
" style="stroke: #1f77b4; stroke-opacity: 0.7"/>
    </defs>
    <g clip-path="url(#p539443a294)">
     <use xlink:href="#m1bb8229475" x="121.344436" y="244.454242" style="fill: #1f77b4; fill-opacity: 0.7; stroke: #1f77b4; stroke-opacity: 0.7"/>
     <use xlink:href="#m1bb8229475" x="248.162618" y="263.655412" style="fill: #1f77b4; fill-opacity: 0.7; stroke: #1f77b4; stroke-opacity: 0.7"/>
     <use xlink:href="#m1bb8229475" x="374.9808" y="273.692819" style="fill: #1f77b4; fill-opacity: 0.7; stroke: #1f77b4; stroke-opacity: 0.7"/>
     <use xlink:href="#m1bb8229475" x="501.798982" y="281.95722" style="fill: #1f77b4; fill-opacity: 0.7; stroke: #1f77b4; stroke-opacity: 0.7"/>
     <use xlink:href="#m1bb8229475" x="628.617164" y="288.218674" style="fill: #1f77b4; fill-opacity: 0.7; stroke: #1f77b4; stroke-opacity: 0.7"/>
    </g>
   </g>
   <g id="PathCollection_3">
    <defs>
     <path id="m875920b13d" d="M 0 5 
C 1.326016 5 2.597899 4.473168 3.535534 3.535534 
C 4.473168 2.597899 5 1.326016 5 0 
C 5 -1.326016 4.473168 -2.597899 3.535534 -3.535534 
C 2.597899 -4.473168 1.326016 -5 0 -5 
C -1.326016 -5 -2.597899 -4.473168 -3.535534 -3.535534 
C -4.473168 -2.597899 -5 -1.326016 -5 0 
C -5 1.326016 -4.473168 2.597899 -3.535534 3.535534 
C -2.597899 4.473168 -1.326016 5 0 5 
z
" style="stroke: #2ca02c; stroke-opacity: 0.7"/>
    </defs>
    <g clip-path="url(#p539443a294)">
     <use xlink:href="#m875920b13d" x="121.344436" y="263.777128" style="fill: #2ca02c; fill-opacity: 0.7; stroke: #2ca02c; stroke-opacity: 0.7"/>
     <use xlink:href="#m875920b13d" x="248.162618" y="293.753443" style="fill: #2ca02c; fill-opacity: 0.7; stroke: #2ca02c; stroke-opacity: 0.7"/>
     <use xlink:href="#m875920b13d" x="374.9808" y="306.943551" style="fill: #2ca02c; fill-opacity: 0.7; stroke: #2ca02c; stroke-opacity: 0.7"/>
     <use xlink:href="#m875920b13d" x="501.798982" y="315.294526" style="fill: #2ca02c; fill-opacity: 0.7; stroke: #2ca02c; stroke-opacity: 0.7"/>
     <use xlink:href="#m875920b13d" x="628.617164" y="320.791121" style="fill: #2ca02c; fill-opacity: 0.7; stroke: #2ca02c; stroke-opacity: 0.7"/>
    </g>
   </g>
   <g id="PathCollection_4">
    <defs>
     <path id="m2d7b0c6e65" d="M 0 5 
C 1.326016 5 2.597899 4.473168 3.535534 3.535534 
C 4.473168 2.597899 5 1.326016 5 0 
C 5 -1.326016 4.473168 -2.597899 3.535534 -3.535534 
C 2.597899 -4.473168 1.326016 -5 0 -5 
C -1.326016 -5 -2.597899 -4.473168 -3.535534 -3.535534 
C -4.473168 -2.597899 -5 -1.326016 -5 0 
C -5 1.326016 -4.473168 2.597899 -3.535534 3.535534 
C -2.597899 4.473168 -1.326016 5 0 5 
z
" style="stroke: #ff7f0e; stroke-opacity: 0.7"/>
    </defs>
    <g clip-path="url(#p539443a294)">
     <use xlink:href="#m2d7b0c6e65" x="121.344436" y="186.247196" style="fill: #ff7f0e; fill-opacity: 0.7; stroke: #ff7f0e; stroke-opacity: 0.7"/>
     <use xlink:href="#m2d7b0c6e65" x="248.162618" y="281.184292" style="fill: #ff7f0e; fill-opacity: 0.7; stroke: #ff7f0e; stroke-opacity: 0.7"/>
     <use xlink:href="#m2d7b0c6e65" x="374.9808" y="302.940162" style="fill: #ff7f0e; fill-opacity: 0.7; stroke: #ff7f0e; stroke-opacity: 0.7"/>
     <use xlink:href="#m2d7b0c6e65" x="501.798982" y="313.964201" style="fill: #ff7f0e; fill-opacity: 0.7; stroke: #ff7f0e; stroke-opacity: 0.7"/>
     <use xlink:href="#m2d7b0c6e65" x="628.617164" y="320.484165" style="fill: #ff7f0e; fill-opacity: 0.7; stroke: #ff7f0e; stroke-opacity: 0.7"/>
    </g>
   </g>
   <g id="line2d_31">
    <path d="M 121.344436 244.454242 
L 248.162618 263.655412 
L 374.9808 273.692819 
L 501.798982 281.95722 
L 628.617164 288.218674 
" clip-path="url(#p539443a294)" style="fill: none; stroke: #1f77b4; stroke-opacity: 0.7; stroke-width: 1.5; stroke-linecap: round"/>
   </g>
   <g id="line2d_32">
    <path d="M 121.344436 263.777128 
L 248.162618 293.753443 
L 374.9808 306.943551 
L 501.798982 315.294526 
L 628.617164 320.791121 
" clip-path="url(#p539443a294)" style="fill: none; stroke: #2ca02c; stroke-opacity: 0.7; stroke-width: 1.5; stroke-linecap: round"/>
   </g>
   <g id="line2d_33">
    <path d="M 121.344436 186.247196 
L 248.162618 281.184292 
L 374.9808 302.940162 
L 501.798982 313.964201 
L 628.617164 320.484165 
" clip-path="url(#p539443a294)" style="fill: none; stroke: #ff7f0e; stroke-opacity: 0.7; stroke-width: 1.5; stroke-linecap: round"/>
   </g>
   <g id="line2d_34">
    <path d="M 121.344436 345.84 
L 121.344436 179.52 
" clip-path="url(#p539443a294)" style="fill: none; stroke-dasharray: 5.55,2.4; stroke-dashoffset: 0; stroke: #9467bd; stroke-width: 1.5"/>
   </g>
   <g id="patch_8">
    <path d="M 95.9808 345.84 
L 95.9808 179.52 
" style="fill: none; stroke: #262626; stroke-width: 1.25; stroke-linejoin: miter; stroke-linecap: square"/>
   </g>
   <g id="patch_9">
    <path d="M 653.9808 345.84 
L 653.9808 179.52 
" style="fill: none; stroke: #262626; stroke-width: 1.25; stroke-linejoin: miter; stroke-linecap: square"/>
   </g>
   <g id="patch_10">
    <path d="M 95.9808 345.84 
L 653.9808 345.84 
" style="fill: none; stroke: #262626; stroke-width: 1.25; stroke-linejoin: miter; stroke-linecap: square"/>
   </g>
   <g id="patch_11">
    <path d="M 95.9808 179.52 
L 653.9808 179.52 
" style="fill: none; stroke: #262626; stroke-width: 1.25; stroke-linejoin: miter; stroke-linecap: square"/>
   </g>
   <g id="legend_1">
    <g id="patch_12">
     <path d="M 189.856191 463.08 
L 560.105409 463.08 
Q 563.105409 463.08 563.105409 460.08 
L 563.105409 404.602031 
Q 563.105409 401.602031 560.105409 401.602031 
L 189.856191 401.602031 
Q 186.856191 401.602031 186.856191 404.602031 
L 186.856191 460.08 
Q 186.856191 463.08 189.856191 463.08 
z
" style="fill: #ffffff; opacity: 0.8; stroke: #cccccc; stroke-linejoin: miter"/>
    </g>
    <g id="line2d_35">
     <path d="M 192.856191 412.852031 
L 207.856191 412.852031 
L 222.856191 412.852031 
" style="fill: none; stroke: #1f77b4; stroke-opacity: 0.7; stroke-width: 1.5; stroke-linecap: round"/>
    </g>
    <g id="text_23">
     <!-- Economizer HX (3) -->
     <g style="fill: #262626" transform="translate(234.856191 418.102031) scale(0.15 -0.15)">
      <defs>
       <path id="TimesNewRomanPS-BoldMT-7a" d="M 2609 0 
L 66 0 
L 66 69 
L 1672 2731 
L 1203 2731 
Q 900 2731 769 2676 
Q 638 2622 556 2501 
Q 475 2381 388 2072 
L 278 2072 
L 278 2922 
L 2738 2922 
L 2738 2838 
L 1144 200 
L 1344 200 
Q 1944 200 2209 372 
Q 2475 544 2609 1000 
L 2697 1000 
L 2609 0 
z
" transform="scale(0.015625)"/>
       <path id="TimesNewRomanPS-BoldMT-58" d="M 2703 2484 
L 3872 750 
Q 4163 319 4286 226 
Q 4409 134 4578 116 
L 4578 0 
L 2513 0 
L 2513 116 
Q 2759 134 2831 190 
Q 2903 247 2903 328 
Q 2903 384 2881 428 
Q 2838 522 2663 778 
L 2044 1694 
L 1397 903 
Q 1106 544 1106 416 
Q 1106 325 1181 247 
Q 1256 169 1403 134 
Q 1469 116 1672 116 
L 1672 0 
L 44 0 
L 44 116 
Q 322 156 481 266 
Q 691 409 1066 866 
L 1906 1891 
L 828 3475 
Q 563 3866 525 3909 
Q 441 4013 359 4056 
Q 278 4100 134 4122 
L 134 4238 
L 2238 4238 
L 2238 4122 
L 2131 4122 
Q 1950 4122 1878 4064 
Q 1806 4006 1806 3919 
Q 1806 3850 1828 3800 
L 2044 3475 
L 2569 2675 
L 3016 3222 
Q 3359 3644 3359 3813 
Q 3359 3897 3311 3969 
Q 3263 4041 3172 4081 
Q 3081 4122 2891 4122 
L 2891 4238 
L 4450 4238 
L 4450 4122 
Q 4266 4119 4153 4076 
Q 4041 4034 3913 3919 
Q 3831 3844 3506 3453 
L 2703 2484 
z
" transform="scale(0.015625)"/>
      </defs>
      <use xlink:href="#TimesNewRomanPS-BoldMT-45"/>
      <use xlink:href="#TimesNewRomanPS-BoldMT-63" x="66.699219"/>
      <use xlink:href="#TimesNewRomanPS-BoldMT-6f" x="111.083984"/>
      <use xlink:href="#TimesNewRomanPS-BoldMT-6e" x="161.083984"/>
      <use xlink:href="#TimesNewRomanPS-BoldMT-6f" x="216.699219"/>
      <use xlink:href="#TimesNewRomanPS-BoldMT-6d" x="266.699219"/>
      <use xlink:href="#TimesNewRomanPS-BoldMT-69" x="350"/>
      <use xlink:href="#TimesNewRomanPS-BoldMT-7a" x="377.783203"/>
      <use xlink:href="#TimesNewRomanPS-BoldMT-65" x="422.167969"/>
      <use xlink:href="#TimesNewRomanPS-BoldMT-72" x="466.552734"/>
      <use xlink:href="#TimesNewRomanPS-BoldMT-20" x="509.1875"/>
      <use xlink:href="#TimesNewRomanPS-BoldMT-48" x="534.1875"/>
      <use xlink:href="#TimesNewRomanPS-BoldMT-58" x="611.970703"/>
      <use xlink:href="#TimesNewRomanPS-BoldMT-20" x="684.1875"/>
      <use xlink:href="#TimesNewRomanPS-BoldMT-28" x="709.1875"/>
      <use xlink:href="#TimesNewRomanPS-BoldMT-33" x="742.488281"/>
      <use xlink:href="#TimesNewRomanPS-BoldMT-29" x="792.488281"/>
     </g>
    </g>
    <g id="line2d_36">
     <path d="M 192.856191 434.060625 
L 207.856191 434.060625 
L 222.856191 434.060625 
" style="fill: none; stroke: #2ca02c; stroke-opacity: 0.7; stroke-width: 1.5; stroke-linecap: round"/>
    </g>
    <g id="text_24">
     <!-- Evaporator HX (2) -->
     <g style="fill: #262626" transform="translate(234.856191 439.310625) scale(0.15 -0.15)">
      <defs>
       <path id="TimesNewRomanPS-BoldMT-76" d="M 1534 -88 
L 550 2178 
Q 372 2588 272 2697 
Q 200 2778 59 2806 
L 59 2922 
L 1613 2922 
L 1613 2806 
Q 1466 2806 1413 2753 
Q 1338 2684 1338 2591 
Q 1338 2475 1475 2156 
L 1956 1059 
L 2341 2006 
Q 2506 2413 2506 2581 
Q 2506 2678 2436 2739 
Q 2366 2800 2188 2806 
L 2188 2922 
L 3144 2922 
L 3144 2806 
Q 3006 2788 2918 2703 
Q 2831 2619 2656 2206 
L 1681 -88 
L 1534 -88 
z
" transform="scale(0.015625)"/>
      </defs>
      <use xlink:href="#TimesNewRomanPS-BoldMT-45"/>
      <use xlink:href="#TimesNewRomanPS-BoldMT-76" x="66.699219"/>
      <use xlink:href="#TimesNewRomanPS-BoldMT-61" x="116.699219"/>
      <use xlink:href="#TimesNewRomanPS-BoldMT-70" x="166.699219"/>
      <use xlink:href="#TimesNewRomanPS-BoldMT-6f" x="222.314453"/>
      <use xlink:href="#TimesNewRomanPS-BoldMT-72" x="272.314453"/>
      <use xlink:href="#TimesNewRomanPS-BoldMT-61" x="316.699219"/>
      <use xlink:href="#TimesNewRomanPS-BoldMT-74" x="366.699219"/>
      <use xlink:href="#TimesNewRomanPS-BoldMT-6f" x="400"/>
      <use xlink:href="#TimesNewRomanPS-BoldMT-72" x="450"/>
      <use xlink:href="#TimesNewRomanPS-BoldMT-20" x="492.634766"/>
      <use xlink:href="#TimesNewRomanPS-BoldMT-48" x="517.634766"/>
      <use xlink:href="#TimesNewRomanPS-BoldMT-58" x="595.417969"/>
      <use xlink:href="#TimesNewRomanPS-BoldMT-20" x="667.634766"/>
      <use xlink:href="#TimesNewRomanPS-BoldMT-28" x="692.634766"/>
      <use xlink:href="#TimesNewRomanPS-BoldMT-32" x="725.935547"/>
      <use xlink:href="#TimesNewRomanPS-BoldMT-29" x="775.935547"/>
     </g>
    </g>
    <g id="line2d_37">
     <path d="M 388.725722 412.852031 
L 403.725722 412.852031 
L 418.725722 412.852031 
" style="fill: none; stroke: #ff7f0e; stroke-opacity: 0.7; stroke-width: 1.5; stroke-linecap: round"/>
    </g>
    <g id="text_25">
     <!-- Superheater HX (1) -->
     <g style="fill: #262626" transform="translate(430.725722 418.102031) scale(0.15 -0.15)">
      <use xlink:href="#TimesNewRomanPS-BoldMT-53"/>
      <use xlink:href="#TimesNewRomanPS-BoldMT-75" x="55.615234"/>
      <use xlink:href="#TimesNewRomanPS-BoldMT-70" x="111.230469"/>
      <use xlink:href="#TimesNewRomanPS-BoldMT-65" x="166.845703"/>
      <use xlink:href="#TimesNewRomanPS-BoldMT-72" x="211.230469"/>
      <use xlink:href="#TimesNewRomanPS-BoldMT-68" x="255.615234"/>
      <use xlink:href="#TimesNewRomanPS-BoldMT-65" x="311.230469"/>
      <use xlink:href="#TimesNewRomanPS-BoldMT-61" x="355.615234"/>
      <use xlink:href="#TimesNewRomanPS-BoldMT-74" x="405.615234"/>
      <use xlink:href="#TimesNewRomanPS-BoldMT-65" x="438.916016"/>
      <use xlink:href="#TimesNewRomanPS-BoldMT-72" x="483.300781"/>
      <use xlink:href="#TimesNewRomanPS-BoldMT-20" x="525.935547"/>
      <use xlink:href="#TimesNewRomanPS-BoldMT-48" x="550.935547"/>
      <use xlink:href="#TimesNewRomanPS-BoldMT-58" x="628.71875"/>
      <use xlink:href="#TimesNewRomanPS-BoldMT-20" x="700.935547"/>
      <use xlink:href="#TimesNewRomanPS-BoldMT-28" x="725.935547"/>
      <use xlink:href="#TimesNewRomanPS-BoldMT-31" x="759.236328"/>
      <use xlink:href="#TimesNewRomanPS-BoldMT-29" x="809.236328"/>
     </g>
    </g>
    <g id="line2d_38">
     <path d="M 388.725722 442.661719 
L 403.725722 442.661719 
L 418.725722 442.661719 
" style="fill: none; stroke-dasharray: 5.55,2.4; stroke-dashoffset: 0; stroke: #9467bd; stroke-width: 1.5"/>
    </g>
    <g id="text_26">
     <!-- Reference Salt  -->
     <g style="fill: #262626" transform="translate(430.725722 438.743437) scale(0.15 -0.15)">
      <defs>
       <path id="TimesNewRomanPS-BoldMT-52" d="M 1700 1931 
L 1700 744 
Q 1700 400 1742 311 
Q 1784 222 1890 169 
Q 1997 116 2288 116 
L 2288 0 
L 119 0 
L 119 116 
Q 413 116 517 170 
Q 622 225 664 312 
Q 706 400 706 744 
L 706 3494 
Q 706 3838 664 3927 
Q 622 4016 515 4069 
Q 409 4122 119 4122 
L 119 4238 
L 2088 4238 
Q 2856 4238 3212 4131 
Q 3569 4025 3794 3739 
Q 4019 3453 4019 3069 
Q 4019 2600 3681 2294 
Q 3466 2100 3078 2003 
L 4097 569 
Q 4297 291 4381 222 
Q 4509 125 4678 116 
L 4678 0 
L 3344 0 
L 1978 1931 
L 1700 1931 
z
M 1700 4009 
L 1700 2153 
L 1878 2153 
Q 2313 2153 2528 2233 
Q 2744 2313 2867 2520 
Q 2991 2728 2991 3063 
Q 2991 3547 2764 3778 
Q 2538 4009 2034 4009 
L 1700 4009 
z
" transform="scale(0.015625)"/>
      </defs>
      <use xlink:href="#TimesNewRomanPS-BoldMT-52"/>
      <use xlink:href="#TimesNewRomanPS-BoldMT-65" x="72.216797"/>
      <use xlink:href="#TimesNewRomanPS-BoldMT-66" x="116.601562"/>
      <use xlink:href="#TimesNewRomanPS-BoldMT-65" x="149.902344"/>
      <use xlink:href="#TimesNewRomanPS-BoldMT-72" x="194.287109"/>
      <use xlink:href="#TimesNewRomanPS-BoldMT-65" x="236.921875"/>
      <use xlink:href="#TimesNewRomanPS-BoldMT-6e" x="281.306641"/>
      <use xlink:href="#TimesNewRomanPS-BoldMT-63" x="336.921875"/>
      <use xlink:href="#TimesNewRomanPS-BoldMT-65" x="381.306641"/>
      <use xlink:href="#TimesNewRomanPS-BoldMT-20" x="425.691406"/>
      <use xlink:href="#TimesNewRomanPS-BoldMT-53" x="450.691406"/>
      <use xlink:href="#TimesNewRomanPS-BoldMT-61" x="506.306641"/>
      <use xlink:href="#TimesNewRomanPS-BoldMT-6c" x="556.306641"/>
      <use xlink:href="#TimesNewRomanPS-BoldMT-74" x="584.089844"/>
      <use xlink:href="#TimesNewRomanPS-BoldMT-20" x="617.390625"/>
     </g>
     <!--  Temperature -->
     <g style="fill: #262626" transform="translate(430.725722 453.871406) scale(0.15 -0.15)">
      <use xlink:href="#TimesNewRomanPS-BoldMT-20"/>
      <use xlink:href="#TimesNewRomanPS-BoldMT-54" x="23.25"/>
      <use xlink:href="#TimesNewRomanPS-BoldMT-65" x="80.824219"/>
      <use xlink:href="#TimesNewRomanPS-BoldMT-6d" x="125.208984"/>
      <use xlink:href="#TimesNewRomanPS-BoldMT-70" x="208.509766"/>
      <use xlink:href="#TimesNewRomanPS-BoldMT-65" x="264.125"/>
      <use xlink:href="#TimesNewRomanPS-BoldMT-72" x="308.509766"/>
      <use xlink:href="#TimesNewRomanPS-BoldMT-61" x="352.894531"/>
      <use xlink:href="#TimesNewRomanPS-BoldMT-74" x="402.894531"/>
      <use xlink:href="#TimesNewRomanPS-BoldMT-75" x="436.195312"/>
      <use xlink:href="#TimesNewRomanPS-BoldMT-72" x="491.810547"/>
      <use xlink:href="#TimesNewRomanPS-BoldMT-65" x="534.445312"/>
     </g>
    </g>
   </g>
  </g>
 </g>
 <defs>
  <clipPath id="p9137ea9633">
   <rect x="95.9808" y="13.2" width="558" height="166.32"/>
  </clipPath>
  <clipPath id="p539443a294">
   <rect x="95.9808" y="179.52" width="558" height="166.32"/>
  </clipPath>
 </defs>
</svg>
