<?xml version="1.0" encoding="utf-8" standalone="no"?>
<!DOCTYPE svg PUBLIC "-//W3C//DTD SVG 1.1//EN"
  "http://www.w3.org/Graphics/SVG/1.1/DTD/svg11.dtd">
<svg xmlns:xlink="http://www.w3.org/1999/xlink" width="825.164438pt" height="277.200688pt" viewBox="0 0 825.164438 277.200688" xmlns="http://www.w3.org/2000/svg" version="1.1">
 <metadata>
  <rdf:RDF xmlns:dc="http://purl.org/dc/elements/1.1/" xmlns:cc="http://creativecommons.org/ns#" xmlns:rdf="http://www.w3.org/1999/02/22-rdf-syntax-ns#">
   <cc:Work>
    <dc:type rdf:resource="http://purl.org/dc/dcmitype/StillImage"/>
    <dc:date>2023-12-20T19:49:36.527666</dc:date>
    <dc:format>image/svg+xml</dc:format>
    <dc:creator>
     <cc:Agent>
      <dc:title>Matplotlib v3.7.1, https://matplotlib.org/</dc:title>
     </cc:Agent>
    </dc:creator>
   </cc:Work>
  </rdf:RDF>
 </metadata>
 <defs>
  <style type="text/css">*{stroke-linejoin: round; stroke-linecap: butt}</style>
 </defs>
 <g id="figure_1">
  <g id="patch_1">
   <path d="M 0 277.200688 
L 825.164438 277.200688 
L 825.164438 0 
L 0 0 
z
" style="fill: #ffffff"/>
  </g>
  <g id="axes_1">
   <g id="patch_2">
    <path d="M 97.274437 173.52 
L 599.474438 173.52 
L 599.474438 7.2 
L 97.274437 7.2 
z
" style="fill: #ffffff"/>
   </g>
   <g id="matplotlib.axis_1">
    <g id="xtick_1">
     <g id="line2d_1">
      <defs>
       <path id="mc5b3b8d7fe" d="M 0 0 
L 0 4 
" style="stroke: #262626; stroke-width: 1.25"/>
      </defs>
      <g>
       <use xlink:href="#mc5b3b8d7fe" x="128.966671" y="7.2" style="fill: #262626; stroke: #262626; stroke-width: 1.25"/>
      </g>
     </g>
     <g id="text_1">
      <!-- Type 1 -->
      <g style="fill: #262626" transform="translate(125.082608 232.699063) rotate(-90) scale(0.18 -0.18)">
       <defs>
        <path id="TimesNewRomanPS-BoldMT-54" d="M 4038 4238 
L 4038 3091 
L 3925 3091 
Q 3825 3488 3703 3661 
Q 3581 3834 3369 3938 
Q 3250 3994 2953 3994 
L 2638 3994 
L 2638 725 
Q 2638 400 2673 319 
Q 2709 238 2814 177 
Q 2919 116 3100 116 
L 3241 116 
L 3241 0 
L 1022 0 
L 1022 116 
L 1163 116 
Q 1347 116 1459 181 
Q 1541 225 1588 331 
Q 1622 406 1622 725 
L 1622 3994 
L 1316 3994 
Q 888 3994 694 3813 
Q 422 3559 350 3091 
L 231 3091 
L 231 4238 
L 4038 4238 
z
" transform="scale(0.015625)"/>
        <path id="TimesNewRomanPS-BoldMT-79" d="M 1556 -119 
L 613 2047 
Q 400 2538 298 2650 
Q 197 2763 53 2806 
L 53 2922 
L 1606 2922 
L 1606 2806 
Q 1453 2800 1390 2747 
Q 1328 2694 1328 2619 
Q 1328 2500 1484 2150 
L 1984 1006 
L 2325 1891 
Q 2509 2363 2509 2547 
Q 2509 2663 2432 2731 
Q 2356 2800 2163 2806 
L 2163 2922 
L 3141 2922 
L 3141 2806 
Q 2997 2791 2906 2695 
Q 2816 2600 2603 2047 
L 1769 -119 
Q 1453 -931 1300 -1119 
Q 1084 -1381 759 -1381 
Q 500 -1381 339 -1232 
Q 178 -1084 178 -875 
Q 178 -694 289 -575 
Q 400 -456 563 -456 
Q 719 -456 814 -556 
Q 909 -656 913 -866 
Q 916 -984 941 -1019 
Q 966 -1053 1013 -1053 
Q 1088 -1053 1172 -963 
Q 1297 -831 1466 -363 
L 1556 -119 
z
" transform="scale(0.015625)"/>
        <path id="TimesNewRomanPS-BoldMT-70" d="M 1347 297 
L 1347 -791 
Q 1347 -1016 1383 -1097 
Q 1419 -1178 1494 -1215 
Q 1569 -1253 1788 -1253 
L 1788 -1369 
L 122 -1369 
L 122 -1253 
Q 316 -1247 409 -1144 
Q 472 -1072 472 -772 
L 472 2313 
Q 472 2622 400 2708 
Q 328 2794 122 2806 
L 122 2922 
L 1347 2922 
L 1347 2538 
Q 1500 2763 1659 2863 
Q 1888 3009 2156 3009 
Q 2478 3009 2742 2806 
Q 3006 2603 3143 2245 
Q 3281 1888 3281 1475 
Q 3281 1031 3139 664 
Q 2997 297 2726 104 
Q 2456 -88 2125 -88 
Q 1884 -88 1675 19 
Q 1519 100 1347 297 
z
M 1347 613 
Q 1616 231 1922 231 
Q 2091 231 2200 409 
Q 2363 672 2363 1409 
Q 2363 2166 2184 2444 
Q 2066 2628 1866 2628 
Q 1550 2628 1347 2172 
L 1347 613 
z
" transform="scale(0.015625)"/>
        <path id="TimesNewRomanPS-BoldMT-65" d="M 2691 1566 
L 1088 1566 
Q 1116 984 1397 647 
Q 1613 388 1916 388 
Q 2103 388 2256 492 
Q 2409 597 2584 869 
L 2691 800 
Q 2453 316 2165 114 
Q 1878 -88 1500 -88 
Q 850 -88 516 413 
Q 247 816 247 1413 
Q 247 2144 642 2576 
Q 1038 3009 1569 3009 
Q 2013 3009 2339 2645 
Q 2666 2281 2691 1566 
z
M 1922 1775 
Q 1922 2278 1867 2465 
Q 1813 2653 1697 2750 
Q 1631 2806 1522 2806 
Q 1359 2806 1256 2647 
Q 1072 2369 1072 1884 
L 1072 1775 
L 1922 1775 
z
" transform="scale(0.015625)"/>
        <path id="TimesNewRomanPS-BoldMT-20" transform="scale(0.015625)"/>
        <path id="TimesNewRomanPS-BoldMT-31" d="M 2084 4325 
L 2084 859 
Q 2084 469 2118 361 
Q 2153 253 2262 184 
Q 2372 116 2613 116 
L 2709 116 
L 2709 0 
L 478 0 
L 478 116 
L 591 116 
Q 863 116 978 178 
Q 1094 241 1134 350 
Q 1175 459 1175 859 
L 1175 3056 
Q 1175 3350 1147 3423 
Q 1119 3497 1042 3548 
Q 966 3600 866 3600 
Q 706 3600 478 3500 
L 422 3613 
L 1981 4325 
L 2084 4325 
z
" transform="scale(0.015625)"/>
       </defs>
       <use xlink:href="#TimesNewRomanPS-BoldMT-54"/>
       <use xlink:href="#TimesNewRomanPS-BoldMT-79" x="59.324219"/>
       <use xlink:href="#TimesNewRomanPS-BoldMT-70" x="109.324219"/>
       <use xlink:href="#TimesNewRomanPS-BoldMT-65" x="164.939453"/>
       <use xlink:href="#TimesNewRomanPS-BoldMT-20" x="209.324219"/>
       <use xlink:href="#TimesNewRomanPS-BoldMT-31" x="234.324219"/>
      </g>
     </g>
    </g>
    <g id="xtick_2">
     <g id="line2d_2">
      <g>
       <use xlink:href="#mc5b3b8d7fe" x="177.723952" y="7.2" style="fill: #262626; stroke: #262626; stroke-width: 1.25"/>
      </g>
     </g>
     <g id="text_2">
      <!-- Type 2 -->
      <g style="fill: #262626" transform="translate(173.83989 232.699063) rotate(-90) scale(0.18 -0.18)">
       <defs>
        <path id="TimesNewRomanPS-BoldMT-32" d="M 2650 0 
L 156 0 
L 156 69 
Q 1303 1434 1548 1906 
Q 1794 2378 1794 2828 
Q 1794 3156 1591 3373 
Q 1388 3591 1094 3591 
Q 613 3591 347 3109 
L 231 3150 
Q 400 3750 744 4037 
Q 1088 4325 1538 4325 
Q 1859 4325 2125 4175 
Q 2391 4025 2541 3764 
Q 2691 3503 2691 3275 
Q 2691 2859 2459 2431 
Q 2144 1853 1081 819 
L 1997 819 
Q 2334 819 2436 847 
Q 2538 875 2603 942 
Q 2669 1009 2775 1225 
L 2888 1225 
L 2650 0 
z
" transform="scale(0.015625)"/>
       </defs>
       <use xlink:href="#TimesNewRomanPS-BoldMT-54"/>
       <use xlink:href="#TimesNewRomanPS-BoldMT-79" x="59.324219"/>
       <use xlink:href="#TimesNewRomanPS-BoldMT-70" x="109.324219"/>
       <use xlink:href="#TimesNewRomanPS-BoldMT-65" x="164.939453"/>
       <use xlink:href="#TimesNewRomanPS-BoldMT-20" x="209.324219"/>
       <use xlink:href="#TimesNewRomanPS-BoldMT-32" x="234.324219"/>
      </g>
     </g>
    </g>
    <g id="xtick_3">
     <g id="line2d_3">
      <g>
       <use xlink:href="#mc5b3b8d7fe" x="226.481234" y="7.2" style="fill: #262626; stroke: #262626; stroke-width: 1.25"/>
      </g>
     </g>
     <g id="text_3">
      <!-- Type 3 -->
      <g style="fill: #262626" transform="translate(222.597171 232.699063) rotate(-90) scale(0.18 -0.18)">
       <defs>
        <path id="TimesNewRomanPS-BoldMT-33" d="M 947 2125 
L 947 2234 
Q 1303 2338 1440 2427 
Q 1578 2516 1678 2698 
Q 1778 2881 1778 3069 
Q 1778 3328 1589 3514 
Q 1400 3700 1119 3700 
Q 681 3700 375 3238 
L 259 3278 
Q 484 3800 836 4062 
Q 1188 4325 1619 4325 
Q 2059 4325 2345 4056 
Q 2631 3788 2631 3428 
Q 2631 3194 2498 2976 
Q 2366 2759 2081 2594 
Q 2447 2416 2639 2155 
Q 2831 1894 2831 1500 
Q 2831 838 2351 373 
Q 1872 -91 1066 -91 
Q 528 -91 281 88 
Q 103 213 103 409 
Q 103 553 206 654 
Q 309 756 444 756 
Q 547 756 638 713 
Q 688 688 992 439 
Q 1297 191 1563 191 
Q 1794 191 1959 373 
Q 2125 556 2125 838 
Q 2125 1266 1825 1627 
Q 1525 1988 947 2125 
z
" transform="scale(0.015625)"/>
       </defs>
       <use xlink:href="#TimesNewRomanPS-BoldMT-54"/>
       <use xlink:href="#TimesNewRomanPS-BoldMT-79" x="59.324219"/>
       <use xlink:href="#TimesNewRomanPS-BoldMT-70" x="109.324219"/>
       <use xlink:href="#TimesNewRomanPS-BoldMT-65" x="164.939453"/>
       <use xlink:href="#TimesNewRomanPS-BoldMT-20" x="209.324219"/>
       <use xlink:href="#TimesNewRomanPS-BoldMT-33" x="234.324219"/>
      </g>
     </g>
    </g>
    <g id="xtick_4">
     <g id="line2d_4">
      <g>
       <use xlink:href="#mc5b3b8d7fe" x="275.238515" y="7.2" style="fill: #262626; stroke: #262626; stroke-width: 1.25"/>
      </g>
     </g>
     <g id="text_4">
      <!-- Type 4 -->
      <g style="fill: #262626" transform="translate(271.354453 232.699063) rotate(-90) scale(0.18 -0.18)">
       <defs>
        <path id="TimesNewRomanPS-BoldMT-34" d="M 159 1597 
L 2172 4325 
L 2553 4325 
L 2553 1597 
L 2941 1597 
L 2941 950 
L 2553 950 
L 2553 0 
L 1694 0 
L 1694 950 
L 159 950 
L 159 1597 
z
M 463 1597 
L 1694 1597 
L 1694 3269 
L 463 1597 
z
" transform="scale(0.015625)"/>
       </defs>
       <use xlink:href="#TimesNewRomanPS-BoldMT-54"/>
       <use xlink:href="#TimesNewRomanPS-BoldMT-79" x="59.324219"/>
       <use xlink:href="#TimesNewRomanPS-BoldMT-70" x="109.324219"/>
       <use xlink:href="#TimesNewRomanPS-BoldMT-65" x="164.939453"/>
       <use xlink:href="#TimesNewRomanPS-BoldMT-20" x="209.324219"/>
       <use xlink:href="#TimesNewRomanPS-BoldMT-34" x="234.324219"/>
      </g>
     </g>
    </g>
    <g id="xtick_5">
     <g id="line2d_5">
      <g>
       <use xlink:href="#mc5b3b8d7fe" x="323.995797" y="7.2" style="fill: #262626; stroke: #262626; stroke-width: 1.25"/>
      </g>
     </g>
     <g id="text_5">
      <!-- Type 5 -->
      <g style="fill: #262626" transform="translate(320.111734 232.699063) rotate(-90) scale(0.18 -0.18)">
       <defs>
        <path id="TimesNewRomanPS-BoldMT-35" d="M 975 4238 
L 2959 4238 
L 2644 3431 
L 975 3431 
L 816 3009 
Q 1894 2969 2475 2472 
Q 2953 2063 2953 1453 
Q 2953 1063 2731 689 
Q 2509 316 2106 114 
Q 1703 -88 1222 -88 
Q 703 -88 425 106 
Q 231 244 231 419 
Q 231 553 332 656 
Q 434 759 569 759 
Q 691 759 816 709 
Q 941 659 1244 447 
Q 1434 316 1572 266 
Q 1669 228 1791 228 
Q 2047 228 2226 415 
Q 2406 603 2406 866 
Q 2406 1416 1856 1759 
Q 1306 2103 469 2103 
Q 384 2103 216 2100 
L 975 4238 
z
" transform="scale(0.015625)"/>
       </defs>
       <use xlink:href="#TimesNewRomanPS-BoldMT-54"/>
       <use xlink:href="#TimesNewRomanPS-BoldMT-79" x="59.324219"/>
       <use xlink:href="#TimesNewRomanPS-BoldMT-70" x="109.324219"/>
       <use xlink:href="#TimesNewRomanPS-BoldMT-65" x="164.939453"/>
       <use xlink:href="#TimesNewRomanPS-BoldMT-20" x="209.324219"/>
       <use xlink:href="#TimesNewRomanPS-BoldMT-35" x="234.324219"/>
      </g>
     </g>
    </g>
    <g id="xtick_6">
     <g id="line2d_6">
      <g>
       <use xlink:href="#mc5b3b8d7fe" x="372.753078" y="7.2" style="fill: #262626; stroke: #262626; stroke-width: 1.25"/>
      </g>
     </g>
     <g id="text_6">
      <!-- Type 6 -->
      <g style="fill: #262626" transform="translate(368.869016 232.699063) rotate(-90) scale(0.18 -0.18)">
       <defs>
        <path id="TimesNewRomanPS-BoldMT-36" d="M 3006 4325 
L 3006 4238 
Q 2441 4094 2098 3867 
Q 1756 3641 1557 3317 
Q 1359 2994 1250 2516 
Q 1388 2609 1478 2638 
Q 1681 2700 1888 2700 
Q 2363 2700 2680 2354 
Q 2997 2009 2997 1413 
Q 2997 994 2825 644 
Q 2653 294 2337 103 
Q 2022 -88 1663 -88 
Q 1272 -88 940 126 
Q 609 341 423 753 
Q 238 1166 238 1650 
Q 238 2363 580 2977 
Q 922 3591 1551 3955 
Q 2181 4319 3006 4325 
z
M 1209 2263 
Q 1184 1831 1184 1631 
Q 1184 1200 1267 797 
Q 1350 394 1494 231 
Q 1597 116 1738 116 
Q 1881 116 1993 283 
Q 2106 450 2106 963 
Q 2106 1825 1897 2153 
Q 1763 2366 1534 2366 
Q 1409 2366 1209 2263 
z
" transform="scale(0.015625)"/>
       </defs>
       <use xlink:href="#TimesNewRomanPS-BoldMT-54"/>
       <use xlink:href="#TimesNewRomanPS-BoldMT-79" x="59.324219"/>
       <use xlink:href="#TimesNewRomanPS-BoldMT-70" x="109.324219"/>
       <use xlink:href="#TimesNewRomanPS-BoldMT-65" x="164.939453"/>
       <use xlink:href="#TimesNewRomanPS-BoldMT-20" x="209.324219"/>
       <use xlink:href="#TimesNewRomanPS-BoldMT-36" x="234.324219"/>
      </g>
     </g>
    </g>
    <g id="xtick_7">
     <g id="line2d_7">
      <g>
       <use xlink:href="#mc5b3b8d7fe" x="421.51036" y="7.2" style="fill: #262626; stroke: #262626; stroke-width: 1.25"/>
      </g>
     </g>
     <g id="text_7">
      <!-- Type 7 -->
      <g style="fill: #262626" transform="translate(417.626297 232.699063) rotate(-90) scale(0.18 -0.18)">
       <defs>
        <path id="TimesNewRomanPS-BoldMT-37" d="M 1134 -88 
L 2288 3409 
L 1409 3409 
Q 894 3409 634 3275 
Q 453 3181 334 2922 
L 216 2922 
L 522 4238 
L 3047 4238 
L 1625 -88 
L 1134 -88 
z
" transform="scale(0.015625)"/>
       </defs>
       <use xlink:href="#TimesNewRomanPS-BoldMT-54"/>
       <use xlink:href="#TimesNewRomanPS-BoldMT-79" x="59.324219"/>
       <use xlink:href="#TimesNewRomanPS-BoldMT-70" x="109.324219"/>
       <use xlink:href="#TimesNewRomanPS-BoldMT-65" x="164.939453"/>
       <use xlink:href="#TimesNewRomanPS-BoldMT-20" x="209.324219"/>
       <use xlink:href="#TimesNewRomanPS-BoldMT-37" x="234.324219"/>
      </g>
     </g>
    </g>
    <g id="xtick_8">
     <g id="line2d_8">
      <g>
       <use xlink:href="#mc5b3b8d7fe" x="470.267641" y="7.2" style="fill: #262626; stroke: #262626; stroke-width: 1.25"/>
      </g>
     </g>
     <g id="text_8">
      <!-- Type 8 -->
      <g style="fill: #262626" transform="translate(466.383579 232.699063) rotate(-90) scale(0.18 -0.18)">
       <defs>
        <path id="TimesNewRomanPS-BoldMT-38" d="M 2181 2394 
Q 2628 2066 2801 1783 
Q 2975 1500 2975 1134 
Q 2975 622 2589 267 
Q 2203 -88 1541 -88 
Q 913 -88 569 221 
Q 225 531 225 978 
Q 225 1319 423 1575 
Q 622 1831 1084 2044 
Q 581 2428 439 2672 
Q 297 2916 297 3238 
Q 297 3663 658 3986 
Q 1019 4309 1647 4309 
Q 2253 4309 2579 4023 
Q 2906 3738 2906 3338 
Q 2906 3038 2729 2808 
Q 2553 2578 2181 2394 
z
M 1944 2553 
Q 2059 2709 2115 2903 
Q 2172 3097 2172 3328 
Q 2172 3734 1997 3950 
Q 1866 4116 1634 4116 
Q 1425 4116 1278 3964 
Q 1131 3813 1131 3588 
Q 1131 3359 1295 3114 
Q 1459 2869 1944 2553 
z
M 1319 1894 
Q 1222 1806 1181 1734 
Q 1119 1625 1069 1415 
Q 1019 1206 1019 978 
Q 1019 684 1094 486 
Q 1169 288 1308 200 
Q 1447 113 1594 113 
Q 1822 113 1978 280 
Q 2134 447 2134 738 
Q 2134 1344 1319 1894 
z
" transform="scale(0.015625)"/>
       </defs>
       <use xlink:href="#TimesNewRomanPS-BoldMT-54"/>
       <use xlink:href="#TimesNewRomanPS-BoldMT-79" x="59.324219"/>
       <use xlink:href="#TimesNewRomanPS-BoldMT-70" x="109.324219"/>
       <use xlink:href="#TimesNewRomanPS-BoldMT-65" x="164.939453"/>
       <use xlink:href="#TimesNewRomanPS-BoldMT-20" x="209.324219"/>
       <use xlink:href="#TimesNewRomanPS-BoldMT-38" x="234.324219"/>
      </g>
     </g>
    </g>
    <g id="xtick_9">
     <g id="line2d_9">
      <g>
       <use xlink:href="#mc5b3b8d7fe" x="519.024923" y="7.2" style="fill: #262626; stroke: #262626; stroke-width: 1.25"/>
      </g>
     </g>
     <g id="text_9">
      <!-- Type 9 -->
      <g style="fill: #262626" transform="translate(515.14086 232.699063) rotate(-90) scale(0.18 -0.18)">
       <defs>
        <path id="TimesNewRomanPS-BoldMT-39" d="M 197 -88 
L 197 0 
Q 716 119 1077 350 
Q 1438 581 1648 922 
Q 1859 1263 1944 1706 
Q 1750 1606 1614 1567 
Q 1478 1528 1328 1528 
Q 847 1528 526 1875 
Q 206 2222 206 2825 
Q 206 3244 379 3592 
Q 553 3941 875 4133 
Q 1197 4325 1544 4325 
Q 1916 4325 2247 4112 
Q 2578 3900 2775 3497 
Q 2972 3094 2972 2578 
Q 2972 1909 2651 1296 
Q 2331 684 1697 314 
Q 1063 -56 197 -88 
z
M 1991 1969 
Q 2022 2319 2022 2584 
Q 2022 3153 1891 3644 
Q 1816 3916 1669 4044 
Q 1591 4113 1466 4113 
Q 1309 4113 1222 3978 
Q 1100 3794 1100 3275 
Q 1100 2409 1306 2081 
Q 1441 1869 1669 1869 
Q 1791 1869 1991 1969 
z
" transform="scale(0.015625)"/>
       </defs>
       <use xlink:href="#TimesNewRomanPS-BoldMT-54"/>
       <use xlink:href="#TimesNewRomanPS-BoldMT-79" x="59.324219"/>
       <use xlink:href="#TimesNewRomanPS-BoldMT-70" x="109.324219"/>
       <use xlink:href="#TimesNewRomanPS-BoldMT-65" x="164.939453"/>
       <use xlink:href="#TimesNewRomanPS-BoldMT-20" x="209.324219"/>
       <use xlink:href="#TimesNewRomanPS-BoldMT-39" x="234.324219"/>
      </g>
     </g>
    </g>
    <g id="xtick_10">
     <g id="line2d_10">
      <g>
       <use xlink:href="#mc5b3b8d7fe" x="567.782204" y="7.2" style="fill: #262626; stroke: #262626; stroke-width: 1.25"/>
      </g>
     </g>
     <g id="text_10">
      <!-- Type 10 -->
      <g style="fill: #262626" transform="translate(563.898142 241.699063) rotate(-90) scale(0.18 -0.18)">
       <defs>
        <path id="TimesNewRomanPS-BoldMT-30" d="M 2966 2119 
Q 2966 1484 2788 934 
Q 2681 597 2501 381 
Q 2322 166 2094 39 
Q 1866 -88 1597 -88 
Q 1291 -88 1044 68 
Q 797 225 606 516 
Q 469 728 366 1081 
Q 231 1559 231 2069 
Q 231 2759 425 3338 
Q 584 3816 909 4070 
Q 1234 4325 1597 4325 
Q 1966 4325 2286 4073 
Q 2606 3822 2756 3397 
Q 2966 2813 2966 2119 
z
M 2003 2125 
Q 2003 3238 1991 3422 
Q 1959 3856 1841 4009 
Q 1763 4109 1588 4109 
Q 1453 4109 1375 4034 
Q 1259 3925 1218 3648 
Q 1178 3372 1178 1719 
Q 1178 819 1241 513 
Q 1288 291 1375 216 
Q 1463 141 1606 141 
Q 1763 141 1841 241 
Q 1972 416 1991 781 
L 2003 2125 
z
" transform="scale(0.015625)"/>
       </defs>
       <use xlink:href="#TimesNewRomanPS-BoldMT-54"/>
       <use xlink:href="#TimesNewRomanPS-BoldMT-79" x="59.324219"/>
       <use xlink:href="#TimesNewRomanPS-BoldMT-70" x="109.324219"/>
       <use xlink:href="#TimesNewRomanPS-BoldMT-65" x="164.939453"/>
       <use xlink:href="#TimesNewRomanPS-BoldMT-20" x="209.324219"/>
       <use xlink:href="#TimesNewRomanPS-BoldMT-31" x="234.324219"/>
       <use xlink:href="#TimesNewRomanPS-BoldMT-30" x="284.324219"/>
      </g>
     </g>
    </g>
    <g id="text_11">
     <!-- CFPP Type in Uttar Pradesh -->
     <g style="fill: #262626" transform="translate(216.357938 265.339813) scale(0.216 -0.216)">
      <defs>
       <path id="TimesNewRomanPS-BoldMT-43" d="M 4272 4334 
L 4272 2866 
L 4150 2866 
Q 4013 3441 3638 3747 
Q 3263 4053 2788 4053 
Q 2391 4053 2059 3825 
Q 1728 3597 1575 3228 
Q 1378 2756 1378 2178 
Q 1378 1609 1522 1142 
Q 1666 675 1972 436 
Q 2278 197 2766 197 
Q 3166 197 3498 372 
Q 3831 547 4200 975 
L 4200 609 
Q 3844 238 3458 70 
Q 3072 -97 2556 -97 
Q 1878 -97 1351 175 
Q 825 447 539 956 
Q 253 1466 253 2041 
Q 253 2647 570 3190 
Q 888 3734 1427 4034 
Q 1966 4334 2572 4334 
Q 3019 4334 3516 4141 
Q 3803 4028 3881 4028 
Q 3981 4028 4054 4101 
Q 4128 4175 4150 4334 
L 4272 4334 
z
" transform="scale(0.015625)"/>
       <path id="TimesNewRomanPS-BoldMT-46" d="M 1759 3994 
L 1759 2253 
L 1881 2253 
Q 2163 2253 2341 2337 
Q 2519 2422 2642 2622 
Q 2766 2822 2803 3163 
L 2913 3163 
L 2913 1034 
L 2803 1034 
Q 2744 1638 2480 1830 
Q 2216 2022 1881 2022 
L 1759 2022 
L 1759 725 
Q 1759 400 1795 319 
Q 1831 238 1936 177 
Q 2041 116 2219 116 
L 2359 116 
L 2359 0 
L 144 0 
L 144 116 
L 284 116 
Q 469 116 581 181 
Q 663 225 706 331 
Q 741 406 741 725 
L 741 3513 
Q 741 3838 706 3919 
Q 672 4000 567 4061 
Q 463 4122 284 4122 
L 144 4122 
L 144 4238 
L 3719 4238 
L 3719 3022 
L 3591 3022 
Q 3547 3450 3367 3656 
Q 3188 3863 2847 3947 
Q 2659 3994 2153 3994 
L 1759 3994 
z
" transform="scale(0.015625)"/>
       <path id="TimesNewRomanPS-BoldMT-50" d="M 1728 1919 
L 1728 744 
Q 1728 400 1770 311 
Q 1813 222 1920 169 
Q 2028 116 2316 116 
L 2316 0 
L 163 0 
L 163 116 
Q 456 116 561 170 
Q 666 225 708 312 
Q 750 400 750 744 
L 750 3494 
Q 750 3838 708 3927 
Q 666 4016 559 4069 
Q 453 4122 163 4122 
L 163 4238 
L 2009 4238 
Q 2922 4238 3319 3913 
Q 3716 3588 3716 3100 
Q 3716 2688 3459 2394 
Q 3203 2100 2753 1994 
Q 2450 1919 1728 1919 
z
M 1728 3994 
L 1728 2163 
Q 1831 2156 1884 2156 
Q 2266 2156 2472 2382 
Q 2678 2609 2678 3084 
Q 2678 3556 2472 3775 
Q 2266 3994 1856 3994 
L 1728 3994 
z
" transform="scale(0.015625)"/>
       <path id="TimesNewRomanPS-BoldMT-69" d="M 919 4338 
Q 1122 4338 1262 4195 
Q 1403 4053 1403 3853 
Q 1403 3653 1261 3512 
Q 1119 3372 919 3372 
Q 719 3372 578 3512 
Q 438 3653 438 3853 
Q 438 4053 578 4195 
Q 719 4338 919 4338 
z
M 1356 2922 
L 1356 606 
Q 1356 297 1428 211 
Q 1500 125 1709 113 
L 1709 0 
L 131 0 
L 131 113 
Q 325 119 419 225 
Q 481 297 481 606 
L 481 2313 
Q 481 2622 409 2708 
Q 338 2794 131 2806 
L 131 2922 
L 1356 2922 
z
" transform="scale(0.015625)"/>
       <path id="TimesNewRomanPS-BoldMT-6e" d="M 1409 2922 
L 1409 2544 
Q 1634 2788 1840 2898 
Q 2047 3009 2284 3009 
Q 2569 3009 2756 2851 
Q 2944 2694 3006 2459 
Q 3056 2281 3056 1775 
L 3056 638 
Q 3056 300 3117 217 
Q 3178 134 3372 113 
L 3372 0 
L 1894 0 
L 1894 113 
Q 2059 134 2131 250 
Q 2181 328 2181 638 
L 2181 1938 
Q 2181 2297 2153 2390 
Q 2125 2484 2058 2536 
Q 1991 2588 1909 2588 
Q 1641 2588 1409 2203 
L 1409 638 
Q 1409 309 1470 221 
Q 1531 134 1697 113 
L 1697 0 
L 219 0 
L 219 113 
Q 403 131 481 231 
Q 534 300 534 638 
L 534 2288 
Q 534 2619 473 2700 
Q 413 2781 219 2806 
L 219 2922 
L 1409 2922 
z
" transform="scale(0.015625)"/>
       <path id="TimesNewRomanPS-BoldMT-55" d="M 150 4238 
L 2338 4238 
L 2338 4122 
L 2228 4122 
Q 1981 4122 1889 4070 
Q 1797 4019 1758 3928 
Q 1719 3838 1719 3475 
L 1719 1400 
Q 1719 831 1805 647 
Q 1891 463 2087 341 
Q 2284 219 2584 219 
Q 2928 219 3170 373 
Q 3413 528 3533 800 
Q 3653 1072 3653 1747 
L 3653 3475 
Q 3653 3759 3593 3881 
Q 3534 4003 3444 4050 
Q 3303 4122 3047 4122 
L 3047 4238 
L 4513 4238 
L 4513 4122 
L 4425 4122 
Q 4247 4122 4128 4050 
Q 4009 3978 3956 3834 
Q 3916 3734 3916 3475 
L 3916 1866 
Q 3916 1119 3817 787 
Q 3719 456 3337 178 
Q 2956 -100 2297 -100 
Q 1747 -100 1447 47 
Q 1038 247 869 559 
Q 700 872 700 1400 
L 700 3475 
Q 700 3841 659 3930 
Q 619 4019 519 4072 
Q 419 4125 150 4122 
L 150 4238 
z
" transform="scale(0.015625)"/>
       <path id="TimesNewRomanPS-BoldMT-74" d="M 1375 3991 
L 1375 2922 
L 2069 2922 
L 2069 2613 
L 1375 2613 
L 1375 809 
Q 1375 556 1398 482 
Q 1422 409 1481 364 
Q 1541 319 1591 319 
Q 1794 319 1975 628 
L 2069 559 
Q 1816 -41 1247 -41 
Q 969 -41 776 114 
Q 584 269 531 459 
Q 500 566 500 1034 
L 500 2613 
L 119 2613 
L 119 2722 
Q 513 3000 789 3306 
Q 1066 3613 1272 3991 
L 1375 3991 
z
" transform="scale(0.015625)"/>
       <path id="TimesNewRomanPS-BoldMT-61" d="M 1828 431 
Q 1294 -41 869 -41 
Q 619 -41 453 123 
Q 288 288 288 534 
Q 288 869 575 1136 
Q 863 1403 1828 1847 
L 1828 2141 
Q 1828 2472 1792 2558 
Q 1756 2644 1656 2708 
Q 1556 2772 1431 2772 
Q 1228 2772 1097 2681 
Q 1016 2625 1016 2550 
Q 1016 2484 1103 2388 
Q 1222 2253 1222 2128 
Q 1222 1975 1108 1867 
Q 994 1759 809 1759 
Q 613 1759 480 1878 
Q 347 1997 347 2156 
Q 347 2381 525 2586 
Q 703 2791 1022 2900 
Q 1341 3009 1684 3009 
Q 2100 3009 2342 2832 
Q 2584 2656 2656 2450 
Q 2700 2319 2700 1847 
L 2700 713 
Q 2700 513 2715 461 
Q 2731 409 2762 384 
Q 2794 359 2834 359 
Q 2916 359 3000 475 
L 3094 400 
Q 2938 169 2770 64 
Q 2603 -41 2391 -41 
Q 2141 -41 2000 76 
Q 1859 194 1828 431 
z
M 1828 659 
L 1828 1638 
Q 1450 1416 1266 1163 
Q 1144 994 1144 822 
Q 1144 678 1247 569 
Q 1325 484 1466 484 
Q 1622 484 1828 659 
z
" transform="scale(0.015625)"/>
       <path id="TimesNewRomanPS-BoldMT-72" d="M 1428 2922 
L 1428 2259 
Q 1719 2713 1937 2861 
Q 2156 3009 2359 3009 
Q 2534 3009 2639 2901 
Q 2744 2794 2744 2597 
Q 2744 2388 2642 2272 
Q 2541 2156 2397 2156 
Q 2231 2156 2109 2262 
Q 1988 2369 1966 2381 
Q 1934 2400 1894 2400 
Q 1803 2400 1722 2331 
Q 1594 2225 1528 2028 
Q 1428 1725 1428 1359 
L 1428 688 
L 1431 513 
Q 1431 334 1453 284 
Q 1491 200 1564 161 
Q 1638 122 1813 113 
L 1813 0 
L 234 0 
L 234 113 
Q 425 128 492 217 
Q 559 306 559 688 
L 559 2303 
Q 559 2553 534 2622 
Q 503 2709 443 2750 
Q 384 2791 234 2806 
L 234 2922 
L 1428 2922 
z
" transform="scale(0.015625)"/>
       <path id="TimesNewRomanPS-BoldMT-64" d="M 3056 4238 
L 3056 875 
Q 3056 534 3075 472 
Q 3100 369 3170 319 
Q 3241 269 3416 256 
L 3416 153 
L 2181 -88 
L 2181 375 
Q 1959 106 1786 9 
Q 1613 -88 1394 -88 
Q 834 -88 509 413 
Q 247 819 247 1409 
Q 247 1881 409 2254 
Q 572 2628 855 2818 
Q 1138 3009 1463 3009 
Q 1672 3009 1834 2928 
Q 1997 2847 2181 2644 
L 2181 3525 
Q 2181 3859 2153 3928 
Q 2116 4019 2041 4062 
Q 1966 4106 1759 4106 
L 1759 4238 
L 3056 4238 
z
M 2181 2256 
Q 1950 2700 1616 2700 
Q 1500 2700 1425 2638 
Q 1309 2541 1236 2297 
Q 1163 2053 1163 1550 
Q 1163 997 1244 731 
Q 1325 466 1466 347 
Q 1538 288 1663 288 
Q 1938 288 2181 719 
L 2181 2256 
z
" transform="scale(0.015625)"/>
       <path id="TimesNewRomanPS-BoldMT-73" d="M 2063 3003 
L 2109 2006 
L 2003 2006 
Q 1813 2450 1608 2612 
Q 1403 2775 1200 2775 
Q 1072 2775 981 2689 
Q 891 2603 891 2491 
Q 891 2406 953 2328 
Q 1053 2200 1512 1889 
Q 1972 1578 2117 1361 
Q 2263 1144 2263 875 
Q 2263 631 2141 397 
Q 2019 163 1797 37 
Q 1575 -88 1306 -88 
Q 1097 -88 747 44 
Q 653 78 619 78 
Q 516 78 447 -78 
L 344 -78 
L 294 972 
L 400 972 
Q 541 559 786 353 
Q 1031 147 1250 147 
Q 1400 147 1495 239 
Q 1591 331 1591 463 
Q 1591 613 1497 722 
Q 1403 831 1078 1053 
Q 600 1384 459 1559 
Q 253 1816 253 2125 
Q 253 2463 486 2736 
Q 719 3009 1159 3009 
Q 1397 3009 1619 2894 
Q 1703 2847 1756 2847 
Q 1813 2847 1847 2870 
Q 1881 2894 1956 3003 
L 2063 3003 
z
" transform="scale(0.015625)"/>
       <path id="TimesNewRomanPS-BoldMT-68" d="M 1409 4238 
L 1409 2547 
Q 1650 2800 1850 2904 
Q 2050 3009 2266 3009 
Q 2541 3009 2736 2853 
Q 2931 2697 2995 2486 
Q 3059 2275 3059 1775 
L 3059 634 
Q 3059 300 3121 217 
Q 3184 134 3375 113 
L 3375 0 
L 1894 0 
L 1894 113 
Q 2050 134 2128 238 
Q 2184 319 2184 634 
L 2184 1938 
Q 2184 2300 2156 2392 
Q 2128 2484 2061 2536 
Q 1994 2588 1909 2588 
Q 1784 2588 1665 2502 
Q 1547 2416 1409 2200 
L 1409 634 
Q 1409 322 1456 244 
Q 1516 138 1700 113 
L 1700 0 
L 219 0 
L 219 113 
Q 403 131 481 231 
Q 534 300 534 634 
L 534 3603 
Q 534 3934 473 4015 
Q 413 4097 219 4122 
L 219 4238 
L 1409 4238 
z
" transform="scale(0.015625)"/>
      </defs>
      <use xlink:href="#TimesNewRomanPS-BoldMT-43"/>
      <use xlink:href="#TimesNewRomanPS-BoldMT-46" x="72.216797"/>
      <use xlink:href="#TimesNewRomanPS-BoldMT-50" x="133.300781"/>
      <use xlink:href="#TimesNewRomanPS-BoldMT-50" x="194.384766"/>
      <use xlink:href="#TimesNewRomanPS-BoldMT-20" x="249.96875"/>
      <use xlink:href="#TimesNewRomanPS-BoldMT-54" x="273.21875"/>
      <use xlink:href="#TimesNewRomanPS-BoldMT-79" x="332.542969"/>
      <use xlink:href="#TimesNewRomanPS-BoldMT-70" x="382.542969"/>
      <use xlink:href="#TimesNewRomanPS-BoldMT-65" x="438.158203"/>
      <use xlink:href="#TimesNewRomanPS-BoldMT-20" x="482.542969"/>
      <use xlink:href="#TimesNewRomanPS-BoldMT-69" x="507.542969"/>
      <use xlink:href="#TimesNewRomanPS-BoldMT-6e" x="535.326172"/>
      <use xlink:href="#TimesNewRomanPS-BoldMT-20" x="590.941406"/>
      <use xlink:href="#TimesNewRomanPS-BoldMT-55" x="615.941406"/>
      <use xlink:href="#TimesNewRomanPS-BoldMT-74" x="688.158203"/>
      <use xlink:href="#TimesNewRomanPS-BoldMT-74" x="721.458984"/>
      <use xlink:href="#TimesNewRomanPS-BoldMT-61" x="754.759766"/>
      <use xlink:href="#TimesNewRomanPS-BoldMT-72" x="804.759766"/>
      <use xlink:href="#TimesNewRomanPS-BoldMT-20" x="847.394531"/>
      <use xlink:href="#TimesNewRomanPS-BoldMT-50" x="872.394531"/>
      <use xlink:href="#TimesNewRomanPS-BoldMT-72" x="933.478516"/>
      <use xlink:href="#TimesNewRomanPS-BoldMT-61" x="977.863281"/>
      <use xlink:href="#TimesNewRomanPS-BoldMT-64" x="1027.863281"/>
      <use xlink:href="#TimesNewRomanPS-BoldMT-65" x="1083.478516"/>
      <use xlink:href="#TimesNewRomanPS-BoldMT-73" x="1127.863281"/>
      <use xlink:href="#TimesNewRomanPS-BoldMT-68" x="1166.779297"/>
     </g>
    </g>
   </g>
   <g id="matplotlib.axis_2">
    <g id="ytick_1">
     <g id="line2d_11">
      <defs>
       <path id="m7bdb59193f" d="M 0 0 
L -4 0 
" style="stroke: #262626; stroke-width: 1.25"/>
      </defs>
      <g>
       <use xlink:href="#m7bdb59193f" x="599.474438" y="173.52" style="fill: #262626; stroke: #262626; stroke-width: 1.25"/>
      </g>
     </g>
     <g id="text_12">
      <!-- −300 -->
      <g style="fill: #262626" transform="translate(52.01725 179.479688) scale(0.18 -0.18)">
       <defs>
        <path id="TimesNewRomanPS-BoldMT-2212" d="M 125 2325 
L 3541 2325 
L 3541 1913 
L 125 1913 
L 125 2325 
z
" transform="scale(0.015625)"/>
       </defs>
       <use xlink:href="#TimesNewRomanPS-BoldMT-2212"/>
       <use xlink:href="#TimesNewRomanPS-BoldMT-33" x="56.982422"/>
       <use xlink:href="#TimesNewRomanPS-BoldMT-30" x="106.982422"/>
       <use xlink:href="#TimesNewRomanPS-BoldMT-30" x="156.982422"/>
      </g>
     </g>
    </g>
    <g id="ytick_2">
     <g id="line2d_12">
      <g>
       <use xlink:href="#m7bdb59193f" x="599.474438" y="139.275644" style="fill: #262626; stroke: #262626; stroke-width: 1.25"/>
      </g>
     </g>
     <g id="text_13">
      <!-- −200 -->
      <g style="fill: #262626" transform="translate(52.01725 145.235331) scale(0.18 -0.18)">
       <use xlink:href="#TimesNewRomanPS-BoldMT-2212"/>
       <use xlink:href="#TimesNewRomanPS-BoldMT-32" x="56.982422"/>
       <use xlink:href="#TimesNewRomanPS-BoldMT-30" x="106.982422"/>
       <use xlink:href="#TimesNewRomanPS-BoldMT-30" x="156.982422"/>
      </g>
     </g>
    </g>
    <g id="ytick_3">
     <g id="line2d_13">
      <g>
       <use xlink:href="#m7bdb59193f" x="599.474438" y="105.031288" style="fill: #262626; stroke: #262626; stroke-width: 1.25"/>
      </g>
     </g>
     <g id="text_14">
      <!-- −100 -->
      <g style="fill: #262626" transform="translate(52.01725 110.990975) scale(0.18 -0.18)">
       <use xlink:href="#TimesNewRomanPS-BoldMT-2212"/>
       <use xlink:href="#TimesNewRomanPS-BoldMT-31" x="56.982422"/>
       <use xlink:href="#TimesNewRomanPS-BoldMT-30" x="106.982422"/>
       <use xlink:href="#TimesNewRomanPS-BoldMT-30" x="156.982422"/>
      </g>
     </g>
    </g>
    <g id="ytick_4">
     <g id="line2d_14">
      <g>
       <use xlink:href="#m7bdb59193f" x="599.474438" y="70.786932" style="fill: #262626; stroke: #262626; stroke-width: 1.25"/>
      </g>
     </g>
     <g id="text_15">
      <!-- 0 -->
      <g style="fill: #262626" transform="translate(80.274437 76.746619) scale(0.18 -0.18)">
       <use xlink:href="#TimesNewRomanPS-BoldMT-30"/>
      </g>
     </g>
    </g>
    <g id="ytick_5">
     <g id="line2d_15">
      <g>
       <use xlink:href="#m7bdb59193f" x="599.474438" y="36.542576" style="fill: #262626; stroke: #262626; stroke-width: 1.25"/>
      </g>
     </g>
     <g id="text_16">
      <!-- 100 -->
      <g style="fill: #262626" transform="translate(62.274437 42.502263) scale(0.18 -0.18)">
       <use xlink:href="#TimesNewRomanPS-BoldMT-31"/>
       <use xlink:href="#TimesNewRomanPS-BoldMT-30" x="50"/>
       <use xlink:href="#TimesNewRomanPS-BoldMT-30" x="100"/>
      </g>
     </g>
    </g>
    <g id="text_17">
     <!-- Annual Cost and Revenue  -->
     <g style="fill: #262626" transform="translate(21.50325 213.382125) rotate(-90) scale(0.216 -0.216)">
      <defs>
       <path id="TimesNewRomanPS-BoldMT-41" d="M 2663 1206 
L 1166 1206 
L 988 794 
Q 900 588 900 453 
Q 900 275 1044 191 
Q 1128 141 1459 116 
L 1459 0 
L 50 0 
L 50 116 
Q 278 150 425 304 
Q 572 459 788 944 
L 2303 4325 
L 2363 4325 
L 3891 850 
Q 4109 356 4250 228 
Q 4356 131 4550 116 
L 4550 0 
L 2500 0 
L 2500 116 
L 2584 116 
Q 2831 116 2931 184 
Q 3000 234 3000 328 
Q 3000 384 2981 444 
Q 2975 472 2888 678 
L 2663 1206 
z
M 2556 1438 
L 1925 2897 
L 1275 1438 
L 2556 1438 
z
" transform="scale(0.015625)"/>
       <path id="TimesNewRomanPS-BoldMT-75" d="M 3038 2922 
L 3038 634 
Q 3038 300 3100 217 
Q 3163 134 3353 113 
L 3353 0 
L 2163 0 
L 2163 391 
Q 1953 141 1743 26 
Q 1534 -88 1275 -88 
Q 1028 -88 836 64 
Q 644 216 578 419 
Q 513 622 513 1128 
L 513 2288 
Q 513 2619 452 2700 
Q 391 2781 197 2806 
L 197 2922 
L 1388 2922 
L 1388 925 
Q 1388 613 1417 522 
Q 1447 431 1511 384 
Q 1575 338 1659 338 
Q 1772 338 1863 397 
Q 1988 478 2163 725 
L 2163 2288 
Q 2163 2619 2102 2700 
Q 2041 2781 1847 2806 
L 1847 2922 
L 3038 2922 
z
" transform="scale(0.015625)"/>
       <path id="TimesNewRomanPS-BoldMT-6c" d="M 1359 4238 
L 1359 606 
Q 1359 297 1431 211 
Q 1503 125 1713 113 
L 1713 0 
L 134 0 
L 134 113 
Q 328 119 422 225 
Q 484 297 484 606 
L 484 3631 
Q 484 3938 412 4023 
Q 341 4109 134 4122 
L 134 4238 
L 1359 4238 
z
" transform="scale(0.015625)"/>
       <path id="TimesNewRomanPS-BoldMT-6f" d="M 1594 3009 
Q 1975 3009 2303 2812 
Q 2631 2616 2801 2253 
Q 2972 1891 2972 1459 
Q 2972 838 2656 419 
Q 2275 -88 1603 -88 
Q 944 -88 587 375 
Q 231 838 231 1447 
Q 231 2075 595 2542 
Q 959 3009 1594 3009 
z
M 1606 2788 
Q 1447 2788 1333 2667 
Q 1219 2547 1183 2192 
Q 1147 1838 1147 1206 
Q 1147 872 1191 581 
Q 1225 359 1337 243 
Q 1450 128 1594 128 
Q 1734 128 1828 206 
Q 1950 313 1991 503 
Q 2053 800 2053 1703 
Q 2053 2234 1993 2432 
Q 1934 2631 1819 2722 
Q 1738 2788 1606 2788 
z
" transform="scale(0.015625)"/>
       <path id="TimesNewRomanPS-BoldMT-52" d="M 1700 1931 
L 1700 744 
Q 1700 400 1742 311 
Q 1784 222 1890 169 
Q 1997 116 2288 116 
L 2288 0 
L 119 0 
L 119 116 
Q 413 116 517 170 
Q 622 225 664 312 
Q 706 400 706 744 
L 706 3494 
Q 706 3838 664 3927 
Q 622 4016 515 4069 
Q 409 4122 119 4122 
L 119 4238 
L 2088 4238 
Q 2856 4238 3212 4131 
Q 3569 4025 3794 3739 
Q 4019 3453 4019 3069 
Q 4019 2600 3681 2294 
Q 3466 2100 3078 2003 
L 4097 569 
Q 4297 291 4381 222 
Q 4509 125 4678 116 
L 4678 0 
L 3344 0 
L 1978 1931 
L 1700 1931 
z
M 1700 4009 
L 1700 2153 
L 1878 2153 
Q 2313 2153 2528 2233 
Q 2744 2313 2867 2520 
Q 2991 2728 2991 3063 
Q 2991 3547 2764 3778 
Q 2538 4009 2034 4009 
L 1700 4009 
z
" transform="scale(0.015625)"/>
       <path id="TimesNewRomanPS-BoldMT-76" d="M 1534 -88 
L 550 2178 
Q 372 2588 272 2697 
Q 200 2778 59 2806 
L 59 2922 
L 1613 2922 
L 1613 2806 
Q 1466 2806 1413 2753 
Q 1338 2684 1338 2591 
Q 1338 2475 1475 2156 
L 1956 1059 
L 2341 2006 
Q 2506 2413 2506 2581 
Q 2506 2678 2436 2739 
Q 2366 2800 2188 2806 
L 2188 2922 
L 3144 2922 
L 3144 2806 
Q 3006 2788 2918 2703 
Q 2831 2619 2656 2206 
L 1681 -88 
L 1534 -88 
z
" transform="scale(0.015625)"/>
      </defs>
      <use xlink:href="#TimesNewRomanPS-BoldMT-41"/>
      <use xlink:href="#TimesNewRomanPS-BoldMT-6e" x="72.216797"/>
      <use xlink:href="#TimesNewRomanPS-BoldMT-6e" x="127.832031"/>
      <use xlink:href="#TimesNewRomanPS-BoldMT-75" x="183.447266"/>
      <use xlink:href="#TimesNewRomanPS-BoldMT-61" x="239.0625"/>
      <use xlink:href="#TimesNewRomanPS-BoldMT-6c" x="289.0625"/>
      <use xlink:href="#TimesNewRomanPS-BoldMT-20" x="316.845703"/>
      <use xlink:href="#TimesNewRomanPS-BoldMT-43" x="341.845703"/>
      <use xlink:href="#TimesNewRomanPS-BoldMT-6f" x="414.0625"/>
      <use xlink:href="#TimesNewRomanPS-BoldMT-73" x="464.0625"/>
      <use xlink:href="#TimesNewRomanPS-BoldMT-74" x="502.978516"/>
      <use xlink:href="#TimesNewRomanPS-BoldMT-20" x="536.279297"/>
      <use xlink:href="#TimesNewRomanPS-BoldMT-61" x="561.279297"/>
      <use xlink:href="#TimesNewRomanPS-BoldMT-6e" x="611.279297"/>
      <use xlink:href="#TimesNewRomanPS-BoldMT-64" x="666.894531"/>
      <use xlink:href="#TimesNewRomanPS-BoldMT-20" x="722.509766"/>
      <use xlink:href="#TimesNewRomanPS-BoldMT-52" x="747.509766"/>
      <use xlink:href="#TimesNewRomanPS-BoldMT-65" x="819.726562"/>
      <use xlink:href="#TimesNewRomanPS-BoldMT-76" x="864.111328"/>
      <use xlink:href="#TimesNewRomanPS-BoldMT-65" x="914.111328"/>
      <use xlink:href="#TimesNewRomanPS-BoldMT-6e" x="958.496094"/>
      <use xlink:href="#TimesNewRomanPS-BoldMT-75" x="1014.111328"/>
      <use xlink:href="#TimesNewRomanPS-BoldMT-65" x="1069.726562"/>
      <use xlink:href="#TimesNewRomanPS-BoldMT-20" x="1114.111328"/>
     </g>
     <!--   ($/MWh) -->
     <g style="fill: #262626" transform="translate(43.396875 138.3525) rotate(-90) scale(0.216 -0.216)">
      <defs>
       <path id="TimesNewRomanPS-BoldMT-28" d="M 2056 4334 
L 2056 4191 
Q 1731 3978 1578 3775 
Q 1366 3494 1247 3053 
Q 1097 2506 1097 1525 
Q 1097 600 1233 87 
Q 1369 -425 1603 -741 
Q 1766 -959 2056 -1125 
L 2056 -1281 
Q 1303 -1028 779 -248 
Q 256 531 256 1544 
Q 256 2544 778 3314 
Q 1300 4084 2056 4334 
z
" transform="scale(0.015625)"/>
       <path id="TimesNewRomanPS-BoldMT-24" d="M 1769 2609 
Q 2516 2138 2722 1897 
Q 2997 1572 2997 1131 
Q 2997 650 2672 317 
Q 2347 -16 1769 -66 
L 1769 -431 
L 1497 -431 
L 1497 -88 
Q 1166 -81 909 -32 
Q 653 16 322 144 
L 322 1153 
L 453 1153 
Q 516 809 650 596 
Q 784 384 989 276 
Q 1194 169 1497 144 
L 1497 1688 
Q 744 2159 495 2442 
Q 247 2725 247 3100 
Q 247 3506 559 3817 
Q 872 4128 1497 4206 
L 1497 4353 
L 1769 4353 
L 1769 4206 
Q 2300 4169 2838 3878 
L 2838 2975 
L 2716 2975 
Q 2625 3281 2498 3478 
Q 2372 3675 2172 3816 
Q 2019 3919 1769 3988 
L 1769 2609 
z
M 1497 3997 
Q 1269 3978 1131 3872 
Q 913 3706 913 3472 
Q 913 3328 1014 3181 
Q 1116 3034 1497 2781 
L 1497 3997 
z
M 1769 144 
Q 2038 206 2163 357 
Q 2288 509 2288 738 
Q 2288 934 2177 1106 
Q 2066 1278 1769 1497 
L 1769 144 
z
" transform="scale(0.015625)"/>
       <path id="TimesNewRomanPS-BoldMT-2f" d="M 1797 4334 
L 406 -97 
L 6 -97 
L 1403 4334 
L 1797 4334 
z
" transform="scale(0.015625)"/>
       <path id="TimesNewRomanPS-BoldMT-4d" d="M 3050 1444 
L 4200 4238 
L 5925 4238 
L 5925 4122 
L 5788 4122 
Q 5600 4122 5488 4056 
Q 5409 4013 5363 3909 
Q 5328 3834 5328 3519 
L 5328 725 
Q 5328 400 5362 319 
Q 5397 238 5503 177 
Q 5609 116 5788 116 
L 5925 116 
L 5925 0 
L 3713 0 
L 3713 116 
L 3850 116 
Q 4038 116 4150 181 
Q 4228 225 4275 331 
Q 4309 406 4309 725 
L 4309 3866 
L 2684 0 
L 2609 0 
L 959 3838 
L 959 853 
Q 959 541 975 469 
Q 1016 313 1152 214 
Q 1288 116 1578 116 
L 1578 0 
L 128 0 
L 128 116 
L 172 116 
Q 313 113 434 161 
Q 556 209 618 290 
Q 681 372 716 519 
Q 722 553 722 838 
L 722 3519 
Q 722 3841 687 3920 
Q 653 4000 547 4061 
Q 441 4122 263 4122 
L 128 4122 
L 128 4238 
L 1859 4238 
L 3050 1444 
z
" transform="scale(0.015625)"/>
       <path id="TimesNewRomanPS-BoldMT-57" d="M 6344 4238 
L 6344 4122 
Q 6225 4113 6144 4056 
Q 6063 4000 6000 3884 
Q 5981 3847 5803 3400 
L 4475 -97 
L 4353 -97 
L 3303 2634 
L 2147 -97 
L 2031 -97 
L 638 3363 
Q 425 3884 340 3993 
Q 256 4103 56 4122 
L 56 4238 
L 1894 4238 
L 1894 4122 
Q 1672 4116 1598 4055 
Q 1525 3994 1525 3903 
Q 1525 3784 1678 3400 
L 2509 1344 
L 3175 2950 
L 3000 3400 
Q 2856 3769 2778 3892 
Q 2700 4016 2598 4069 
Q 2497 4122 2300 4122 
L 2300 4238 
L 4353 4238 
L 4353 4122 
Q 4138 4119 4044 4088 
Q 3978 4066 3940 4014 
Q 3903 3963 3903 3897 
Q 3903 3825 4044 3456 
L 4816 1450 
L 5506 3266 
Q 5616 3547 5641 3650 
Q 5666 3753 5666 3841 
Q 5666 3969 5578 4042 
Q 5491 4116 5244 4122 
L 5244 4238 
L 6344 4238 
z
" transform="scale(0.015625)"/>
       <path id="TimesNewRomanPS-BoldMT-29" d="M 78 -1281 
L 78 -1138 
Q 403 -922 556 -719 
Q 766 -438 888 0 
Q 1038 550 1038 1531 
Q 1038 2456 902 2967 
Q 766 3478 531 3794 
Q 369 4013 78 4178 
L 78 4334 
Q 831 4081 1354 3301 
Q 1878 2522 1878 1509 
Q 1878 513 1354 -257 
Q 831 -1028 78 -1281 
z
" transform="scale(0.015625)"/>
      </defs>
      <use xlink:href="#TimesNewRomanPS-BoldMT-20"/>
      <use xlink:href="#TimesNewRomanPS-BoldMT-20" x="25"/>
      <use xlink:href="#TimesNewRomanPS-BoldMT-28" x="50"/>
      <use xlink:href="#TimesNewRomanPS-BoldMT-24" x="83.300781"/>
      <use xlink:href="#TimesNewRomanPS-BoldMT-2f" x="133.300781"/>
      <use xlink:href="#TimesNewRomanPS-BoldMT-4d" x="161.083984"/>
      <use xlink:href="#TimesNewRomanPS-BoldMT-57" x="255.46875"/>
      <use xlink:href="#TimesNewRomanPS-BoldMT-68" x="355.46875"/>
      <use xlink:href="#TimesNewRomanPS-BoldMT-29" x="411.083984"/>
     </g>
    </g>
   </g>
   <g id="patch_3">
    <path d="M 109.463758 70.786932 
L 148.469583 70.786932 
L 148.469583 72.786137 
L 109.463758 72.786137 
z
" clip-path="url(#pc541705f5e)" style="fill: #1f77b4; stroke: #ffffff; stroke-linejoin: miter"/>
   </g>
   <g id="patch_4">
    <path d="M 158.221039 70.786932 
L 197.226865 70.786932 
L 197.226865 72.697665 
L 158.221039 72.697665 
z
" clip-path="url(#pc541705f5e)" style="fill: #1f77b4; stroke: #ffffff; stroke-linejoin: miter"/>
   </g>
   <g id="patch_5">
    <path d="M 206.978321 70.786932 
L 245.984146 70.786932 
L 245.984146 72.688781 
L 206.978321 72.688781 
z
" clip-path="url(#pc541705f5e)" style="fill: #1f77b4; stroke: #ffffff; stroke-linejoin: miter"/>
   </g>
   <g id="patch_6">
    <path d="M 255.735603 70.786932 
L 294.741428 70.786932 
L 294.741428 72.993654 
L 255.735603 72.993654 
z
" clip-path="url(#pc541705f5e)" style="fill: #1f77b4; stroke: #ffffff; stroke-linejoin: miter"/>
   </g>
   <g id="patch_7">
    <path d="M 304.492884 70.786932 
L 343.498709 70.786932 
L 343.498709 72.687662 
L 304.492884 72.687662 
z
" clip-path="url(#pc541705f5e)" style="fill: #1f77b4; stroke: #ffffff; stroke-linejoin: miter"/>
   </g>
   <g id="patch_8">
    <path d="M 353.250166 70.786932 
L 392.255991 70.786932 
L 392.255991 72.678928 
L 353.250166 72.678928 
z
" clip-path="url(#pc541705f5e)" style="fill: #1f77b4; stroke: #ffffff; stroke-linejoin: miter"/>
   </g>
   <g id="patch_9">
    <path d="M 402.007447 70.786932 
L 441.013272 70.786932 
L 441.013272 72.180109 
L 402.007447 72.180109 
z
" clip-path="url(#pc541705f5e)" style="fill: #1f77b4; stroke: #ffffff; stroke-linejoin: miter"/>
   </g>
   <g id="patch_10">
    <path d="M 450.764729 70.786932 
L 489.770554 70.786932 
L 489.770554 71.70994 
L 450.764729 71.70994 
z
" clip-path="url(#pc541705f5e)" style="fill: #1f77b4; stroke: #ffffff; stroke-linejoin: miter"/>
   </g>
   <g id="patch_11">
    <path d="M 499.52201 70.786932 
L 538.527836 70.786932 
L 538.527836 71.563474 
L 499.52201 71.563474 
z
" clip-path="url(#pc541705f5e)" style="fill: #1f77b4; stroke: #ffffff; stroke-linejoin: miter"/>
   </g>
   <g id="patch_12">
    <path d="M 548.279292 70.786932 
L 587.285117 70.786932 
L 587.285117 71.487071 
L 548.279292 71.487071 
z
" clip-path="url(#pc541705f5e)" style="fill: #1f77b4; stroke: #ffffff; stroke-linejoin: miter"/>
   </g>
   <g id="patch_13">
    <path d="M 109.463758 72.786137 
L 148.469583 72.786137 
L 148.469583 95.465913 
L 109.463758 95.465913 
z
" clip-path="url(#pc541705f5e)" style="fill: #2ca02c; stroke: #ffffff; stroke-linejoin: miter"/>
   </g>
   <g id="patch_14">
    <path d="M 158.221039 72.697665 
L 197.226865 72.697665 
L 197.226865 95.335635 
L 158.221039 95.335635 
z
" clip-path="url(#pc541705f5e)" style="fill: #2ca02c; stroke: #ffffff; stroke-linejoin: miter"/>
   </g>
   <g id="patch_15">
    <path d="M 206.978321 72.688781 
L 245.984146 72.688781 
L 245.984146 95.406239 
L 206.978321 95.406239 
z
" clip-path="url(#pc541705f5e)" style="fill: #2ca02c; stroke: #ffffff; stroke-linejoin: miter"/>
   </g>
   <g id="patch_16">
    <path d="M 255.735603 72.993654 
L 294.741428 72.993654 
L 294.741428 95.420042 
L 255.735603 95.420042 
z
" clip-path="url(#pc541705f5e)" style="fill: #2ca02c; stroke: #ffffff; stroke-linejoin: miter"/>
   </g>
   <g id="patch_17">
    <path d="M 304.492884 72.687662 
L 343.498709 72.687662 
L 343.498709 95.454333 
L 304.492884 95.454333 
z
" clip-path="url(#pc541705f5e)" style="fill: #2ca02c; stroke: #ffffff; stroke-linejoin: miter"/>
   </g>
   <g id="patch_18">
    <path d="M 353.250166 72.678928 
L 392.255991 72.678928 
L 392.255991 95.310933 
L 353.250166 95.310933 
z
" clip-path="url(#pc541705f5e)" style="fill: #2ca02c; stroke: #ffffff; stroke-linejoin: miter"/>
   </g>
   <g id="patch_19">
    <path d="M 402.007447 72.180109 
L 441.013272 72.180109 
L 441.013272 95.93606 
L 402.007447 95.93606 
z
" clip-path="url(#pc541705f5e)" style="fill: #2ca02c; stroke: #ffffff; stroke-linejoin: miter"/>
   </g>
   <g id="patch_20">
    <path d="M 450.764729 71.70994 
L 489.770554 71.70994 
L 489.770554 97.228712 
L 450.764729 97.228712 
z
" clip-path="url(#pc541705f5e)" style="fill: #2ca02c; stroke: #ffffff; stroke-linejoin: miter"/>
   </g>
   <g id="patch_21">
    <path d="M 499.52201 71.563474 
L 538.527836 71.563474 
L 538.527836 98.04228 
L 499.52201 98.04228 
z
" clip-path="url(#pc541705f5e)" style="fill: #2ca02c; stroke: #ffffff; stroke-linejoin: miter"/>
   </g>
   <g id="patch_22">
    <path d="M 548.279292 71.487071 
L 587.285117 71.487071 
L 587.285117 98.320601 
L 548.279292 98.320601 
z
" clip-path="url(#pc541705f5e)" style="fill: #2ca02c; stroke: #ffffff; stroke-linejoin: miter"/>
   </g>
   <g id="patch_23">
    <path d="M 109.463758 95.465913 
L 148.469583 95.465913 
L 148.469583 146.62758 
L 109.463758 146.62758 
z
" clip-path="url(#pc541705f5e)" style="fill: #8c564b; stroke: #ffffff; stroke-linejoin: miter"/>
   </g>
   <g id="patch_24">
    <path d="M 158.221039 95.335635 
L 197.226865 95.335635 
L 197.226865 140.878625 
L 158.221039 140.878625 
z
" clip-path="url(#pc541705f5e)" style="fill: #8c564b; stroke: #ffffff; stroke-linejoin: miter"/>
   </g>
   <g id="patch_25">
    <path d="M 206.978321 95.406239 
L 245.984146 95.406239 
L 245.984146 138.7221 
L 206.978321 138.7221 
z
" clip-path="url(#pc541705f5e)" style="fill: #8c564b; stroke: #ffffff; stroke-linejoin: miter"/>
   </g>
   <g id="patch_26">
    <path d="M 255.735603 95.420042 
L 294.741428 95.420042 
L 294.741428 130.886714 
L 255.735603 130.886714 
z
" clip-path="url(#pc541705f5e)" style="fill: #8c564b; stroke: #ffffff; stroke-linejoin: miter"/>
   </g>
   <g id="patch_27">
    <path d="M 304.492884 95.454333 
L 343.498709 95.454333 
L 343.498709 127.569172 
L 304.492884 127.569172 
z
" clip-path="url(#pc541705f5e)" style="fill: #8c564b; stroke: #ffffff; stroke-linejoin: miter"/>
   </g>
   <g id="patch_28">
    <path d="M 353.250166 95.310933 
L 392.255991 95.310933 
L 392.255991 123.054529 
L 353.250166 123.054529 
z
" clip-path="url(#pc541705f5e)" style="fill: #8c564b; stroke: #ffffff; stroke-linejoin: miter"/>
   </g>
   <g id="patch_29">
    <path d="M 402.007447 95.93606 
L 441.013272 95.93606 
L 441.013272 119.870763 
L 402.007447 119.870763 
z
" clip-path="url(#pc541705f5e)" style="fill: #8c564b; stroke: #ffffff; stroke-linejoin: miter"/>
   </g>
   <g id="patch_30">
    <path d="M 450.764729 97.228712 
L 489.770554 97.228712 
L 489.770554 118.392636 
L 450.764729 118.392636 
z
" clip-path="url(#pc541705f5e)" style="fill: #8c564b; stroke: #ffffff; stroke-linejoin: miter"/>
   </g>
   <g id="patch_31">
    <path d="M 499.52201 98.04228 
L 538.527836 98.04228 
L 538.527836 113.377082 
L 499.52201 113.377082 
z
" clip-path="url(#pc541705f5e)" style="fill: #8c564b; stroke: #ffffff; stroke-linejoin: miter"/>
   </g>
   <g id="patch_32">
    <path d="M 548.279292 98.320601 
L 587.285117 98.320601 
L 587.285117 107.339479 
L 548.279292 107.339479 
z
" clip-path="url(#pc541705f5e)" style="fill: #8c564b; stroke: #ffffff; stroke-linejoin: miter"/>
   </g>
   <g id="patch_33">
    <path d="M 109.463758 70.786932 
L 148.469583 70.786932 
L 148.469583 18.11938 
L 109.463758 18.11938 
z
" clip-path="url(#pc541705f5e)" style="fill: #7f7f7f; stroke: #ffffff; stroke-linejoin: miter"/>
   </g>
   <g id="patch_34">
    <path d="M 158.221039 70.786932 
L 197.226865 70.786932 
L 197.226865 18.000436 
L 158.221039 18.000436 
z
" clip-path="url(#pc541705f5e)" style="fill: #7f7f7f; stroke: #ffffff; stroke-linejoin: miter"/>
   </g>
   <g id="patch_35">
    <path d="M 206.978321 70.786932 
L 245.984146 70.786932 
L 245.984146 17.053569 
L 206.978321 17.053569 
z
" clip-path="url(#pc541705f5e)" style="fill: #7f7f7f; stroke: #ffffff; stroke-linejoin: miter"/>
   </g>
   <g id="patch_36">
    <path d="M 255.735603 70.786932 
L 294.741428 70.786932 
L 294.741428 19.321506 
L 255.735603 19.321506 
z
" clip-path="url(#pc541705f5e)" style="fill: #7f7f7f; stroke: #ffffff; stroke-linejoin: miter"/>
   </g>
   <g id="patch_37">
    <path d="M 304.492884 70.786932 
L 343.498709 70.786932 
L 343.498709 17.782293 
L 304.492884 17.782293 
z
" clip-path="url(#pc541705f5e)" style="fill: #7f7f7f; stroke: #ffffff; stroke-linejoin: miter"/>
   </g>
   <g id="patch_38">
    <path d="M 353.250166 70.786932 
L 392.255991 70.786932 
L 392.255991 17.638391 
L 353.250166 17.638391 
z
" clip-path="url(#pc541705f5e)" style="fill: #7f7f7f; stroke: #ffffff; stroke-linejoin: miter"/>
   </g>
   <g id="patch_39">
    <path d="M 402.007447 70.786932 
L 441.013272 70.786932 
L 441.013272 17.220842 
L 402.007447 17.220842 
z
" clip-path="url(#pc541705f5e)" style="fill: #7f7f7f; stroke: #ffffff; stroke-linejoin: miter"/>
   </g>
   <g id="patch_40">
    <path d="M 450.764729 70.786932 
L 489.770554 70.786932 
L 489.770554 15.303514 
L 450.764729 15.303514 
z
" clip-path="url(#pc541705f5e)" style="fill: #7f7f7f; stroke: #ffffff; stroke-linejoin: miter"/>
   </g>
   <g id="patch_41">
    <path d="M 499.52201 70.786932 
L 538.527836 70.786932 
L 538.527836 15.418238 
L 499.52201 15.418238 
z
" clip-path="url(#pc541705f5e)" style="fill: #7f7f7f; stroke: #ffffff; stroke-linejoin: miter"/>
   </g>
   <g id="patch_42">
    <path d="M 548.279292 70.786932 
L 587.285117 70.786932 
L 587.285117 15.798774 
L 548.279292 15.798774 
z
" clip-path="url(#pc541705f5e)" style="fill: #7f7f7f; stroke: #ffffff; stroke-linejoin: miter"/>
   </g>
   <g id="patch_43">
    <path d="M 109.463758 146.62758 
L 148.469583 146.62758 
L 148.469583 177.373789 
L 109.463758 177.373789 
z
" clip-path="url(#pc541705f5e)" style="fill: #17becf; stroke: #ffffff; stroke-linejoin: miter"/>
   </g>
   <g id="patch_44">
    <path d="M 158.221039 140.878625 
L 197.226865 140.878625 
L 197.226865 171.289276 
L 158.221039 171.289276 
z
" clip-path="url(#pc541705f5e)" style="fill: #17becf; stroke: #ffffff; stroke-linejoin: miter"/>
   </g>
   <g id="patch_45">
    <path d="M 206.978321 138.7221 
L 245.984146 138.7221 
L 245.984146 170.467912 
L 206.978321 170.467912 
z
" clip-path="url(#pc541705f5e)" style="fill: #17becf; stroke: #ffffff; stroke-linejoin: miter"/>
   </g>
   <g id="patch_46">
    <path d="M 255.735603 130.886714 
L 294.741428 130.886714 
L 294.741428 160.498979 
L 255.735603 160.498979 
z
" clip-path="url(#pc541705f5e)" style="fill: #17becf; stroke: #ffffff; stroke-linejoin: miter"/>
   </g>
   <g id="patch_47">
    <path d="M 304.492884 127.569172 
L 343.498709 127.569172 
L 343.498709 158.176518 
L 304.492884 158.176518 
z
" clip-path="url(#pc541705f5e)" style="fill: #17becf; stroke: #ffffff; stroke-linejoin: miter"/>
   </g>
   <g id="patch_48">
    <path d="M 353.250166 123.054529 
L 392.255991 123.054529 
L 392.255991 153.883933 
L 353.250166 153.883933 
z
" clip-path="url(#pc541705f5e)" style="fill: #17becf; stroke: #ffffff; stroke-linejoin: miter"/>
   </g>
   <g id="patch_49">
    <path d="M 402.007447 119.870763 
L 441.013272 119.870763 
L 441.013272 142.044147 
L 402.007447 142.044147 
z
" clip-path="url(#pc541705f5e)" style="fill: #17becf; stroke: #ffffff; stroke-linejoin: miter"/>
   </g>
   <g id="patch_50">
    <path d="M 450.764729 118.392636 
L 489.770554 118.392636 
L 489.770554 135.23753 
L 450.764729 135.23753 
z
" clip-path="url(#pc541705f5e)" style="fill: #17becf; stroke: #ffffff; stroke-linejoin: miter"/>
   </g>
   <g id="patch_51">
    <path d="M 499.52201 113.377082 
L 538.527836 113.377082 
L 538.527836 127.548984 
L 499.52201 127.548984 
z
" clip-path="url(#pc541705f5e)" style="fill: #17becf; stroke: #ffffff; stroke-linejoin: miter"/>
   </g>
   <g id="patch_52">
    <path d="M 548.279292 107.339479 
L 587.285117 107.339479 
L 587.285117 120.289683 
L 548.279292 120.289683 
z
" clip-path="url(#pc541705f5e)" style="fill: #17becf; stroke: #ffffff; stroke-linejoin: miter"/>
   </g>
   <g id="PathCollection_1">
    <defs>
     <path id="m61caccb195" d="M 0 2.738613 
C 0.726289 2.738613 1.422928 2.450055 1.936492 1.936492 
C 2.450055 1.422928 2.738613 0.726289 2.738613 0 
C 2.738613 -0.726289 2.450055 -1.422928 1.936492 -1.936492 
C 1.422928 -2.450055 0.726289 -2.738613 0 -2.738613 
C -0.726289 -2.738613 -1.422928 -2.450055 -1.936492 -1.936492 
C -2.450055 -1.422928 -2.738613 -0.726289 -2.738613 0 
C -2.738613 0.726289 -2.450055 1.422928 -1.936492 1.936492 
C -1.422928 2.450055 -0.726289 2.738613 0 2.738613 
z
" style="stroke: #ffd700"/>
    </defs>
    <g clip-path="url(#pc541705f5e)">
     <use xlink:href="#m61caccb195" x="226.481234" y="124.706236" style="fill: #ffd700; stroke: #ffd700"/>
     <use xlink:href="#m61caccb195" x="372.753078" y="118.50278" style="fill: #ffd700; stroke: #ffd700"/>
     <use xlink:href="#m61caccb195" x="323.995797" y="116.734549" style="fill: #ffd700; stroke: #ffd700"/>
     <use xlink:href="#m61caccb195" x="275.238515" y="109.033554" style="fill: #ffd700; stroke: #ffd700"/>
     <use xlink:href="#m61caccb195" x="128.966671" y="105.171879" style="fill: #ffd700; stroke: #ffd700"/>
     <use xlink:href="#m61caccb195" x="177.723952" y="100.735392" style="fill: #ffd700; stroke: #ffd700"/>
     <use xlink:href="#m61caccb195" x="421.51036" y="88.478057" style="fill: #ffd700; stroke: #ffd700"/>
     <use xlink:href="#m61caccb195" x="470.267641" y="79.754112" style="fill: #ffd700; stroke: #ffd700"/>
     <use xlink:href="#m61caccb195" x="519.024923" y="72.18029" style="fill: #ffd700; stroke: #ffd700"/>
     <use xlink:href="#m61caccb195" x="567.782204" y="65.301526" style="fill: #ffd700; stroke: #ffd700"/>
    </g>
   </g>
   <g id="line2d_16">
    <path d="M 97.274437 70.786932 
L 599.474438 70.786932 
" clip-path="url(#pc541705f5e)" style="fill: none; stroke-dasharray: 1.5,2.475; stroke-dashoffset: 0; stroke: #000000; stroke-opacity: 0.4; stroke-width: 1.5"/>
   </g>
   <g id="patch_53">
    <path d="M 97.274437 173.52 
L 97.274437 7.2 
" style="fill: none; stroke: #262626; stroke-width: 1.25; stroke-linejoin: miter; stroke-linecap: square"/>
   </g>
   <g id="patch_54">
    <path d="M 599.474438 173.52 
L 599.474438 7.2 
" style="fill: none; stroke: #262626; stroke-width: 1.25; stroke-linejoin: miter; stroke-linecap: square"/>
   </g>
   <g id="patch_55">
    <path d="M 97.274437 173.52 
L 599.474438 173.52 
" style="fill: none; stroke: #262626; stroke-width: 1.25; stroke-linejoin: miter; stroke-linecap: square"/>
   </g>
   <g id="patch_56">
    <path d="M 97.274437 7.2 
L 599.474438 7.2 
" style="fill: none; stroke: #262626; stroke-width: 1.25; stroke-linejoin: miter; stroke-linecap: square"/>
   </g>
   <g id="legend_1">
    <g id="patch_57">
     <path d="M 609.445688 146.479687 
L 814.964438 146.479687 
Q 817.964438 146.479687 817.964438 143.479687 
L 817.964438 17.7 
Q 817.964438 14.7 814.964438 14.7 
L 609.445688 14.7 
Q 606.445688 14.7 606.445688 17.7 
L 606.445688 143.479687 
Q 606.445688 146.479687 609.445688 146.479687 
z
" style="fill: #ffffff; opacity: 0.8; stroke: #cccccc; stroke-linejoin: miter"/>
    </g>
    <g id="PathCollection_2">
     <g>
      <use xlink:href="#m61caccb195" x="627.445688" y="27.2625" style="fill: #ffd700; stroke: #ffd700"/>
     </g>
    </g>
    <g id="text_18">
     <!-- Profit -->
     <g style="fill: #262626" transform="translate(654.445688 31.2) scale(0.15 -0.15)">
      <defs>
       <path id="TimesNewRomanPS-BoldMT-66" d="M 1497 2616 
L 1497 588 
Q 1497 294 1559 219 
Q 1659 103 1928 113 
L 1928 0 
L 206 0 
L 206 113 
Q 403 116 486 158 
Q 569 200 600 275 
Q 631 350 631 588 
L 631 2616 
L 206 2616 
L 206 2922 
L 631 2922 
L 631 3138 
L 628 3284 
Q 628 3734 958 4034 
Q 1288 4334 1850 4334 
Q 2234 4334 2420 4190 
Q 2606 4047 2606 3872 
Q 2606 3731 2490 3628 
Q 2375 3525 2184 3525 
Q 2022 3525 1926 3609 
Q 1831 3694 1831 3797 
Q 1831 3825 1850 3913 
Q 1863 3966 1863 4013 
Q 1863 4078 1825 4109 
Q 1775 4156 1703 4156 
Q 1613 4156 1552 4081 
Q 1491 4006 1491 3841 
L 1497 3294 
L 1497 2922 
L 1928 2922 
L 1928 2616 
L 1497 2616 
z
" transform="scale(0.015625)"/>
      </defs>
      <use xlink:href="#TimesNewRomanPS-BoldMT-50"/>
      <use xlink:href="#TimesNewRomanPS-BoldMT-72" x="61.083984"/>
      <use xlink:href="#TimesNewRomanPS-BoldMT-6f" x="103.71875"/>
      <use xlink:href="#TimesNewRomanPS-BoldMT-66" x="153.71875"/>
      <use xlink:href="#TimesNewRomanPS-BoldMT-69" x="187.019531"/>
      <use xlink:href="#TimesNewRomanPS-BoldMT-74" x="214.802734"/>
     </g>
    </g>
    <g id="patch_58">
     <path d="M 612.445688 52.408594 
L 642.445688 52.408594 
L 642.445688 41.908594 
L 612.445688 41.908594 
z
" style="fill: #17becf; stroke: #ffffff; stroke-linejoin: miter"/>
    </g>
    <g id="text_19">
     <!-- Fixed O&amp;M Cost -->
     <g style="fill: #262626" transform="translate(654.445688 52.408594) scale(0.15 -0.15)">
      <defs>
       <path id="TimesNewRomanPS-BoldMT-78" d="M 1944 1791 
L 2450 828 
Q 2713 325 2866 191 
Q 2950 119 3097 113 
L 3097 0 
L 1469 0 
L 1469 113 
Q 1659 128 1704 162 
Q 1750 197 1750 256 
Q 1750 344 1650 531 
L 1397 1006 
L 1181 691 
Q 1034 475 1016 434 
Q 991 375 991 328 
Q 991 256 1020 207 
Q 1050 159 1101 136 
Q 1153 113 1291 113 
L 1291 0 
L 147 0 
L 147 113 
Q 359 113 536 230 
Q 713 347 1050 844 
L 1291 1200 
L 788 2131 
Q 541 2588 419 2691 
Q 297 2794 147 2806 
L 147 2922 
L 1766 2922 
L 1766 2806 
L 1681 2803 
L 1519 2747 
Q 1494 2725 1494 2675 
Q 1494 2628 1509 2578 
Q 1519 2556 1597 2409 
L 1825 1984 
L 1944 2153 
Q 2194 2497 2194 2634 
Q 2194 2700 2139 2745 
Q 2084 2791 1944 2806 
L 1944 2922 
L 2978 2922 
L 2978 2806 
Q 2788 2800 2622 2689 
Q 2456 2578 2250 2259 
L 1944 1791 
z
" transform="scale(0.015625)"/>
       <path id="TimesNewRomanPS-BoldMT-4f" d="M 2472 4297 
Q 3484 4334 4117 3706 
Q 4750 3078 4750 2134 
Q 4750 1328 4278 716 
Q 3653 -97 2513 -97 
Q 1369 -97 744 678 
Q 250 1291 250 2131 
Q 250 3075 892 3704 
Q 1534 4334 2472 4297 
z
M 2509 4097 
Q 1928 4097 1625 3503 
Q 1378 3016 1378 2103 
Q 1378 1019 1759 500 
Q 2025 138 2503 138 
Q 2825 138 3041 294 
Q 3316 494 3469 933 
Q 3622 1372 3622 2078 
Q 3622 2919 3465 3336 
Q 3309 3753 3067 3925 
Q 2825 4097 2509 4097 
z
" transform="scale(0.015625)"/>
       <path id="TimesNewRomanPS-BoldMT-26" d="M 3644 2534 
L 4944 2534 
L 4944 2413 
Q 4725 2381 4600 2282 
Q 4475 2184 4275 1825 
Q 4075 1466 3713 1022 
Q 4031 734 4231 622 
Q 4372 544 4506 544 
Q 4738 544 4925 847 
L 5053 778 
Q 4797 275 4506 63 
Q 4284 -97 4000 -97 
Q 3756 -97 3536 8 
Q 3316 113 3000 400 
Q 2609 138 2265 20 
Q 1922 -97 1550 -97 
Q 956 -97 606 225 
Q 256 547 256 981 
Q 256 1450 590 1797 
Q 925 2144 1563 2397 
Q 1481 2600 1440 2794 
Q 1400 2988 1400 3169 
Q 1400 3669 1751 4001 
Q 2103 4334 2650 4334 
Q 3091 4334 3348 4114 
Q 3606 3894 3606 3600 
Q 3606 3247 3342 2995 
Q 3078 2744 2506 2534 
Q 2859 1913 3541 1194 
Q 4000 1709 4000 2078 
Q 4000 2209 3909 2301 
Q 3819 2394 3644 2413 
L 3644 2534 
z
M 2400 2722 
Q 2728 2844 2840 2983 
Q 2953 3122 2953 3319 
Q 2953 3669 2769 3909 
Q 2647 4069 2469 4069 
Q 2322 4069 2217 3953 
Q 2113 3838 2113 3641 
Q 2113 3488 2163 3313 
Q 2213 3138 2400 2722 
z
M 1650 2197 
Q 1400 2091 1297 1972 
Q 1150 1797 1150 1581 
Q 1150 1288 1320 997 
Q 1491 706 1731 547 
Q 1972 388 2213 388 
Q 2331 388 2479 439 
Q 2628 491 2803 594 
Q 2050 1366 1650 2197 
z
" transform="scale(0.015625)"/>
      </defs>
      <use xlink:href="#TimesNewRomanPS-BoldMT-46"/>
      <use xlink:href="#TimesNewRomanPS-BoldMT-69" x="61.083984"/>
      <use xlink:href="#TimesNewRomanPS-BoldMT-78" x="88.867188"/>
      <use xlink:href="#TimesNewRomanPS-BoldMT-65" x="138.867188"/>
      <use xlink:href="#TimesNewRomanPS-BoldMT-64" x="183.251953"/>
      <use xlink:href="#TimesNewRomanPS-BoldMT-20" x="238.867188"/>
      <use xlink:href="#TimesNewRomanPS-BoldMT-4f" x="263.867188"/>
      <use xlink:href="#TimesNewRomanPS-BoldMT-26" x="341.650391"/>
      <use xlink:href="#TimesNewRomanPS-BoldMT-4d" x="424.951172"/>
      <use xlink:href="#TimesNewRomanPS-BoldMT-20" x="519.335938"/>
      <use xlink:href="#TimesNewRomanPS-BoldMT-43" x="544.335938"/>
      <use xlink:href="#TimesNewRomanPS-BoldMT-6f" x="616.552734"/>
      <use xlink:href="#TimesNewRomanPS-BoldMT-73" x="666.552734"/>
      <use xlink:href="#TimesNewRomanPS-BoldMT-74" x="705.46875"/>
     </g>
    </g>
    <g id="patch_59">
     <path d="M 612.445688 73.617188 
L 642.445688 73.617188 
L 642.445688 63.117188 
L 612.445688 63.117188 
z
" style="fill: #1f77b4; stroke: #ffffff; stroke-linejoin: miter"/>
    </g>
    <g id="text_20">
     <!-- Start-Up Costs -->
     <g style="fill: #262626" transform="translate(654.445688 73.617188) scale(0.15 -0.15)">
      <defs>
       <path id="TimesNewRomanPS-BoldMT-53" d="M 3006 4334 
L 3041 2922 
L 2913 2922 
Q 2822 3453 2467 3776 
Q 2113 4100 1700 4100 
Q 1381 4100 1195 3929 
Q 1009 3759 1009 3538 
Q 1009 3397 1075 3288 
Q 1166 3141 1366 2997 
Q 1513 2894 2044 2631 
Q 2788 2266 3047 1941 
Q 3303 1616 3303 1197 
Q 3303 666 2889 283 
Q 2475 -100 1838 -100 
Q 1638 -100 1459 -59 
Q 1281 -19 1013 94 
Q 863 156 766 156 
Q 684 156 593 93 
Q 503 31 447 -97 
L 331 -97 
L 331 1503 
L 447 1503 
Q 584 828 976 473 
Q 1369 119 1822 119 
Q 2172 119 2380 309 
Q 2588 500 2588 753 
Q 2588 903 2508 1043 
Q 2428 1184 2265 1311 
Q 2103 1438 1691 1641 
Q 1113 1925 859 2125 
Q 606 2325 470 2572 
Q 334 2819 334 3116 
Q 334 3622 706 3978 
Q 1078 4334 1644 4334 
Q 1850 4334 2044 4284 
Q 2191 4247 2402 4145 
Q 2613 4044 2697 4044 
Q 2778 4044 2825 4094 
Q 2872 4144 2913 4334 
L 3006 4334 
z
" transform="scale(0.015625)"/>
       <path id="TimesNewRomanPS-BoldMT-2d" d="M 1978 1147 
L 156 1147 
L 156 1794 
L 1978 1794 
L 1978 1147 
z
" transform="scale(0.015625)"/>
      </defs>
      <use xlink:href="#TimesNewRomanPS-BoldMT-53"/>
      <use xlink:href="#TimesNewRomanPS-BoldMT-74" x="55.615234"/>
      <use xlink:href="#TimesNewRomanPS-BoldMT-61" x="88.916016"/>
      <use xlink:href="#TimesNewRomanPS-BoldMT-72" x="138.916016"/>
      <use xlink:href="#TimesNewRomanPS-BoldMT-74" x="183.300781"/>
      <use xlink:href="#TimesNewRomanPS-BoldMT-2d" x="216.601562"/>
      <use xlink:href="#TimesNewRomanPS-BoldMT-55" x="249.902344"/>
      <use xlink:href="#TimesNewRomanPS-BoldMT-70" x="322.119141"/>
      <use xlink:href="#TimesNewRomanPS-BoldMT-20" x="377.734375"/>
      <use xlink:href="#TimesNewRomanPS-BoldMT-43" x="402.734375"/>
      <use xlink:href="#TimesNewRomanPS-BoldMT-6f" x="474.951172"/>
      <use xlink:href="#TimesNewRomanPS-BoldMT-73" x="524.951172"/>
      <use xlink:href="#TimesNewRomanPS-BoldMT-74" x="563.867188"/>
      <use xlink:href="#TimesNewRomanPS-BoldMT-73" x="597.167969"/>
     </g>
    </g>
    <g id="patch_60">
     <path d="M 612.445688 94.825781 
L 642.445688 94.825781 
L 642.445688 84.325781 
L 612.445688 84.325781 
z
" style="fill: #2ca02c; stroke: #ffffff; stroke-linejoin: miter"/>
    </g>
    <g id="text_21">
     <!-- Charging Costs -->
     <g style="fill: #262626" transform="translate(654.445688 94.825781) scale(0.15 -0.15)">
      <defs>
       <path id="TimesNewRomanPS-BoldMT-67" d="M 2091 2888 
L 3075 2888 
L 3075 2544 
L 2516 2544 
Q 2669 2391 2728 2266 
Q 2803 2097 2803 1913 
Q 2803 1600 2629 1370 
Q 2456 1141 2157 1011 
Q 1859 881 1628 881 
Q 1609 881 1253 897 
Q 1113 897 1017 805 
Q 922 713 922 584 
Q 922 472 1008 400 
Q 1094 328 1288 328 
L 1828 334 
Q 2484 334 2731 191 
Q 3084 -9 3084 -425 
Q 3084 -691 2921 -908 
Q 2759 -1125 2494 -1228 
Q 2091 -1381 1566 -1381 
Q 1172 -1381 847 -1304 
Q 522 -1228 381 -1092 
Q 241 -956 241 -806 
Q 241 -663 348 -548 
Q 456 -434 750 -356 
Q 344 -156 344 200 
Q 344 416 509 619 
Q 675 822 1034 972 
Q 616 1125 428 1375 
Q 241 1625 241 1953 
Q 241 2381 591 2695 
Q 941 3009 1491 3009 
Q 1781 3009 2091 2888 
z
M 1550 2816 
Q 1369 2816 1244 2633 
Q 1119 2450 1119 1875 
Q 1119 1409 1242 1236 
Q 1366 1063 1534 1063 
Q 1722 1063 1847 1234 
Q 1972 1406 1972 1903 
Q 1972 2463 1831 2666 
Q 1731 2816 1550 2816 
z
M 1366 -431 
Q 1047 -431 944 -484 
Q 766 -581 766 -747 
Q 766 -906 950 -1036 
Q 1134 -1166 1644 -1166 
Q 2078 -1166 2326 -1050 
Q 2575 -934 2575 -725 
Q 2575 -647 2528 -594 
Q 2444 -500 2273 -465 
Q 2103 -431 1366 -431 
z
" transform="scale(0.015625)"/>
      </defs>
      <use xlink:href="#TimesNewRomanPS-BoldMT-43"/>
      <use xlink:href="#TimesNewRomanPS-BoldMT-68" x="72.216797"/>
      <use xlink:href="#TimesNewRomanPS-BoldMT-61" x="127.832031"/>
      <use xlink:href="#TimesNewRomanPS-BoldMT-72" x="177.832031"/>
      <use xlink:href="#TimesNewRomanPS-BoldMT-67" x="222.216797"/>
      <use xlink:href="#TimesNewRomanPS-BoldMT-69" x="272.216797"/>
      <use xlink:href="#TimesNewRomanPS-BoldMT-6e" x="300"/>
      <use xlink:href="#TimesNewRomanPS-BoldMT-67" x="355.615234"/>
      <use xlink:href="#TimesNewRomanPS-BoldMT-20" x="405.615234"/>
      <use xlink:href="#TimesNewRomanPS-BoldMT-43" x="430.615234"/>
      <use xlink:href="#TimesNewRomanPS-BoldMT-6f" x="502.832031"/>
      <use xlink:href="#TimesNewRomanPS-BoldMT-73" x="552.832031"/>
      <use xlink:href="#TimesNewRomanPS-BoldMT-74" x="591.748047"/>
      <use xlink:href="#TimesNewRomanPS-BoldMT-73" x="625.048828"/>
     </g>
    </g>
    <g id="patch_61">
     <path d="M 612.445688 116.0625 
L 642.445688 116.0625 
L 642.445688 105.5625 
L 612.445688 105.5625 
z
" style="fill: #8c564b; stroke: #ffffff; stroke-linejoin: miter"/>
    </g>
    <g id="text_22">
     <!-- Annualized Capital Cost -->
     <g style="fill: #262626" transform="translate(654.445688 116.0625) scale(0.15 -0.15)">
      <defs>
       <path id="TimesNewRomanPS-BoldMT-7a" d="M 2609 0 
L 66 0 
L 66 69 
L 1672 2731 
L 1203 2731 
Q 900 2731 769 2676 
Q 638 2622 556 2501 
Q 475 2381 388 2072 
L 278 2072 
L 278 2922 
L 2738 2922 
L 2738 2838 
L 1144 200 
L 1344 200 
Q 1944 200 2209 372 
Q 2475 544 2609 1000 
L 2697 1000 
L 2609 0 
z
" transform="scale(0.015625)"/>
      </defs>
      <use xlink:href="#TimesNewRomanPS-BoldMT-41"/>
      <use xlink:href="#TimesNewRomanPS-BoldMT-6e" x="72.216797"/>
      <use xlink:href="#TimesNewRomanPS-BoldMT-6e" x="127.832031"/>
      <use xlink:href="#TimesNewRomanPS-BoldMT-75" x="183.447266"/>
      <use xlink:href="#TimesNewRomanPS-BoldMT-61" x="239.0625"/>
      <use xlink:href="#TimesNewRomanPS-BoldMT-6c" x="289.0625"/>
      <use xlink:href="#TimesNewRomanPS-BoldMT-69" x="316.845703"/>
      <use xlink:href="#TimesNewRomanPS-BoldMT-7a" x="344.628906"/>
      <use xlink:href="#TimesNewRomanPS-BoldMT-65" x="389.013672"/>
      <use xlink:href="#TimesNewRomanPS-BoldMT-64" x="433.398438"/>
      <use xlink:href="#TimesNewRomanPS-BoldMT-20" x="489.013672"/>
      <use xlink:href="#TimesNewRomanPS-BoldMT-43" x="514.013672"/>
      <use xlink:href="#TimesNewRomanPS-BoldMT-61" x="586.230469"/>
      <use xlink:href="#TimesNewRomanPS-BoldMT-70" x="636.230469"/>
      <use xlink:href="#TimesNewRomanPS-BoldMT-69" x="691.845703"/>
      <use xlink:href="#TimesNewRomanPS-BoldMT-74" x="719.628906"/>
      <use xlink:href="#TimesNewRomanPS-BoldMT-61" x="752.929688"/>
      <use xlink:href="#TimesNewRomanPS-BoldMT-6c" x="802.929688"/>
      <use xlink:href="#TimesNewRomanPS-BoldMT-20" x="830.712891"/>
      <use xlink:href="#TimesNewRomanPS-BoldMT-43" x="855.712891"/>
      <use xlink:href="#TimesNewRomanPS-BoldMT-6f" x="927.929688"/>
      <use xlink:href="#TimesNewRomanPS-BoldMT-73" x="977.929688"/>
      <use xlink:href="#TimesNewRomanPS-BoldMT-74" x="1016.845703"/>
     </g>
    </g>
    <g id="patch_62">
     <path d="M 612.445688 137.271094 
L 642.445688 137.271094 
L 642.445688 126.771094 
L 612.445688 126.771094 
z
" style="fill: #7f7f7f; stroke: #ffffff; stroke-linejoin: miter"/>
    </g>
    <g id="text_23">
     <!-- Revenue -->
     <g style="fill: #262626" transform="translate(654.445688 137.271094) scale(0.15 -0.15)">
      <use xlink:href="#TimesNewRomanPS-BoldMT-52"/>
      <use xlink:href="#TimesNewRomanPS-BoldMT-65" x="72.216797"/>
      <use xlink:href="#TimesNewRomanPS-BoldMT-76" x="116.601562"/>
      <use xlink:href="#TimesNewRomanPS-BoldMT-65" x="166.601562"/>
      <use xlink:href="#TimesNewRomanPS-BoldMT-6e" x="210.986328"/>
      <use xlink:href="#TimesNewRomanPS-BoldMT-75" x="266.601562"/>
      <use xlink:href="#TimesNewRomanPS-BoldMT-65" x="322.216797"/>
     </g>
    </g>
   </g>
  </g>
 </g>
 <defs>
  <clipPath id="pc541705f5e">
   <rect x="97.274437" y="7.2" width="502.2" height="166.32"/>
  </clipPath>
 </defs>
</svg>
