<?xml version="1.0" encoding="utf-8" standalone="no"?>
<!DOCTYPE svg PUBLIC "-//W3C//DTD SVG 1.1//EN"
  "http://www.w3.org/Graphics/SVG/1.1/DTD/svg11.dtd">
<svg xmlns:xlink="http://www.w3.org/1999/xlink" width="796.629375pt" height="386.360625pt" viewBox="0 0 796.629375 386.360625" xmlns="http://www.w3.org/2000/svg" version="1.1">
 <metadata>
  <rdf:RDF xmlns:dc="http://purl.org/dc/elements/1.1/" xmlns:cc="http://creativecommons.org/ns#" xmlns:rdf="http://www.w3.org/1999/02/22-rdf-syntax-ns#">
   <cc:Work>
    <dc:type rdf:resource="http://purl.org/dc/dcmitype/StillImage"/>
    <dc:date>2023-12-14T10:16:00.981539</dc:date>
    <dc:format>image/svg+xml</dc:format>
    <dc:creator>
     <cc:Agent>
      <dc:title>Matplotlib v3.7.1, https://matplotlib.org/</dc:title>
     </cc:Agent>
    </dc:creator>
   </cc:Work>
  </rdf:RDF>
 </metadata>
 <defs>
  <style type="text/css">*{stroke-linejoin: round; stroke-linecap: butt}</style>
 </defs>
 <g id="figure_1">
  <g id="patch_1">
   <path d="M 0 386.360625 
L 796.629375 386.360625 
L 796.629375 0 
L 0 0 
z
" style="fill: #ffffff"/>
  </g>
  <g id="axes_1">
   <g id="patch_2">
    <path d="M 71.529375 173.52 
L 629.529375 173.52 
L 629.529375 7.2 
L 71.529375 7.2 
z
" style="fill: #ffffff"/>
   </g>
   <g id="matplotlib.axis_1">
    <g id="xtick_1">
     <g id="line2d_1">
      <defs>
       <path id="m9c8ea6142a" d="M 0 0 
L 0 4 
" style="stroke: #262626; stroke-width: 1.25"/>
      </defs>
      <g>
       <use xlink:href="#m9c8ea6142a" x="96.893011" y="7.2" style="fill: #262626; stroke: #262626; stroke-width: 1.25"/>
      </g>
     </g>
    </g>
    <g id="xtick_2">
     <g id="line2d_2">
      <g>
       <use xlink:href="#m9c8ea6142a" x="133.343746" y="7.2" style="fill: #262626; stroke: #262626; stroke-width: 1.25"/>
      </g>
     </g>
    </g>
    <g id="xtick_3">
     <g id="line2d_3">
      <g>
       <use xlink:href="#m9c8ea6142a" x="169.794481" y="7.2" style="fill: #262626; stroke: #262626; stroke-width: 1.25"/>
      </g>
     </g>
    </g>
    <g id="xtick_4">
     <g id="line2d_4">
      <g>
       <use xlink:href="#m9c8ea6142a" x="206.245216" y="7.2" style="fill: #262626; stroke: #262626; stroke-width: 1.25"/>
      </g>
     </g>
    </g>
    <g id="xtick_5">
     <g id="line2d_5">
      <g>
       <use xlink:href="#m9c8ea6142a" x="242.695951" y="7.2" style="fill: #262626; stroke: #262626; stroke-width: 1.25"/>
      </g>
     </g>
    </g>
    <g id="xtick_6">
     <g id="line2d_6">
      <g>
       <use xlink:href="#m9c8ea6142a" x="279.146686" y="7.2" style="fill: #262626; stroke: #262626; stroke-width: 1.25"/>
      </g>
     </g>
    </g>
    <g id="xtick_7">
     <g id="line2d_7">
      <g>
       <use xlink:href="#m9c8ea6142a" x="315.597421" y="7.2" style="fill: #262626; stroke: #262626; stroke-width: 1.25"/>
      </g>
     </g>
    </g>
    <g id="xtick_8">
     <g id="line2d_8">
      <g>
       <use xlink:href="#m9c8ea6142a" x="352.048156" y="7.2" style="fill: #262626; stroke: #262626; stroke-width: 1.25"/>
      </g>
     </g>
    </g>
    <g id="xtick_9">
     <g id="line2d_9">
      <g>
       <use xlink:href="#m9c8ea6142a" x="388.498891" y="7.2" style="fill: #262626; stroke: #262626; stroke-width: 1.25"/>
      </g>
     </g>
    </g>
    <g id="xtick_10">
     <g id="line2d_10">
      <g>
       <use xlink:href="#m9c8ea6142a" x="424.949625" y="7.2" style="fill: #262626; stroke: #262626; stroke-width: 1.25"/>
      </g>
     </g>
    </g>
    <g id="xtick_11">
     <g id="line2d_11">
      <g>
       <use xlink:href="#m9c8ea6142a" x="461.40036" y="7.2" style="fill: #262626; stroke: #262626; stroke-width: 1.25"/>
      </g>
     </g>
    </g>
    <g id="xtick_12">
     <g id="line2d_12">
      <g>
       <use xlink:href="#m9c8ea6142a" x="497.851095" y="7.2" style="fill: #262626; stroke: #262626; stroke-width: 1.25"/>
      </g>
     </g>
    </g>
    <g id="xtick_13">
     <g id="line2d_13">
      <g>
       <use xlink:href="#m9c8ea6142a" x="534.30183" y="7.2" style="fill: #262626; stroke: #262626; stroke-width: 1.25"/>
      </g>
     </g>
    </g>
    <g id="xtick_14">
     <g id="line2d_14">
      <g>
       <use xlink:href="#m9c8ea6142a" x="570.752565" y="7.2" style="fill: #262626; stroke: #262626; stroke-width: 1.25"/>
      </g>
     </g>
    </g>
    <g id="xtick_15">
     <g id="line2d_15">
      <g>
       <use xlink:href="#m9c8ea6142a" x="607.2033" y="7.2" style="fill: #262626; stroke: #262626; stroke-width: 1.25"/>
      </g>
     </g>
    </g>
   </g>
   <g id="matplotlib.axis_2">
    <g id="ytick_1">
     <g id="line2d_16">
      <defs>
       <path id="mcbf9b81ce5" d="M 0 0 
L -4 0 
" style="stroke: #262626; stroke-width: 1.25"/>
      </defs>
      <g>
       <use xlink:href="#mcbf9b81ce5" x="629.529375" y="167.035574" style="fill: #262626; stroke: #262626; stroke-width: 1.25"/>
      </g>
     </g>
     <g id="text_1">
      <!-- 0.0 -->
      <g style="fill: #262626" transform="translate(45.529375 172.995261) scale(0.18 -0.18)">
       <defs>
        <path id="TimesNewRomanPS-BoldMT-30" d="M 2966 2119 
Q 2966 1484 2788 934 
Q 2681 597 2501 381 
Q 2322 166 2094 39 
Q 1866 -88 1597 -88 
Q 1291 -88 1044 68 
Q 797 225 606 516 
Q 469 728 366 1081 
Q 231 1559 231 2069 
Q 231 2759 425 3338 
Q 584 3816 909 4070 
Q 1234 4325 1597 4325 
Q 1966 4325 2286 4073 
Q 2606 3822 2756 3397 
Q 2966 2813 2966 2119 
z
M 2003 2125 
Q 2003 3238 1991 3422 
Q 1959 3856 1841 4009 
Q 1763 4109 1588 4109 
Q 1453 4109 1375 4034 
Q 1259 3925 1218 3648 
Q 1178 3372 1178 1719 
Q 1178 819 1241 513 
Q 1288 291 1375 216 
Q 1463 141 1606 141 
Q 1763 141 1841 241 
Q 1972 416 1991 781 
L 2003 2125 
z
" transform="scale(0.015625)"/>
        <path id="TimesNewRomanPS-BoldMT-2e" d="M 800 963 
Q 1019 963 1170 809 
Q 1322 656 1322 441 
Q 1322 225 1169 73 
Q 1016 -78 800 -78 
Q 584 -78 432 73 
Q 281 225 281 441 
Q 281 656 432 809 
Q 584 963 800 963 
z
" transform="scale(0.015625)"/>
       </defs>
       <use xlink:href="#TimesNewRomanPS-BoldMT-30"/>
       <use xlink:href="#TimesNewRomanPS-BoldMT-2e" x="50"/>
       <use xlink:href="#TimesNewRomanPS-BoldMT-30" x="75"/>
      </g>
     </g>
    </g>
    <g id="ytick_2">
     <g id="line2d_17">
      <g>
       <use xlink:href="#mcbf9b81ce5" x="629.529375" y="95.805536" style="fill: #262626; stroke: #262626; stroke-width: 1.25"/>
      </g>
     </g>
     <g id="text_2">
      <!-- 0.1 -->
      <g style="fill: #262626" transform="translate(45.529375 101.765224) scale(0.18 -0.18)">
       <defs>
        <path id="TimesNewRomanPS-BoldMT-31" d="M 2084 4325 
L 2084 859 
Q 2084 469 2118 361 
Q 2153 253 2262 184 
Q 2372 116 2613 116 
L 2709 116 
L 2709 0 
L 478 0 
L 478 116 
L 591 116 
Q 863 116 978 178 
Q 1094 241 1134 350 
Q 1175 459 1175 859 
L 1175 3056 
Q 1175 3350 1147 3423 
Q 1119 3497 1042 3548 
Q 966 3600 866 3600 
Q 706 3600 478 3500 
L 422 3613 
L 1981 4325 
L 2084 4325 
z
" transform="scale(0.015625)"/>
       </defs>
       <use xlink:href="#TimesNewRomanPS-BoldMT-30"/>
       <use xlink:href="#TimesNewRomanPS-BoldMT-2e" x="50"/>
       <use xlink:href="#TimesNewRomanPS-BoldMT-31" x="75"/>
      </g>
     </g>
    </g>
    <g id="ytick_3">
     <g id="line2d_18">
      <g>
       <use xlink:href="#mcbf9b81ce5" x="629.529375" y="24.575499" style="fill: #262626; stroke: #262626; stroke-width: 1.25"/>
      </g>
     </g>
     <g id="text_3">
      <!-- 0.2 -->
      <g style="fill: #262626" transform="translate(45.529375 30.535187) scale(0.18 -0.18)">
       <defs>
        <path id="TimesNewRomanPS-BoldMT-32" d="M 2650 0 
L 156 0 
L 156 69 
Q 1303 1434 1548 1906 
Q 1794 2378 1794 2828 
Q 1794 3156 1591 3373 
Q 1388 3591 1094 3591 
Q 613 3591 347 3109 
L 231 3150 
Q 400 3750 744 4037 
Q 1088 4325 1538 4325 
Q 1859 4325 2125 4175 
Q 2391 4025 2541 3764 
Q 2691 3503 2691 3275 
Q 2691 2859 2459 2431 
Q 2144 1853 1081 819 
L 1997 819 
Q 2334 819 2436 847 
Q 2538 875 2603 942 
Q 2669 1009 2775 1225 
L 2888 1225 
L 2650 0 
z
" transform="scale(0.015625)"/>
       </defs>
       <use xlink:href="#TimesNewRomanPS-BoldMT-30"/>
       <use xlink:href="#TimesNewRomanPS-BoldMT-2e" x="50"/>
       <use xlink:href="#TimesNewRomanPS-BoldMT-32" x="75"/>
      </g>
     </g>
    </g>
    <g id="text_4">
     <!-- Electricity Price  -->
     <g style="fill: #262626" transform="translate(19.400625 154.821094) rotate(-90) scale(0.18 -0.18)">
      <defs>
       <path id="TimesNewRomanPS-BoldMT-45" d="M 1744 3994 
L 1744 2269 
L 1828 2269 
Q 2231 2269 2412 2522 
Q 2594 2775 2644 3269 
L 2763 3269 
L 2763 1050 
L 2644 1050 
Q 2606 1413 2486 1644 
Q 2366 1875 2206 1954 
Q 2047 2034 1744 2034 
L 1744 841 
Q 1744 491 1773 412 
Q 1803 334 1884 284 
Q 1966 234 2147 234 
L 2400 234 
Q 2994 234 3351 509 
Q 3709 784 3866 1347 
L 3981 1347 
L 3791 0 
L 128 0 
L 128 116 
L 269 116 
Q 453 116 566 181 
Q 647 225 691 331 
Q 725 406 725 725 
L 725 3513 
Q 725 3800 709 3866 
Q 678 3975 594 4034 
Q 475 4122 269 4122 
L 128 4122 
L 128 4238 
L 3675 4238 
L 3675 2984 
L 3556 2984 
Q 3466 3444 3302 3644 
Q 3138 3844 2838 3938 
Q 2663 3994 2181 3994 
L 1744 3994 
z
" transform="scale(0.015625)"/>
       <path id="TimesNewRomanPS-BoldMT-6c" d="M 1359 4238 
L 1359 606 
Q 1359 297 1431 211 
Q 1503 125 1713 113 
L 1713 0 
L 134 0 
L 134 113 
Q 328 119 422 225 
Q 484 297 484 606 
L 484 3631 
Q 484 3938 412 4023 
Q 341 4109 134 4122 
L 134 4238 
L 1359 4238 
z
" transform="scale(0.015625)"/>
       <path id="TimesNewRomanPS-BoldMT-65" d="M 2691 1566 
L 1088 1566 
Q 1116 984 1397 647 
Q 1613 388 1916 388 
Q 2103 388 2256 492 
Q 2409 597 2584 869 
L 2691 800 
Q 2453 316 2165 114 
Q 1878 -88 1500 -88 
Q 850 -88 516 413 
Q 247 816 247 1413 
Q 247 2144 642 2576 
Q 1038 3009 1569 3009 
Q 2013 3009 2339 2645 
Q 2666 2281 2691 1566 
z
M 1922 1775 
Q 1922 2278 1867 2465 
Q 1813 2653 1697 2750 
Q 1631 2806 1522 2806 
Q 1359 2806 1256 2647 
Q 1072 2369 1072 1884 
L 1072 1775 
L 1922 1775 
z
" transform="scale(0.015625)"/>
       <path id="TimesNewRomanPS-BoldMT-63" d="M 2600 753 
L 2697 678 
Q 2491 291 2183 101 
Q 1875 -88 1528 -88 
Q 944 -88 594 353 
Q 244 794 244 1413 
Q 244 2009 563 2463 
Q 947 3009 1622 3009 
Q 2075 3009 2342 2781 
Q 2609 2553 2609 2272 
Q 2609 2094 2501 1987 
Q 2394 1881 2219 1881 
Q 2034 1881 1914 2003 
Q 1794 2125 1766 2438 
Q 1747 2634 1675 2713 
Q 1603 2791 1506 2791 
Q 1356 2791 1250 2631 
Q 1088 2391 1088 1894 
Q 1088 1481 1219 1104 
Q 1350 728 1578 544 
Q 1750 409 1984 409 
Q 2138 409 2275 481 
Q 2413 553 2600 753 
z
" transform="scale(0.015625)"/>
       <path id="TimesNewRomanPS-BoldMT-74" d="M 1375 3991 
L 1375 2922 
L 2069 2922 
L 2069 2613 
L 1375 2613 
L 1375 809 
Q 1375 556 1398 482 
Q 1422 409 1481 364 
Q 1541 319 1591 319 
Q 1794 319 1975 628 
L 2069 559 
Q 1816 -41 1247 -41 
Q 969 -41 776 114 
Q 584 269 531 459 
Q 500 566 500 1034 
L 500 2613 
L 119 2613 
L 119 2722 
Q 513 3000 789 3306 
Q 1066 3613 1272 3991 
L 1375 3991 
z
" transform="scale(0.015625)"/>
       <path id="TimesNewRomanPS-BoldMT-72" d="M 1428 2922 
L 1428 2259 
Q 1719 2713 1937 2861 
Q 2156 3009 2359 3009 
Q 2534 3009 2639 2901 
Q 2744 2794 2744 2597 
Q 2744 2388 2642 2272 
Q 2541 2156 2397 2156 
Q 2231 2156 2109 2262 
Q 1988 2369 1966 2381 
Q 1934 2400 1894 2400 
Q 1803 2400 1722 2331 
Q 1594 2225 1528 2028 
Q 1428 1725 1428 1359 
L 1428 688 
L 1431 513 
Q 1431 334 1453 284 
Q 1491 200 1564 161 
Q 1638 122 1813 113 
L 1813 0 
L 234 0 
L 234 113 
Q 425 128 492 217 
Q 559 306 559 688 
L 559 2303 
Q 559 2553 534 2622 
Q 503 2709 443 2750 
Q 384 2791 234 2806 
L 234 2922 
L 1428 2922 
z
" transform="scale(0.015625)"/>
       <path id="TimesNewRomanPS-BoldMT-69" d="M 919 4338 
Q 1122 4338 1262 4195 
Q 1403 4053 1403 3853 
Q 1403 3653 1261 3512 
Q 1119 3372 919 3372 
Q 719 3372 578 3512 
Q 438 3653 438 3853 
Q 438 4053 578 4195 
Q 719 4338 919 4338 
z
M 1356 2922 
L 1356 606 
Q 1356 297 1428 211 
Q 1500 125 1709 113 
L 1709 0 
L 131 0 
L 131 113 
Q 325 119 419 225 
Q 481 297 481 606 
L 481 2313 
Q 481 2622 409 2708 
Q 338 2794 131 2806 
L 131 2922 
L 1356 2922 
z
" transform="scale(0.015625)"/>
       <path id="TimesNewRomanPS-BoldMT-79" d="M 1556 -119 
L 613 2047 
Q 400 2538 298 2650 
Q 197 2763 53 2806 
L 53 2922 
L 1606 2922 
L 1606 2806 
Q 1453 2800 1390 2747 
Q 1328 2694 1328 2619 
Q 1328 2500 1484 2150 
L 1984 1006 
L 2325 1891 
Q 2509 2363 2509 2547 
Q 2509 2663 2432 2731 
Q 2356 2800 2163 2806 
L 2163 2922 
L 3141 2922 
L 3141 2806 
Q 2997 2791 2906 2695 
Q 2816 2600 2603 2047 
L 1769 -119 
Q 1453 -931 1300 -1119 
Q 1084 -1381 759 -1381 
Q 500 -1381 339 -1232 
Q 178 -1084 178 -875 
Q 178 -694 289 -575 
Q 400 -456 563 -456 
Q 719 -456 814 -556 
Q 909 -656 913 -866 
Q 916 -984 941 -1019 
Q 966 -1053 1013 -1053 
Q 1088 -1053 1172 -963 
Q 1297 -831 1466 -363 
L 1556 -119 
z
" transform="scale(0.015625)"/>
       <path id="TimesNewRomanPS-BoldMT-20" transform="scale(0.015625)"/>
       <path id="TimesNewRomanPS-BoldMT-50" d="M 1728 1919 
L 1728 744 
Q 1728 400 1770 311 
Q 1813 222 1920 169 
Q 2028 116 2316 116 
L 2316 0 
L 163 0 
L 163 116 
Q 456 116 561 170 
Q 666 225 708 312 
Q 750 400 750 744 
L 750 3494 
Q 750 3838 708 3927 
Q 666 4016 559 4069 
Q 453 4122 163 4122 
L 163 4238 
L 2009 4238 
Q 2922 4238 3319 3913 
Q 3716 3588 3716 3100 
Q 3716 2688 3459 2394 
Q 3203 2100 2753 1994 
Q 2450 1919 1728 1919 
z
M 1728 3994 
L 1728 2163 
Q 1831 2156 1884 2156 
Q 2266 2156 2472 2382 
Q 2678 2609 2678 3084 
Q 2678 3556 2472 3775 
Q 2266 3994 1856 3994 
L 1728 3994 
z
" transform="scale(0.015625)"/>
      </defs>
      <use xlink:href="#TimesNewRomanPS-BoldMT-45"/>
      <use xlink:href="#TimesNewRomanPS-BoldMT-6c" x="66.699219"/>
      <use xlink:href="#TimesNewRomanPS-BoldMT-65" x="94.482422"/>
      <use xlink:href="#TimesNewRomanPS-BoldMT-63" x="138.867188"/>
      <use xlink:href="#TimesNewRomanPS-BoldMT-74" x="183.251953"/>
      <use xlink:href="#TimesNewRomanPS-BoldMT-72" x="216.552734"/>
      <use xlink:href="#TimesNewRomanPS-BoldMT-69" x="260.9375"/>
      <use xlink:href="#TimesNewRomanPS-BoldMT-63" x="288.720703"/>
      <use xlink:href="#TimesNewRomanPS-BoldMT-69" x="333.105469"/>
      <use xlink:href="#TimesNewRomanPS-BoldMT-74" x="360.888672"/>
      <use xlink:href="#TimesNewRomanPS-BoldMT-79" x="394.189453"/>
      <use xlink:href="#TimesNewRomanPS-BoldMT-20" x="444.189453"/>
      <use xlink:href="#TimesNewRomanPS-BoldMT-50" x="469.189453"/>
      <use xlink:href="#TimesNewRomanPS-BoldMT-72" x="530.273438"/>
      <use xlink:href="#TimesNewRomanPS-BoldMT-69" x="574.658203"/>
      <use xlink:href="#TimesNewRomanPS-BoldMT-63" x="602.441406"/>
      <use xlink:href="#TimesNewRomanPS-BoldMT-65" x="646.826172"/>
      <use xlink:href="#TimesNewRomanPS-BoldMT-20" x="691.210938"/>
     </g>
     <!--  ($/kWh) -->
     <g style="fill: #262626" transform="translate(37.679063 124.613438) rotate(-90) scale(0.18 -0.18)">
      <defs>
       <path id="TimesNewRomanPS-BoldMT-28" d="M 2056 4334 
L 2056 4191 
Q 1731 3978 1578 3775 
Q 1366 3494 1247 3053 
Q 1097 2506 1097 1525 
Q 1097 600 1233 87 
Q 1369 -425 1603 -741 
Q 1766 -959 2056 -1125 
L 2056 -1281 
Q 1303 -1028 779 -248 
Q 256 531 256 1544 
Q 256 2544 778 3314 
Q 1300 4084 2056 4334 
z
" transform="scale(0.015625)"/>
       <path id="TimesNewRomanPS-BoldMT-24" d="M 1769 2609 
Q 2516 2138 2722 1897 
Q 2997 1572 2997 1131 
Q 2997 650 2672 317 
Q 2347 -16 1769 -66 
L 1769 -431 
L 1497 -431 
L 1497 -88 
Q 1166 -81 909 -32 
Q 653 16 322 144 
L 322 1153 
L 453 1153 
Q 516 809 650 596 
Q 784 384 989 276 
Q 1194 169 1497 144 
L 1497 1688 
Q 744 2159 495 2442 
Q 247 2725 247 3100 
Q 247 3506 559 3817 
Q 872 4128 1497 4206 
L 1497 4353 
L 1769 4353 
L 1769 4206 
Q 2300 4169 2838 3878 
L 2838 2975 
L 2716 2975 
Q 2625 3281 2498 3478 
Q 2372 3675 2172 3816 
Q 2019 3919 1769 3988 
L 1769 2609 
z
M 1497 3997 
Q 1269 3978 1131 3872 
Q 913 3706 913 3472 
Q 913 3328 1014 3181 
Q 1116 3034 1497 2781 
L 1497 3997 
z
M 1769 144 
Q 2038 206 2163 357 
Q 2288 509 2288 738 
Q 2288 934 2177 1106 
Q 2066 1278 1769 1497 
L 1769 144 
z
" transform="scale(0.015625)"/>
       <path id="TimesNewRomanPS-BoldMT-2f" d="M 1797 4334 
L 406 -97 
L 6 -97 
L 1403 4334 
L 1797 4334 
z
" transform="scale(0.015625)"/>
       <path id="TimesNewRomanPS-BoldMT-6b" d="M 1403 4238 
L 1403 1450 
L 2081 2116 
Q 2291 2319 2342 2409 
Q 2394 2500 2394 2584 
Q 2394 2669 2325 2725 
Q 2256 2781 2056 2806 
L 2056 2922 
L 3366 2922 
L 3366 2806 
Q 3178 2797 3037 2717 
Q 2897 2638 2488 2238 
L 2169 1925 
L 2856 919 
Q 3272 306 3350 231 
Q 3456 125 3619 113 
L 3619 0 
L 2109 0 
L 2109 113 
Q 2209 113 2254 150 
Q 2300 188 2300 231 
Q 2300 303 2169 497 
L 1591 1344 
L 1403 1159 
L 1403 634 
Q 1403 300 1465 217 
Q 1528 134 1722 113 
L 1722 0 
L 213 0 
L 213 113 
Q 397 131 475 231 
Q 528 300 528 634 
L 528 3603 
Q 528 3934 467 4015 
Q 406 4097 213 4122 
L 213 4238 
L 1403 4238 
z
" transform="scale(0.015625)"/>
       <path id="TimesNewRomanPS-BoldMT-57" d="M 6344 4238 
L 6344 4122 
Q 6225 4113 6144 4056 
Q 6063 4000 6000 3884 
Q 5981 3847 5803 3400 
L 4475 -97 
L 4353 -97 
L 3303 2634 
L 2147 -97 
L 2031 -97 
L 638 3363 
Q 425 3884 340 3993 
Q 256 4103 56 4122 
L 56 4238 
L 1894 4238 
L 1894 4122 
Q 1672 4116 1598 4055 
Q 1525 3994 1525 3903 
Q 1525 3784 1678 3400 
L 2509 1344 
L 3175 2950 
L 3000 3400 
Q 2856 3769 2778 3892 
Q 2700 4016 2598 4069 
Q 2497 4122 2300 4122 
L 2300 4238 
L 4353 4238 
L 4353 4122 
Q 4138 4119 4044 4088 
Q 3978 4066 3940 4014 
Q 3903 3963 3903 3897 
Q 3903 3825 4044 3456 
L 4816 1450 
L 5506 3266 
Q 5616 3547 5641 3650 
Q 5666 3753 5666 3841 
Q 5666 3969 5578 4042 
Q 5491 4116 5244 4122 
L 5244 4238 
L 6344 4238 
z
" transform="scale(0.015625)"/>
       <path id="TimesNewRomanPS-BoldMT-68" d="M 1409 4238 
L 1409 2547 
Q 1650 2800 1850 2904 
Q 2050 3009 2266 3009 
Q 2541 3009 2736 2853 
Q 2931 2697 2995 2486 
Q 3059 2275 3059 1775 
L 3059 634 
Q 3059 300 3121 217 
Q 3184 134 3375 113 
L 3375 0 
L 1894 0 
L 1894 113 
Q 2050 134 2128 238 
Q 2184 319 2184 634 
L 2184 1938 
Q 2184 2300 2156 2392 
Q 2128 2484 2061 2536 
Q 1994 2588 1909 2588 
Q 1784 2588 1665 2502 
Q 1547 2416 1409 2200 
L 1409 634 
Q 1409 322 1456 244 
Q 1516 138 1700 113 
L 1700 0 
L 219 0 
L 219 113 
Q 403 131 481 231 
Q 534 300 534 634 
L 534 3603 
Q 534 3934 473 4015 
Q 413 4097 219 4122 
L 219 4238 
L 1409 4238 
z
" transform="scale(0.015625)"/>
       <path id="TimesNewRomanPS-BoldMT-29" d="M 78 -1281 
L 78 -1138 
Q 403 -922 556 -719 
Q 766 -438 888 0 
Q 1038 550 1038 1531 
Q 1038 2456 902 2967 
Q 766 3478 531 3794 
Q 369 4013 78 4178 
L 78 4334 
Q 831 4081 1354 3301 
Q 1878 2522 1878 1509 
Q 1878 513 1354 -257 
Q 831 -1028 78 -1281 
z
" transform="scale(0.015625)"/>
      </defs>
      <use xlink:href="#TimesNewRomanPS-BoldMT-20"/>
      <use xlink:href="#TimesNewRomanPS-BoldMT-28" x="25"/>
      <use xlink:href="#TimesNewRomanPS-BoldMT-24" x="58.300781"/>
      <use xlink:href="#TimesNewRomanPS-BoldMT-2f" x="108.300781"/>
      <use xlink:href="#TimesNewRomanPS-BoldMT-6b" x="136.083984"/>
      <use xlink:href="#TimesNewRomanPS-BoldMT-57" x="191.699219"/>
      <use xlink:href="#TimesNewRomanPS-BoldMT-68" x="291.699219"/>
      <use xlink:href="#TimesNewRomanPS-BoldMT-29" x="347.314453"/>
     </g>
    </g>
   </g>
   <g id="line2d_19">
    <path d="M 96.893011 108.54859 
L 99.930573 119.510893 
L 109.043256 119.510893 
L 112.080818 108.54859 
L 115.118379 108.54859 
L 118.15594 130.231013 
L 121.193501 145.303289 
L 124.231063 153.288176 
L 139.418869 153.266807 
L 142.45643 150.275146 
L 145.493991 143.301725 
L 148.531552 119.510893 
L 166.75692 119.510893 
L 169.794481 113.285387 
L 172.832042 113.285387 
L 175.869604 132.980493 
L 178.907165 126.527051 
L 181.944726 132.980493 
L 184.982287 127.901791 
L 188.019849 127.901791 
L 191.05741 134.034697 
L 194.094971 145.922991 
L 197.132532 146.848981 
L 200.170094 150.517328 
L 203.207655 154.677162 
L 206.245216 155.831089 
L 209.282777 155.823966 
L 212.320339 154.377996 
L 215.3579 152.020282 
L 218.395461 145.303289 
L 221.433022 135.41656 
L 224.470583 103.306059 
L 227.508145 88.205291 
L 230.545706 103.306059 
L 233.583267 114.660127 
L 236.620828 114.660127 
L 239.65839 115.16586 
L 242.695951 40.431305 
L 245.733512 104.894489 
L 248.771073 125.223542 
L 254.846196 124.945745 
L 257.883757 120.864263 
L 260.921318 122.352971 
L 263.95888 137.040605 
L 266.996441 146.093943 
L 273.071563 146.093943 
L 276.109125 150.275146 
L 279.146686 151.699747 
L 282.184247 151.699747 
L 285.221808 146.848981 
L 288.25937 146.08682 
L 291.296931 142.511072 
L 294.334492 135.9864 
L 297.372053 135.9864 
L 300.409615 135.331084 
L 303.447176 135.9864 
L 324.710104 135.922293 
L 327.747666 137.311279 
L 330.785227 135.922293 
L 333.822788 135.922293 
L 336.860349 145.35315 
L 339.897911 151.934806 
L 342.935472 155.00482 
L 345.973033 155.00482 
L 349.010594 165.96 
L 358.123278 165.96 
L 361.160839 150.723895 
L 364.198401 146.685152 
L 367.235962 137.952349 
L 370.273523 124.098107 
L 373.311084 124.831777 
L 385.461329 124.895884 
L 388.498891 126.705126 
L 406.724258 126.705126 
L 409.761819 136.371043 
L 412.79938 146.5142 
L 415.836942 150.538697 
L 418.874503 161.501 
L 421.912064 161.501 
L 424.949625 162.405621 
L 427.987187 161.501 
L 431.024748 161.501 
L 434.062309 149.377647 
L 437.09987 146.029836 
L 440.137432 143.771843 
L 443.174993 126.142409 
L 458.362799 126.142409 
L 461.40036 14.76 
L 479.625728 14.76 
L 482.663289 123.863048 
L 485.70085 140.530877 
L 488.738411 142.98119 
L 491.775973 144.911524 
L 494.813534 145.922991 
L 497.851095 145.922991 
L 500.888656 150.517328 
L 503.926218 150.275146 
L 506.963779 144.690711 
L 510.00134 142.98119 
L 513.038901 141.827263 
L 516.076463 127.232229 
L 519.114024 116.953734 
L 522.151585 108.641189 
L 525.189146 134.511939 
L 528.226708 137.688798 
L 531.264269 138.700265 
L 534.30183 140.701829 
L 546.452075 140.701829 
L 549.489636 139.405442 
L 552.527198 126.056933 
L 555.564759 141.050856 
L 558.60232 144.113748 
L 561.639881 150.994569 
L 564.677443 153.772541 
L 576.827687 153.772541 
L 579.865249 150.638419 
L 582.90281 143.444185 
L 585.940371 138.393976 
L 588.977932 115.664471 
L 592.015494 114.503421 
L 595.053055 114.581774 
L 598.090616 116.127466 
L 601.128177 122.37434 
L 604.165739 133.25829 
L 604.165739 133.25829 
" clip-path="url(#p013ffe5029)" style="fill: none; stroke: #9467bd; stroke-width: 1.5; stroke-linecap: round"/>
   </g>
   <g id="patch_3">
    <path d="M 71.529375 173.52 
L 71.529375 7.2 
" style="fill: none; stroke: #262626; stroke-width: 1.25; stroke-linejoin: miter; stroke-linecap: square"/>
   </g>
   <g id="patch_4">
    <path d="M 629.529375 173.52 
L 629.529375 7.2 
" style="fill: none; stroke: #262626; stroke-width: 1.25; stroke-linejoin: miter; stroke-linecap: square"/>
   </g>
   <g id="patch_5">
    <path d="M 71.529375 173.52 
L 629.529375 173.52 
" style="fill: none; stroke: #262626; stroke-width: 1.25; stroke-linejoin: miter; stroke-linecap: square"/>
   </g>
   <g id="patch_6">
    <path d="M 71.529375 7.2 
L 629.529375 7.2 
" style="fill: none; stroke: #262626; stroke-width: 1.25; stroke-linejoin: miter; stroke-linecap: square"/>
   </g>
  </g>
  <g id="axes_2">
   <g id="patch_7">
    <path d="M 71.529375 339.84 
L 629.529375 339.84 
L 629.529375 173.52 
L 71.529375 173.52 
z
" style="fill: #ffffff"/>
   </g>
   <g id="matplotlib.axis_3">
    <g id="xtick_16">
     <g id="line2d_20">
      <g>
       <use xlink:href="#m9c8ea6142a" x="96.893011" y="173.52" style="fill: #262626; stroke: #262626; stroke-width: 1.25"/>
      </g>
     </g>
     <g id="text_5">
      <!-- 0 -->
      <g style="fill: #262626" transform="translate(92.393011 355.259375) scale(0.18 -0.18)">
       <use xlink:href="#TimesNewRomanPS-BoldMT-30"/>
      </g>
     </g>
    </g>
    <g id="xtick_17">
     <g id="line2d_21">
      <g>
       <use xlink:href="#m9c8ea6142a" x="133.343746" y="173.52" style="fill: #262626; stroke: #262626; stroke-width: 1.25"/>
      </g>
     </g>
     <g id="text_6">
      <!-- 12 -->
      <g style="fill: #262626" transform="translate(124.343746 355.259375) scale(0.18 -0.18)">
       <use xlink:href="#TimesNewRomanPS-BoldMT-31"/>
       <use xlink:href="#TimesNewRomanPS-BoldMT-32" x="50"/>
      </g>
     </g>
    </g>
    <g id="xtick_18">
     <g id="line2d_22">
      <g>
       <use xlink:href="#m9c8ea6142a" x="169.794481" y="173.52" style="fill: #262626; stroke: #262626; stroke-width: 1.25"/>
      </g>
     </g>
     <g id="text_7">
      <!-- 24 -->
      <g style="fill: #262626" transform="translate(160.794481 355.259375) scale(0.18 -0.18)">
       <defs>
        <path id="TimesNewRomanPS-BoldMT-34" d="M 159 1597 
L 2172 4325 
L 2553 4325 
L 2553 1597 
L 2941 1597 
L 2941 950 
L 2553 950 
L 2553 0 
L 1694 0 
L 1694 950 
L 159 950 
L 159 1597 
z
M 463 1597 
L 1694 1597 
L 1694 3269 
L 463 1597 
z
" transform="scale(0.015625)"/>
       </defs>
       <use xlink:href="#TimesNewRomanPS-BoldMT-32"/>
       <use xlink:href="#TimesNewRomanPS-BoldMT-34" x="50"/>
      </g>
     </g>
    </g>
    <g id="xtick_19">
     <g id="line2d_23">
      <g>
       <use xlink:href="#m9c8ea6142a" x="206.245216" y="173.52" style="fill: #262626; stroke: #262626; stroke-width: 1.25"/>
      </g>
     </g>
     <g id="text_8">
      <!-- 36 -->
      <g style="fill: #262626" transform="translate(197.245216 355.259375) scale(0.18 -0.18)">
       <defs>
        <path id="TimesNewRomanPS-BoldMT-33" d="M 947 2125 
L 947 2234 
Q 1303 2338 1440 2427 
Q 1578 2516 1678 2698 
Q 1778 2881 1778 3069 
Q 1778 3328 1589 3514 
Q 1400 3700 1119 3700 
Q 681 3700 375 3238 
L 259 3278 
Q 484 3800 836 4062 
Q 1188 4325 1619 4325 
Q 2059 4325 2345 4056 
Q 2631 3788 2631 3428 
Q 2631 3194 2498 2976 
Q 2366 2759 2081 2594 
Q 2447 2416 2639 2155 
Q 2831 1894 2831 1500 
Q 2831 838 2351 373 
Q 1872 -91 1066 -91 
Q 528 -91 281 88 
Q 103 213 103 409 
Q 103 553 206 654 
Q 309 756 444 756 
Q 547 756 638 713 
Q 688 688 992 439 
Q 1297 191 1563 191 
Q 1794 191 1959 373 
Q 2125 556 2125 838 
Q 2125 1266 1825 1627 
Q 1525 1988 947 2125 
z
" transform="scale(0.015625)"/>
        <path id="TimesNewRomanPS-BoldMT-36" d="M 3006 4325 
L 3006 4238 
Q 2441 4094 2098 3867 
Q 1756 3641 1557 3317 
Q 1359 2994 1250 2516 
Q 1388 2609 1478 2638 
Q 1681 2700 1888 2700 
Q 2363 2700 2680 2354 
Q 2997 2009 2997 1413 
Q 2997 994 2825 644 
Q 2653 294 2337 103 
Q 2022 -88 1663 -88 
Q 1272 -88 940 126 
Q 609 341 423 753 
Q 238 1166 238 1650 
Q 238 2363 580 2977 
Q 922 3591 1551 3955 
Q 2181 4319 3006 4325 
z
M 1209 2263 
Q 1184 1831 1184 1631 
Q 1184 1200 1267 797 
Q 1350 394 1494 231 
Q 1597 116 1738 116 
Q 1881 116 1993 283 
Q 2106 450 2106 963 
Q 2106 1825 1897 2153 
Q 1763 2366 1534 2366 
Q 1409 2366 1209 2263 
z
" transform="scale(0.015625)"/>
       </defs>
       <use xlink:href="#TimesNewRomanPS-BoldMT-33"/>
       <use xlink:href="#TimesNewRomanPS-BoldMT-36" x="50"/>
      </g>
     </g>
    </g>
    <g id="xtick_20">
     <g id="line2d_24">
      <g>
       <use xlink:href="#m9c8ea6142a" x="242.695951" y="173.52" style="fill: #262626; stroke: #262626; stroke-width: 1.25"/>
      </g>
     </g>
     <g id="text_9">
      <!-- 48 -->
      <g style="fill: #262626" transform="translate(233.695951 355.259375) scale(0.18 -0.18)">
       <defs>
        <path id="TimesNewRomanPS-BoldMT-38" d="M 2181 2394 
Q 2628 2066 2801 1783 
Q 2975 1500 2975 1134 
Q 2975 622 2589 267 
Q 2203 -88 1541 -88 
Q 913 -88 569 221 
Q 225 531 225 978 
Q 225 1319 423 1575 
Q 622 1831 1084 2044 
Q 581 2428 439 2672 
Q 297 2916 297 3238 
Q 297 3663 658 3986 
Q 1019 4309 1647 4309 
Q 2253 4309 2579 4023 
Q 2906 3738 2906 3338 
Q 2906 3038 2729 2808 
Q 2553 2578 2181 2394 
z
M 1944 2553 
Q 2059 2709 2115 2903 
Q 2172 3097 2172 3328 
Q 2172 3734 1997 3950 
Q 1866 4116 1634 4116 
Q 1425 4116 1278 3964 
Q 1131 3813 1131 3588 
Q 1131 3359 1295 3114 
Q 1459 2869 1944 2553 
z
M 1319 1894 
Q 1222 1806 1181 1734 
Q 1119 1625 1069 1415 
Q 1019 1206 1019 978 
Q 1019 684 1094 486 
Q 1169 288 1308 200 
Q 1447 113 1594 113 
Q 1822 113 1978 280 
Q 2134 447 2134 738 
Q 2134 1344 1319 1894 
z
" transform="scale(0.015625)"/>
       </defs>
       <use xlink:href="#TimesNewRomanPS-BoldMT-34"/>
       <use xlink:href="#TimesNewRomanPS-BoldMT-38" x="50"/>
      </g>
     </g>
    </g>
    <g id="xtick_21">
     <g id="line2d_25">
      <g>
       <use xlink:href="#m9c8ea6142a" x="279.146686" y="173.52" style="fill: #262626; stroke: #262626; stroke-width: 1.25"/>
      </g>
     </g>
     <g id="text_10">
      <!-- 60 -->
      <g style="fill: #262626" transform="translate(270.146686 355.259375) scale(0.18 -0.18)">
       <use xlink:href="#TimesNewRomanPS-BoldMT-36"/>
       <use xlink:href="#TimesNewRomanPS-BoldMT-30" x="50"/>
      </g>
     </g>
    </g>
    <g id="xtick_22">
     <g id="line2d_26">
      <g>
       <use xlink:href="#m9c8ea6142a" x="315.597421" y="173.52" style="fill: #262626; stroke: #262626; stroke-width: 1.25"/>
      </g>
     </g>
     <g id="text_11">
      <!-- 72 -->
      <g style="fill: #262626" transform="translate(306.597421 355.259375) scale(0.18 -0.18)">
       <defs>
        <path id="TimesNewRomanPS-BoldMT-37" d="M 1134 -88 
L 2288 3409 
L 1409 3409 
Q 894 3409 634 3275 
Q 453 3181 334 2922 
L 216 2922 
L 522 4238 
L 3047 4238 
L 1625 -88 
L 1134 -88 
z
" transform="scale(0.015625)"/>
       </defs>
       <use xlink:href="#TimesNewRomanPS-BoldMT-37"/>
       <use xlink:href="#TimesNewRomanPS-BoldMT-32" x="50"/>
      </g>
     </g>
    </g>
    <g id="xtick_23">
     <g id="line2d_27">
      <g>
       <use xlink:href="#m9c8ea6142a" x="352.048156" y="173.52" style="fill: #262626; stroke: #262626; stroke-width: 1.25"/>
      </g>
     </g>
     <g id="text_12">
      <!-- 84 -->
      <g style="fill: #262626" transform="translate(343.048156 355.259375) scale(0.18 -0.18)">
       <use xlink:href="#TimesNewRomanPS-BoldMT-38"/>
       <use xlink:href="#TimesNewRomanPS-BoldMT-34" x="50"/>
      </g>
     </g>
    </g>
    <g id="xtick_24">
     <g id="line2d_28">
      <g>
       <use xlink:href="#m9c8ea6142a" x="388.498891" y="173.52" style="fill: #262626; stroke: #262626; stroke-width: 1.25"/>
      </g>
     </g>
     <g id="text_13">
      <!-- 96 -->
      <g style="fill: #262626" transform="translate(379.498891 355.259375) scale(0.18 -0.18)">
       <defs>
        <path id="TimesNewRomanPS-BoldMT-39" d="M 197 -88 
L 197 0 
Q 716 119 1077 350 
Q 1438 581 1648 922 
Q 1859 1263 1944 1706 
Q 1750 1606 1614 1567 
Q 1478 1528 1328 1528 
Q 847 1528 526 1875 
Q 206 2222 206 2825 
Q 206 3244 379 3592 
Q 553 3941 875 4133 
Q 1197 4325 1544 4325 
Q 1916 4325 2247 4112 
Q 2578 3900 2775 3497 
Q 2972 3094 2972 2578 
Q 2972 1909 2651 1296 
Q 2331 684 1697 314 
Q 1063 -56 197 -88 
z
M 1991 1969 
Q 2022 2319 2022 2584 
Q 2022 3153 1891 3644 
Q 1816 3916 1669 4044 
Q 1591 4113 1466 4113 
Q 1309 4113 1222 3978 
Q 1100 3794 1100 3275 
Q 1100 2409 1306 2081 
Q 1441 1869 1669 1869 
Q 1791 1869 1991 1969 
z
" transform="scale(0.015625)"/>
       </defs>
       <use xlink:href="#TimesNewRomanPS-BoldMT-39"/>
       <use xlink:href="#TimesNewRomanPS-BoldMT-36" x="50"/>
      </g>
     </g>
    </g>
    <g id="xtick_25">
     <g id="line2d_29">
      <g>
       <use xlink:href="#m9c8ea6142a" x="424.949625" y="173.52" style="fill: #262626; stroke: #262626; stroke-width: 1.25"/>
      </g>
     </g>
     <g id="text_14">
      <!-- 108 -->
      <g style="fill: #262626" transform="translate(411.449625 355.259375) scale(0.18 -0.18)">
       <use xlink:href="#TimesNewRomanPS-BoldMT-31"/>
       <use xlink:href="#TimesNewRomanPS-BoldMT-30" x="50"/>
       <use xlink:href="#TimesNewRomanPS-BoldMT-38" x="100"/>
      </g>
     </g>
    </g>
    <g id="xtick_26">
     <g id="line2d_30">
      <g>
       <use xlink:href="#m9c8ea6142a" x="461.40036" y="173.52" style="fill: #262626; stroke: #262626; stroke-width: 1.25"/>
      </g>
     </g>
     <g id="text_15">
      <!-- 120 -->
      <g style="fill: #262626" transform="translate(447.90036 355.259375) scale(0.18 -0.18)">
       <use xlink:href="#TimesNewRomanPS-BoldMT-31"/>
       <use xlink:href="#TimesNewRomanPS-BoldMT-32" x="50"/>
       <use xlink:href="#TimesNewRomanPS-BoldMT-30" x="100"/>
      </g>
     </g>
    </g>
    <g id="xtick_27">
     <g id="line2d_31">
      <g>
       <use xlink:href="#m9c8ea6142a" x="497.851095" y="173.52" style="fill: #262626; stroke: #262626; stroke-width: 1.25"/>
      </g>
     </g>
     <g id="text_16">
      <!-- 132 -->
      <g style="fill: #262626" transform="translate(484.351095 355.259375) scale(0.18 -0.18)">
       <use xlink:href="#TimesNewRomanPS-BoldMT-31"/>
       <use xlink:href="#TimesNewRomanPS-BoldMT-33" x="50"/>
       <use xlink:href="#TimesNewRomanPS-BoldMT-32" x="100"/>
      </g>
     </g>
    </g>
    <g id="xtick_28">
     <g id="line2d_32">
      <g>
       <use xlink:href="#m9c8ea6142a" x="534.30183" y="173.52" style="fill: #262626; stroke: #262626; stroke-width: 1.25"/>
      </g>
     </g>
     <g id="text_17">
      <!-- 144 -->
      <g style="fill: #262626" transform="translate(520.80183 355.259375) scale(0.18 -0.18)">
       <use xlink:href="#TimesNewRomanPS-BoldMT-31"/>
       <use xlink:href="#TimesNewRomanPS-BoldMT-34" x="50"/>
       <use xlink:href="#TimesNewRomanPS-BoldMT-34" x="100"/>
      </g>
     </g>
    </g>
    <g id="xtick_29">
     <g id="line2d_33">
      <g>
       <use xlink:href="#m9c8ea6142a" x="570.752565" y="173.52" style="fill: #262626; stroke: #262626; stroke-width: 1.25"/>
      </g>
     </g>
     <g id="text_18">
      <!-- 156 -->
      <g style="fill: #262626" transform="translate(557.252565 355.259375) scale(0.18 -0.18)">
       <defs>
        <path id="TimesNewRomanPS-BoldMT-35" d="M 975 4238 
L 2959 4238 
L 2644 3431 
L 975 3431 
L 816 3009 
Q 1894 2969 2475 2472 
Q 2953 2063 2953 1453 
Q 2953 1063 2731 689 
Q 2509 316 2106 114 
Q 1703 -88 1222 -88 
Q 703 -88 425 106 
Q 231 244 231 419 
Q 231 553 332 656 
Q 434 759 569 759 
Q 691 759 816 709 
Q 941 659 1244 447 
Q 1434 316 1572 266 
Q 1669 228 1791 228 
Q 2047 228 2226 415 
Q 2406 603 2406 866 
Q 2406 1416 1856 1759 
Q 1306 2103 469 2103 
Q 384 2103 216 2100 
L 975 4238 
z
" transform="scale(0.015625)"/>
       </defs>
       <use xlink:href="#TimesNewRomanPS-BoldMT-31"/>
       <use xlink:href="#TimesNewRomanPS-BoldMT-35" x="50"/>
       <use xlink:href="#TimesNewRomanPS-BoldMT-36" x="100"/>
      </g>
     </g>
    </g>
    <g id="xtick_30">
     <g id="line2d_34">
      <g>
       <use xlink:href="#m9c8ea6142a" x="607.2033" y="173.52" style="fill: #262626; stroke: #262626; stroke-width: 1.25"/>
      </g>
     </g>
     <g id="text_19">
      <!-- 168 -->
      <g style="fill: #262626" transform="translate(593.7033 355.259375) scale(0.18 -0.18)">
       <use xlink:href="#TimesNewRomanPS-BoldMT-31"/>
       <use xlink:href="#TimesNewRomanPS-BoldMT-36" x="50"/>
       <use xlink:href="#TimesNewRomanPS-BoldMT-38" x="100"/>
      </g>
     </g>
    </g>
    <g id="text_20">
     <!-- Hours in Representative Week -->
     <g style="fill: #262626" transform="translate(233.603906 375.310313) scale(0.18 -0.18)">
      <defs>
       <path id="TimesNewRomanPS-BoldMT-48" d="M 1750 2038 
L 1750 725 
Q 1750 400 1786 319 
Q 1822 238 1926 177 
Q 2031 116 2209 116 
L 2350 116 
L 2350 0 
L 134 0 
L 134 116 
L 275 116 
Q 459 116 572 181 
Q 653 225 697 331 
Q 731 406 731 725 
L 731 3513 
Q 731 3838 697 3919 
Q 663 4000 558 4061 
Q 453 4122 275 4122 
L 134 4122 
L 134 4238 
L 2350 4238 
L 2350 4122 
L 2209 4122 
Q 2025 4122 1913 4056 
Q 1831 4013 1784 3906 
Q 1750 3831 1750 3513 
L 1750 2313 
L 3247 2313 
L 3247 3513 
Q 3247 3838 3212 3919 
Q 3178 4000 3072 4061 
Q 2966 4122 2788 4122 
L 2650 4122 
L 2650 4238 
L 4863 4238 
L 4863 4122 
L 4725 4122 
Q 4538 4122 4428 4056 
Q 4347 4013 4300 3906 
Q 4266 3831 4266 3513 
L 4266 725 
Q 4266 400 4300 319 
Q 4334 238 4440 177 
Q 4547 116 4725 116 
L 4863 116 
L 4863 0 
L 2650 0 
L 2650 116 
L 2788 116 
Q 2975 116 3084 181 
Q 3166 225 3213 331 
Q 3247 406 3247 725 
L 3247 2038 
L 1750 2038 
z
" transform="scale(0.015625)"/>
       <path id="TimesNewRomanPS-BoldMT-6f" d="M 1594 3009 
Q 1975 3009 2303 2812 
Q 2631 2616 2801 2253 
Q 2972 1891 2972 1459 
Q 2972 838 2656 419 
Q 2275 -88 1603 -88 
Q 944 -88 587 375 
Q 231 838 231 1447 
Q 231 2075 595 2542 
Q 959 3009 1594 3009 
z
M 1606 2788 
Q 1447 2788 1333 2667 
Q 1219 2547 1183 2192 
Q 1147 1838 1147 1206 
Q 1147 872 1191 581 
Q 1225 359 1337 243 
Q 1450 128 1594 128 
Q 1734 128 1828 206 
Q 1950 313 1991 503 
Q 2053 800 2053 1703 
Q 2053 2234 1993 2432 
Q 1934 2631 1819 2722 
Q 1738 2788 1606 2788 
z
" transform="scale(0.015625)"/>
       <path id="TimesNewRomanPS-BoldMT-75" d="M 3038 2922 
L 3038 634 
Q 3038 300 3100 217 
Q 3163 134 3353 113 
L 3353 0 
L 2163 0 
L 2163 391 
Q 1953 141 1743 26 
Q 1534 -88 1275 -88 
Q 1028 -88 836 64 
Q 644 216 578 419 
Q 513 622 513 1128 
L 513 2288 
Q 513 2619 452 2700 
Q 391 2781 197 2806 
L 197 2922 
L 1388 2922 
L 1388 925 
Q 1388 613 1417 522 
Q 1447 431 1511 384 
Q 1575 338 1659 338 
Q 1772 338 1863 397 
Q 1988 478 2163 725 
L 2163 2288 
Q 2163 2619 2102 2700 
Q 2041 2781 1847 2806 
L 1847 2922 
L 3038 2922 
z
" transform="scale(0.015625)"/>
       <path id="TimesNewRomanPS-BoldMT-73" d="M 2063 3003 
L 2109 2006 
L 2003 2006 
Q 1813 2450 1608 2612 
Q 1403 2775 1200 2775 
Q 1072 2775 981 2689 
Q 891 2603 891 2491 
Q 891 2406 953 2328 
Q 1053 2200 1512 1889 
Q 1972 1578 2117 1361 
Q 2263 1144 2263 875 
Q 2263 631 2141 397 
Q 2019 163 1797 37 
Q 1575 -88 1306 -88 
Q 1097 -88 747 44 
Q 653 78 619 78 
Q 516 78 447 -78 
L 344 -78 
L 294 972 
L 400 972 
Q 541 559 786 353 
Q 1031 147 1250 147 
Q 1400 147 1495 239 
Q 1591 331 1591 463 
Q 1591 613 1497 722 
Q 1403 831 1078 1053 
Q 600 1384 459 1559 
Q 253 1816 253 2125 
Q 253 2463 486 2736 
Q 719 3009 1159 3009 
Q 1397 3009 1619 2894 
Q 1703 2847 1756 2847 
Q 1813 2847 1847 2870 
Q 1881 2894 1956 3003 
L 2063 3003 
z
" transform="scale(0.015625)"/>
       <path id="TimesNewRomanPS-BoldMT-6e" d="M 1409 2922 
L 1409 2544 
Q 1634 2788 1840 2898 
Q 2047 3009 2284 3009 
Q 2569 3009 2756 2851 
Q 2944 2694 3006 2459 
Q 3056 2281 3056 1775 
L 3056 638 
Q 3056 300 3117 217 
Q 3178 134 3372 113 
L 3372 0 
L 1894 0 
L 1894 113 
Q 2059 134 2131 250 
Q 2181 328 2181 638 
L 2181 1938 
Q 2181 2297 2153 2390 
Q 2125 2484 2058 2536 
Q 1991 2588 1909 2588 
Q 1641 2588 1409 2203 
L 1409 638 
Q 1409 309 1470 221 
Q 1531 134 1697 113 
L 1697 0 
L 219 0 
L 219 113 
Q 403 131 481 231 
Q 534 300 534 638 
L 534 2288 
Q 534 2619 473 2700 
Q 413 2781 219 2806 
L 219 2922 
L 1409 2922 
z
" transform="scale(0.015625)"/>
       <path id="TimesNewRomanPS-BoldMT-52" d="M 1700 1931 
L 1700 744 
Q 1700 400 1742 311 
Q 1784 222 1890 169 
Q 1997 116 2288 116 
L 2288 0 
L 119 0 
L 119 116 
Q 413 116 517 170 
Q 622 225 664 312 
Q 706 400 706 744 
L 706 3494 
Q 706 3838 664 3927 
Q 622 4016 515 4069 
Q 409 4122 119 4122 
L 119 4238 
L 2088 4238 
Q 2856 4238 3212 4131 
Q 3569 4025 3794 3739 
Q 4019 3453 4019 3069 
Q 4019 2600 3681 2294 
Q 3466 2100 3078 2003 
L 4097 569 
Q 4297 291 4381 222 
Q 4509 125 4678 116 
L 4678 0 
L 3344 0 
L 1978 1931 
L 1700 1931 
z
M 1700 4009 
L 1700 2153 
L 1878 2153 
Q 2313 2153 2528 2233 
Q 2744 2313 2867 2520 
Q 2991 2728 2991 3063 
Q 2991 3547 2764 3778 
Q 2538 4009 2034 4009 
L 1700 4009 
z
" transform="scale(0.015625)"/>
       <path id="TimesNewRomanPS-BoldMT-70" d="M 1347 297 
L 1347 -791 
Q 1347 -1016 1383 -1097 
Q 1419 -1178 1494 -1215 
Q 1569 -1253 1788 -1253 
L 1788 -1369 
L 122 -1369 
L 122 -1253 
Q 316 -1247 409 -1144 
Q 472 -1072 472 -772 
L 472 2313 
Q 472 2622 400 2708 
Q 328 2794 122 2806 
L 122 2922 
L 1347 2922 
L 1347 2538 
Q 1500 2763 1659 2863 
Q 1888 3009 2156 3009 
Q 2478 3009 2742 2806 
Q 3006 2603 3143 2245 
Q 3281 1888 3281 1475 
Q 3281 1031 3139 664 
Q 2997 297 2726 104 
Q 2456 -88 2125 -88 
Q 1884 -88 1675 19 
Q 1519 100 1347 297 
z
M 1347 613 
Q 1616 231 1922 231 
Q 2091 231 2200 409 
Q 2363 672 2363 1409 
Q 2363 2166 2184 2444 
Q 2066 2628 1866 2628 
Q 1550 2628 1347 2172 
L 1347 613 
z
" transform="scale(0.015625)"/>
       <path id="TimesNewRomanPS-BoldMT-61" d="M 1828 431 
Q 1294 -41 869 -41 
Q 619 -41 453 123 
Q 288 288 288 534 
Q 288 869 575 1136 
Q 863 1403 1828 1847 
L 1828 2141 
Q 1828 2472 1792 2558 
Q 1756 2644 1656 2708 
Q 1556 2772 1431 2772 
Q 1228 2772 1097 2681 
Q 1016 2625 1016 2550 
Q 1016 2484 1103 2388 
Q 1222 2253 1222 2128 
Q 1222 1975 1108 1867 
Q 994 1759 809 1759 
Q 613 1759 480 1878 
Q 347 1997 347 2156 
Q 347 2381 525 2586 
Q 703 2791 1022 2900 
Q 1341 3009 1684 3009 
Q 2100 3009 2342 2832 
Q 2584 2656 2656 2450 
Q 2700 2319 2700 1847 
L 2700 713 
Q 2700 513 2715 461 
Q 2731 409 2762 384 
Q 2794 359 2834 359 
Q 2916 359 3000 475 
L 3094 400 
Q 2938 169 2770 64 
Q 2603 -41 2391 -41 
Q 2141 -41 2000 76 
Q 1859 194 1828 431 
z
M 1828 659 
L 1828 1638 
Q 1450 1416 1266 1163 
Q 1144 994 1144 822 
Q 1144 678 1247 569 
Q 1325 484 1466 484 
Q 1622 484 1828 659 
z
" transform="scale(0.015625)"/>
       <path id="TimesNewRomanPS-BoldMT-76" d="M 1534 -88 
L 550 2178 
Q 372 2588 272 2697 
Q 200 2778 59 2806 
L 59 2922 
L 1613 2922 
L 1613 2806 
Q 1466 2806 1413 2753 
Q 1338 2684 1338 2591 
Q 1338 2475 1475 2156 
L 1956 1059 
L 2341 2006 
Q 2506 2413 2506 2581 
Q 2506 2678 2436 2739 
Q 2366 2800 2188 2806 
L 2188 2922 
L 3144 2922 
L 3144 2806 
Q 3006 2788 2918 2703 
Q 2831 2619 2656 2206 
L 1681 -88 
L 1534 -88 
z
" transform="scale(0.015625)"/>
      </defs>
      <use xlink:href="#TimesNewRomanPS-BoldMT-48"/>
      <use xlink:href="#TimesNewRomanPS-BoldMT-6f" x="77.783203"/>
      <use xlink:href="#TimesNewRomanPS-BoldMT-75" x="127.783203"/>
      <use xlink:href="#TimesNewRomanPS-BoldMT-72" x="183.398438"/>
      <use xlink:href="#TimesNewRomanPS-BoldMT-73" x="227.783203"/>
      <use xlink:href="#TimesNewRomanPS-BoldMT-20" x="266.699219"/>
      <use xlink:href="#TimesNewRomanPS-BoldMT-69" x="291.699219"/>
      <use xlink:href="#TimesNewRomanPS-BoldMT-6e" x="319.482422"/>
      <use xlink:href="#TimesNewRomanPS-BoldMT-20" x="375.097656"/>
      <use xlink:href="#TimesNewRomanPS-BoldMT-52" x="400.097656"/>
      <use xlink:href="#TimesNewRomanPS-BoldMT-65" x="472.314453"/>
      <use xlink:href="#TimesNewRomanPS-BoldMT-70" x="516.699219"/>
      <use xlink:href="#TimesNewRomanPS-BoldMT-72" x="572.314453"/>
      <use xlink:href="#TimesNewRomanPS-BoldMT-65" x="614.949219"/>
      <use xlink:href="#TimesNewRomanPS-BoldMT-73" x="659.333984"/>
      <use xlink:href="#TimesNewRomanPS-BoldMT-65" x="698.25"/>
      <use xlink:href="#TimesNewRomanPS-BoldMT-6e" x="742.634766"/>
      <use xlink:href="#TimesNewRomanPS-BoldMT-74" x="798.25"/>
      <use xlink:href="#TimesNewRomanPS-BoldMT-61" x="831.550781"/>
      <use xlink:href="#TimesNewRomanPS-BoldMT-74" x="881.550781"/>
      <use xlink:href="#TimesNewRomanPS-BoldMT-69" x="914.851562"/>
      <use xlink:href="#TimesNewRomanPS-BoldMT-76" x="942.634766"/>
      <use xlink:href="#TimesNewRomanPS-BoldMT-65" x="992.634766"/>
      <use xlink:href="#TimesNewRomanPS-BoldMT-20" x="1037.019531"/>
      <use xlink:href="#TimesNewRomanPS-BoldMT-57" x="1060.269531"/>
      <use xlink:href="#TimesNewRomanPS-BoldMT-65" x="1154.769531"/>
      <use xlink:href="#TimesNewRomanPS-BoldMT-65" x="1199.154297"/>
      <use xlink:href="#TimesNewRomanPS-BoldMT-6b" x="1243.539062"/>
     </g>
    </g>
   </g>
   <g id="matplotlib.axis_4">
    <g id="ytick_4">
     <g id="line2d_35">
      <g>
       <use xlink:href="#mcbf9b81ce5" x="629.529375" y="332.28" style="fill: #262626; stroke: #262626; stroke-width: 1.25"/>
      </g>
     </g>
     <g id="text_21">
      <!-- 0.0 -->
      <g style="fill: #262626" transform="translate(45.529375 338.239688) scale(0.18 -0.18)">
       <use xlink:href="#TimesNewRomanPS-BoldMT-30"/>
       <use xlink:href="#TimesNewRomanPS-BoldMT-2e" x="50"/>
       <use xlink:href="#TimesNewRomanPS-BoldMT-30" x="75"/>
      </g>
     </g>
    </g>
    <g id="ytick_5">
     <g id="line2d_36">
      <g>
       <use xlink:href="#mcbf9b81ce5" x="629.529375" y="256.68" style="fill: #262626; stroke: #262626; stroke-width: 1.25"/>
      </g>
     </g>
     <g id="text_22">
      <!-- 0.5 -->
      <g style="fill: #262626" transform="translate(45.529375 262.639688) scale(0.18 -0.18)">
       <use xlink:href="#TimesNewRomanPS-BoldMT-30"/>
       <use xlink:href="#TimesNewRomanPS-BoldMT-2e" x="50"/>
       <use xlink:href="#TimesNewRomanPS-BoldMT-35" x="75"/>
      </g>
     </g>
    </g>
    <g id="ytick_6">
     <g id="line2d_37">
      <g>
       <use xlink:href="#mcbf9b81ce5" x="629.529375" y="181.08" style="fill: #262626; stroke: #262626; stroke-width: 1.25"/>
      </g>
     </g>
     <g id="text_23">
      <!-- 1.0 -->
      <g style="fill: #262626" transform="translate(45.529375 187.039688) scale(0.18 -0.18)">
       <use xlink:href="#TimesNewRomanPS-BoldMT-31"/>
       <use xlink:href="#TimesNewRomanPS-BoldMT-2e" x="50"/>
       <use xlink:href="#TimesNewRomanPS-BoldMT-30" x="75"/>
      </g>
     </g>
    </g>
    <g id="text_24">
     <!-- State of Charge -->
     <g style="fill: #262626" transform="translate(37.645313 316.665) rotate(-90) scale(0.18 -0.18)">
      <defs>
       <path id="TimesNewRomanPS-BoldMT-53" d="M 3006 4334 
L 3041 2922 
L 2913 2922 
Q 2822 3453 2467 3776 
Q 2113 4100 1700 4100 
Q 1381 4100 1195 3929 
Q 1009 3759 1009 3538 
Q 1009 3397 1075 3288 
Q 1166 3141 1366 2997 
Q 1513 2894 2044 2631 
Q 2788 2266 3047 1941 
Q 3303 1616 3303 1197 
Q 3303 666 2889 283 
Q 2475 -100 1838 -100 
Q 1638 -100 1459 -59 
Q 1281 -19 1013 94 
Q 863 156 766 156 
Q 684 156 593 93 
Q 503 31 447 -97 
L 331 -97 
L 331 1503 
L 447 1503 
Q 584 828 976 473 
Q 1369 119 1822 119 
Q 2172 119 2380 309 
Q 2588 500 2588 753 
Q 2588 903 2508 1043 
Q 2428 1184 2265 1311 
Q 2103 1438 1691 1641 
Q 1113 1925 859 2125 
Q 606 2325 470 2572 
Q 334 2819 334 3116 
Q 334 3622 706 3978 
Q 1078 4334 1644 4334 
Q 1850 4334 2044 4284 
Q 2191 4247 2402 4145 
Q 2613 4044 2697 4044 
Q 2778 4044 2825 4094 
Q 2872 4144 2913 4334 
L 3006 4334 
z
" transform="scale(0.015625)"/>
       <path id="TimesNewRomanPS-BoldMT-66" d="M 1497 2616 
L 1497 588 
Q 1497 294 1559 219 
Q 1659 103 1928 113 
L 1928 0 
L 206 0 
L 206 113 
Q 403 116 486 158 
Q 569 200 600 275 
Q 631 350 631 588 
L 631 2616 
L 206 2616 
L 206 2922 
L 631 2922 
L 631 3138 
L 628 3284 
Q 628 3734 958 4034 
Q 1288 4334 1850 4334 
Q 2234 4334 2420 4190 
Q 2606 4047 2606 3872 
Q 2606 3731 2490 3628 
Q 2375 3525 2184 3525 
Q 2022 3525 1926 3609 
Q 1831 3694 1831 3797 
Q 1831 3825 1850 3913 
Q 1863 3966 1863 4013 
Q 1863 4078 1825 4109 
Q 1775 4156 1703 4156 
Q 1613 4156 1552 4081 
Q 1491 4006 1491 3841 
L 1497 3294 
L 1497 2922 
L 1928 2922 
L 1928 2616 
L 1497 2616 
z
" transform="scale(0.015625)"/>
       <path id="TimesNewRomanPS-BoldMT-43" d="M 4272 4334 
L 4272 2866 
L 4150 2866 
Q 4013 3441 3638 3747 
Q 3263 4053 2788 4053 
Q 2391 4053 2059 3825 
Q 1728 3597 1575 3228 
Q 1378 2756 1378 2178 
Q 1378 1609 1522 1142 
Q 1666 675 1972 436 
Q 2278 197 2766 197 
Q 3166 197 3498 372 
Q 3831 547 4200 975 
L 4200 609 
Q 3844 238 3458 70 
Q 3072 -97 2556 -97 
Q 1878 -97 1351 175 
Q 825 447 539 956 
Q 253 1466 253 2041 
Q 253 2647 570 3190 
Q 888 3734 1427 4034 
Q 1966 4334 2572 4334 
Q 3019 4334 3516 4141 
Q 3803 4028 3881 4028 
Q 3981 4028 4054 4101 
Q 4128 4175 4150 4334 
L 4272 4334 
z
" transform="scale(0.015625)"/>
       <path id="TimesNewRomanPS-BoldMT-67" d="M 2091 2888 
L 3075 2888 
L 3075 2544 
L 2516 2544 
Q 2669 2391 2728 2266 
Q 2803 2097 2803 1913 
Q 2803 1600 2629 1370 
Q 2456 1141 2157 1011 
Q 1859 881 1628 881 
Q 1609 881 1253 897 
Q 1113 897 1017 805 
Q 922 713 922 584 
Q 922 472 1008 400 
Q 1094 328 1288 328 
L 1828 334 
Q 2484 334 2731 191 
Q 3084 -9 3084 -425 
Q 3084 -691 2921 -908 
Q 2759 -1125 2494 -1228 
Q 2091 -1381 1566 -1381 
Q 1172 -1381 847 -1304 
Q 522 -1228 381 -1092 
Q 241 -956 241 -806 
Q 241 -663 348 -548 
Q 456 -434 750 -356 
Q 344 -156 344 200 
Q 344 416 509 619 
Q 675 822 1034 972 
Q 616 1125 428 1375 
Q 241 1625 241 1953 
Q 241 2381 591 2695 
Q 941 3009 1491 3009 
Q 1781 3009 2091 2888 
z
M 1550 2816 
Q 1369 2816 1244 2633 
Q 1119 2450 1119 1875 
Q 1119 1409 1242 1236 
Q 1366 1063 1534 1063 
Q 1722 1063 1847 1234 
Q 1972 1406 1972 1903 
Q 1972 2463 1831 2666 
Q 1731 2816 1550 2816 
z
M 1366 -431 
Q 1047 -431 944 -484 
Q 766 -581 766 -747 
Q 766 -906 950 -1036 
Q 1134 -1166 1644 -1166 
Q 2078 -1166 2326 -1050 
Q 2575 -934 2575 -725 
Q 2575 -647 2528 -594 
Q 2444 -500 2273 -465 
Q 2103 -431 1366 -431 
z
" transform="scale(0.015625)"/>
      </defs>
      <use xlink:href="#TimesNewRomanPS-BoldMT-53"/>
      <use xlink:href="#TimesNewRomanPS-BoldMT-74" x="55.615234"/>
      <use xlink:href="#TimesNewRomanPS-BoldMT-61" x="88.916016"/>
      <use xlink:href="#TimesNewRomanPS-BoldMT-74" x="138.916016"/>
      <use xlink:href="#TimesNewRomanPS-BoldMT-65" x="172.216797"/>
      <use xlink:href="#TimesNewRomanPS-BoldMT-20" x="216.601562"/>
      <use xlink:href="#TimesNewRomanPS-BoldMT-6f" x="241.601562"/>
      <use xlink:href="#TimesNewRomanPS-BoldMT-66" x="291.601562"/>
      <use xlink:href="#TimesNewRomanPS-BoldMT-20" x="324.902344"/>
      <use xlink:href="#TimesNewRomanPS-BoldMT-43" x="349.902344"/>
      <use xlink:href="#TimesNewRomanPS-BoldMT-68" x="422.119141"/>
      <use xlink:href="#TimesNewRomanPS-BoldMT-61" x="477.734375"/>
      <use xlink:href="#TimesNewRomanPS-BoldMT-72" x="527.734375"/>
      <use xlink:href="#TimesNewRomanPS-BoldMT-67" x="572.119141"/>
      <use xlink:href="#TimesNewRomanPS-BoldMT-65" x="622.119141"/>
     </g>
    </g>
   </g>
   <g id="line2d_38">
    <path d="M 96.893011 251.189193 
L 106.005695 251.290514 
L 109.043256 262.069214 
L 112.080818 283.588378 
L 115.118379 294.353621 
L 121.193501 294.38522 
L 142.45643 237.756605 
L 197.132532 238.463025 
L 215.3579 190.053762 
L 221.433022 190.172259 
L 224.470583 200.976425 
L 233.583267 265.583356 
L 236.620828 282.647469 
L 239.65839 293.413104 
L 242.695951 314.919208 
L 245.733512 325.671396 
L 273.071563 325.696137 
L 282.184247 301.367379 
L 336.860349 301.598404 
L 361.160839 236.869456 
L 412.79938 237.543032 
L 434.062309 181.08 
L 458.362799 181.5682 
L 461.40036 192.375952 
L 479.625728 321.530566 
L 482.663289 332.28 
L 497.851095 332.28 
L 503.926218 316.051963 
L 558.60232 316.173243 
L 579.865249 259.481159 
L 604.165739 259.723468 
L 604.165739 259.723468 
" clip-path="url(#p5172bc6659)" style="fill: none; stroke: #2ca02c; stroke-width: 1.5; stroke-linecap: round"/>
   </g>
   <g id="line2d_39">
    <path d="M 96.893011 209.399832 
L 106.005695 209.553368 
L 109.043256 230.137075 
L 112.080818 291.487604 
L 115.118379 332.28 
L 121.193501 332.28 
L 124.231063 304.110071 
L 130.306185 242.550713 
L 133.343746 242.5881 
L 139.418869 181.08 
L 145.493991 181.143 
L 163.719359 181.520449 
L 166.75692 216.123536 
L 169.794481 291.487604 
L 172.832042 332.28 
L 200.170094 332.28 
L 212.320339 209.165652 
L 215.3579 181.08 
L 221.433022 181.143 
L 236.620828 181.457606 
L 239.65839 218.160892 
L 242.695951 295.624284 
L 245.733512 332.28 
L 342.935472 332.28 
L 345.973033 304.147489 
L 358.123278 181.08 
L 388.498891 181.70882 
L 391.536452 222.546957 
L 394.574013 290.880707 
L 397.611574 318.410586 
L 400.649135 332.28 
L 415.836942 332.28 
L 418.874503 304.147489 
L 431.024748 181.08 
L 443.174993 181.143 
L 455.325238 181.394738 
L 458.362799 181.08 
L 467.475483 181.268921 
L 470.513044 222.107241 
L 473.550605 297.597047 
L 476.588167 332.28 
L 497.851095 332.28 
L 503.926218 270.697172 
L 516.076463 270.799746 
L 519.114024 291.487604 
L 522.151585 332.28 
L 561.639881 332.28 
L 564.677443 304.147489 
L 576.827687 181.08 
L 582.90281 181.143 
L 604.165739 181.583266 
L 604.165739 181.583266 
" clip-path="url(#p5172bc6659)" style="fill: none; stroke: #1f77b4; stroke-width: 1.5; stroke-linecap: round"/>
   </g>
   <g id="line2d_40">
    <path d="M 96.893011 203.681391 
L 109.043256 203.895589 
L 112.080818 279.218984 
L 115.118379 332.28 
L 124.231063 332.28 
L 127.268624 298.684506 
L 130.306185 239.831496 
L 136.381307 239.90852 
L 139.418869 181.08 
L 145.493991 181.143 
L 160.681797 181.457606 
L 166.75692 232.756136 
L 169.794481 306.677566 
L 172.832042 332.28 
L 200.170094 332.28 
L 203.207655 298.761563 
L 209.282777 181.08 
L 224.470583 181.143 
L 236.620828 181.394738 
L 239.65839 207.049373 
L 242.695951 306.677566 
L 245.733512 332.28 
L 349.010594 332.28 
L 352.048156 298.761563 
L 358.123278 181.08 
L 379.386207 181.520449 
L 385.461329 332.154498 
L 421.912064 332.155124 
L 424.949625 273.288168 
L 427.987187 239.90852 
L 431.024748 181.08 
L 440.137432 181.143 
L 464.437922 181.646056 
L 470.513044 332.28 
L 567.715004 332.28 
L 570.752565 298.761563 
L 576.827687 181.08 
L 582.90281 181.143 
L 604.165739 181.583266 
L 604.165739 181.583266 
" clip-path="url(#p5172bc6659)" style="fill: none; stroke: #ff7f0e; stroke-width: 1.5; stroke-linecap: round"/>
   </g>
   <g id="patch_8">
    <path d="M 71.529375 339.84 
L 71.529375 173.52 
" style="fill: none; stroke: #262626; stroke-width: 1.25; stroke-linejoin: miter; stroke-linecap: square"/>
   </g>
   <g id="patch_9">
    <path d="M 629.529375 339.84 
L 629.529375 173.52 
" style="fill: none; stroke: #262626; stroke-width: 1.25; stroke-linejoin: miter; stroke-linecap: square"/>
   </g>
   <g id="patch_10">
    <path d="M 71.529375 339.84 
L 629.529375 339.84 
" style="fill: none; stroke: #262626; stroke-width: 1.25; stroke-linejoin: miter; stroke-linecap: square"/>
   </g>
   <g id="patch_11">
    <path d="M 71.529375 173.52 
L 629.529375 173.52 
" style="fill: none; stroke: #262626; stroke-width: 1.25; stroke-linejoin: miter; stroke-linecap: square"/>
   </g>
   <g id="legend_1">
    <g id="patch_12">
     <path d="M 650.266875 249.173906 
L 786.429375 249.173906 
Q 789.429375 249.173906 789.429375 246.173906 
L 789.429375 184.02 
Q 789.429375 181.02 786.429375 181.02 
L 650.266875 181.02 
Q 647.266875 181.02 647.266875 184.02 
L 647.266875 246.173906 
Q 647.266875 249.173906 650.266875 249.173906 
z
" style="fill: #ffffff; opacity: 0.8; stroke: #cccccc; stroke-linejoin: miter"/>
    </g>
    <g id="line2d_41">
     <path d="M 653.266875 192.27 
L 668.266875 192.27 
L 683.266875 192.27 
" style="fill: none; stroke: #2ca02c; stroke-width: 1.5; stroke-linecap: round"/>
    </g>
    <g id="text_25">
     <!-- low cost -->
     <g style="fill: #262626" transform="translate(695.266875 197.52) scale(0.15 -0.15)">
      <defs>
       <path id="TimesNewRomanPS-BoldMT-77" d="M 3113 -88 
L 2313 2056 
L 1528 -88 
L 1366 -88 
L 588 2031 
Q 413 2516 291 2663 
Q 213 2763 53 2806 
L 53 2922 
L 1528 2922 
L 1528 2806 
Q 1378 2806 1322 2762 
Q 1266 2719 1266 2663 
Q 1266 2609 1366 2344 
L 1794 1203 
L 2206 2344 
L 2175 2419 
Q 2081 2653 2011 2717 
Q 1941 2781 1794 2806 
L 1794 2922 
L 3291 2922 
L 3291 2806 
Q 3116 2797 3069 2758 
Q 3022 2719 3022 2647 
Q 3022 2578 3113 2344 
L 3525 1203 
L 3900 2253 
Q 3981 2478 3981 2559 
Q 3981 2681 3922 2737 
Q 3863 2794 3691 2806 
L 3691 2922 
L 4556 2922 
L 4556 2806 
Q 4413 2788 4328 2705 
Q 4244 2622 4109 2234 
L 3291 -88 
L 3113 -88 
z
" transform="scale(0.015625)"/>
      </defs>
      <use xlink:href="#TimesNewRomanPS-BoldMT-6c"/>
      <use xlink:href="#TimesNewRomanPS-BoldMT-6f" x="27.783203"/>
      <use xlink:href="#TimesNewRomanPS-BoldMT-77" x="77.783203"/>
      <use xlink:href="#TimesNewRomanPS-BoldMT-20" x="150"/>
      <use xlink:href="#TimesNewRomanPS-BoldMT-63" x="175"/>
      <use xlink:href="#TimesNewRomanPS-BoldMT-6f" x="219.384766"/>
      <use xlink:href="#TimesNewRomanPS-BoldMT-73" x="269.384766"/>
      <use xlink:href="#TimesNewRomanPS-BoldMT-74" x="308.300781"/>
     </g>
    </g>
    <g id="line2d_42">
     <path d="M 653.266875 213.478594 
L 668.266875 213.478594 
L 683.266875 213.478594 
" style="fill: none; stroke: #1f77b4; stroke-width: 1.5; stroke-linecap: round"/>
    </g>
    <g id="text_26">
     <!-- reference cost -->
     <g style="fill: #262626" transform="translate(695.266875 218.728594) scale(0.15 -0.15)">
      <use xlink:href="#TimesNewRomanPS-BoldMT-72"/>
      <use xlink:href="#TimesNewRomanPS-BoldMT-65" x="42.634766"/>
      <use xlink:href="#TimesNewRomanPS-BoldMT-66" x="87.019531"/>
      <use xlink:href="#TimesNewRomanPS-BoldMT-65" x="120.320312"/>
      <use xlink:href="#TimesNewRomanPS-BoldMT-72" x="164.705078"/>
      <use xlink:href="#TimesNewRomanPS-BoldMT-65" x="207.339844"/>
      <use xlink:href="#TimesNewRomanPS-BoldMT-6e" x="251.724609"/>
      <use xlink:href="#TimesNewRomanPS-BoldMT-63" x="307.339844"/>
      <use xlink:href="#TimesNewRomanPS-BoldMT-65" x="351.724609"/>
      <use xlink:href="#TimesNewRomanPS-BoldMT-20" x="396.109375"/>
      <use xlink:href="#TimesNewRomanPS-BoldMT-63" x="421.109375"/>
      <use xlink:href="#TimesNewRomanPS-BoldMT-6f" x="465.494141"/>
      <use xlink:href="#TimesNewRomanPS-BoldMT-73" x="515.494141"/>
      <use xlink:href="#TimesNewRomanPS-BoldMT-74" x="554.410156"/>
     </g>
    </g>
    <g id="line2d_43">
     <path d="M 653.266875 234.687187 
L 668.266875 234.687187 
L 683.266875 234.687187 
" style="fill: none; stroke: #ff7f0e; stroke-width: 1.5; stroke-linecap: round"/>
    </g>
    <g id="text_27">
     <!-- high cost -->
     <g style="fill: #262626" transform="translate(695.266875 239.937187) scale(0.15 -0.15)">
      <use xlink:href="#TimesNewRomanPS-BoldMT-68"/>
      <use xlink:href="#TimesNewRomanPS-BoldMT-69" x="55.615234"/>
      <use xlink:href="#TimesNewRomanPS-BoldMT-67" x="83.398438"/>
      <use xlink:href="#TimesNewRomanPS-BoldMT-68" x="133.398438"/>
      <use xlink:href="#TimesNewRomanPS-BoldMT-20" x="189.013672"/>
      <use xlink:href="#TimesNewRomanPS-BoldMT-63" x="214.013672"/>
      <use xlink:href="#TimesNewRomanPS-BoldMT-6f" x="258.398438"/>
      <use xlink:href="#TimesNewRomanPS-BoldMT-73" x="308.398438"/>
      <use xlink:href="#TimesNewRomanPS-BoldMT-74" x="347.314453"/>
     </g>
    </g>
   </g>
  </g>
 </g>
 <defs>
  <clipPath id="p013ffe5029">
   <rect x="71.529375" y="7.2" width="558" height="166.32"/>
  </clipPath>
  <clipPath id="p5172bc6659">
   <rect x="71.529375" y="173.52" width="558" height="166.32"/>
  </clipPath>
 </defs>
</svg>
